<svg width="40" height="40" viewBox="0 0 40 40" fill="none" xmlns="http://www.w3.org/2000/svg">
<path d="M0 15C0 6.71573 6.71573 0 15 0C23.2843 0 30 6.71573 30 15C30 23.2843 23.2843 30 15 30C6.71573 30 0 23.2843 0 15Z" fill="white"/>
<path d="M32.3228 12.5H36.25C36.9404 12.5 37.5 13.0596 37.5 13.75V36.25C37.5 36.9404 36.9404 37.5 36.25 37.5H13.75C13.0596 37.5 12.5 36.9404 12.5 36.25V32.3228C11.6452 32.2005 10.8103 32.0165 10 31.7753V36.25C10 38.3211 11.6789 40 13.75 40H36.25C38.3211 40 40 38.3211 40 36.25V13.75C40 11.6789 38.3211 10 36.25 10H31.7753C32.0165 10.8103 32.2005 11.6452 32.3228 12.5Z" fill="white"/>
<path d="M22.1653 8.04917C22.8975 7.31694 24.0847 7.31694 24.8169 8.04917C25.5402 8.77243 25.5491 9.93954 24.8436 10.6737L14.863 23.1493C14.8486 23.1673 14.8332 23.1845 14.8169 23.2008C14.0847 23.9331 12.8975 23.9331 12.1653 23.2008L5.54918 16.5847C4.81694 15.8525 4.81694 14.6653 5.54917 13.9331C6.28141 13.2008 7.46859 13.2008 8.20083 13.9331L13.4346 19.1669L22.1156 8.10526C22.131 8.08559 22.1476 8.06686 22.1653 8.04917Z" fill="#3258E8"/>
</svg>
