<svg width="1238" height="1189" viewBox="0 0 1238 1189" fill="none" xmlns="http://www.w3.org/2000/svg">
<g clip-path="url(#clip0_59_48)">
<path d="M1041.22 281.657H1034.72V103.254C1034.72 75.8694 1023.85 49.6063 1004.5 30.2424C985.149 10.8785 958.906 -6.10217e-05 931.541 -6.10217e-05H553.842C540.293 -0.000280026 526.876 2.67025 514.357 7.85906C501.839 13.0479 490.465 20.6533 480.884 30.2412C471.303 39.8291 463.703 51.2116 458.517 63.7389C453.332 76.2662 450.663 89.6929 450.663 103.252V1081.99C450.663 1109.37 461.533 1135.63 480.883 1155C500.232 1174.36 526.476 1185.24 553.84 1185.24H931.536C958.901 1185.24 985.144 1174.36 1004.49 1155C1023.84 1135.63 1034.71 1109.37 1034.71 1081.99V408.647H1041.21L1041.22 281.657Z" fill="#3F3D56"/>
<path d="M1013.56 96.3383V1088.9C1013.55 1109.66 1005.31 1129.57 990.641 1144.26C975.972 1158.94 956.076 1167.19 935.329 1167.2H549.881C529.125 1167.2 509.219 1158.95 494.539 1144.27C479.86 1129.59 471.609 1109.67 471.603 1088.9V96.3383C471.609 75.5683 479.859 55.6511 494.538 40.9676C509.217 26.284 529.123 18.0366 549.878 18.0392H596.635C594.339 23.6893 593.465 29.8173 594.09 35.8844C594.715 41.9516 596.819 47.7723 600.219 52.8349C603.618 57.8974 608.208 62.0469 613.585 64.9185C618.962 67.7901 624.962 69.2959 631.057 69.3036H850.807C856.902 69.2959 862.902 67.7901 868.279 64.9185C873.656 62.0469 878.246 57.8974 881.645 52.8349C885.044 47.7723 887.149 41.9516 887.774 35.8844C888.399 29.8173 887.525 23.6893 885.229 18.0392H935.314C956.061 18.0428 975.958 26.2912 990.63 40.9711C1005.3 55.651 1013.55 75.5608 1013.56 96.3233V96.3383Z" fill="white"/>
<path d="M742.508 494.79C831.382 494.79 903.428 422.69 903.428 333.75C903.428 244.811 831.382 172.711 742.508 172.711C653.635 172.711 581.588 244.811 581.588 333.75C581.588 422.69 653.635 494.79 742.508 494.79Z" fill="#4E73DF"/>
<path d="M918.011 668.065H575.496C573.814 668.063 572.202 667.393 571.013 666.204C569.824 665.014 569.155 663.4 569.153 661.717V576.693C569.156 575.01 569.824 573.397 571.013 572.207C572.202 571.017 573.814 570.348 575.496 570.345H918.011C919.693 570.348 921.305 571.017 922.494 572.207C923.683 573.397 924.352 575.01 924.354 576.693V661.719C924.352 663.402 923.683 665.015 922.494 666.205C921.305 667.395 919.693 668.064 918.011 668.066V668.065ZM575.496 572.884C574.487 572.884 573.519 573.286 572.805 574C572.092 574.714 571.69 575.683 571.69 576.693V661.719C571.69 662.729 572.092 663.697 572.805 664.411C573.519 665.126 574.487 665.527 575.496 665.528H918.011C919.02 665.527 919.988 665.126 920.702 664.411C921.415 663.697 921.817 662.729 921.817 661.719V576.693C921.817 575.683 921.415 574.714 920.702 574C919.988 573.286 919.02 572.884 918.011 572.884H575.496Z" fill="#E6E6E6"/>
<path d="M681.422 600.966C680.244 600.966 679.115 601.434 678.282 602.267C677.449 603.1 676.981 604.231 676.981 605.409C676.981 606.588 677.449 607.718 678.282 608.551C679.115 609.384 680.244 609.853 681.422 609.853H890.735C891.912 609.898 893.059 609.473 893.923 608.672C894.787 607.871 895.298 606.76 895.343 605.582C895.388 604.404 894.964 603.256 894.163 602.392C893.363 601.527 892.252 601.015 891.075 600.97C891.01 600.968 890.945 600.967 890.88 600.967H681.421L681.422 600.966Z" fill="#E6E6E6"/>
<path d="M681.422 627.622C680.244 627.622 679.115 628.09 678.282 628.923C677.449 629.757 676.981 630.887 676.981 632.065C676.981 633.244 677.449 634.374 678.282 635.207C679.115 636.041 680.244 636.509 681.422 636.509H890.735C891.912 636.554 893.059 636.129 893.923 635.328C894.787 634.527 895.298 633.416 895.343 632.238C895.388 631.06 894.964 629.912 894.163 629.048C893.363 628.183 892.252 627.672 891.075 627.627C891.01 627.624 890.945 627.623 890.88 627.623H681.421L681.422 627.622Z" fill="#E6E6E6"/>
<path d="M918.011 809.784H575.496C573.814 809.782 572.202 809.113 571.013 807.923C569.824 806.733 569.155 805.119 569.153 803.436V718.412C569.156 716.729 569.824 715.116 571.013 713.926C572.202 712.736 573.814 712.067 575.496 712.064H918.011C919.693 712.067 921.305 712.736 922.494 713.926C923.683 715.116 924.352 716.729 924.354 718.412V803.438C924.351 805.121 923.682 806.733 922.493 807.923C921.304 809.112 919.692 809.781 918.011 809.784V809.784ZM575.496 714.603C574.487 714.603 573.519 715.005 572.805 715.719C572.092 716.433 571.69 717.402 571.69 718.412V803.438C571.69 804.448 572.092 805.416 572.805 806.131C573.519 806.845 574.487 807.246 575.496 807.247H918.011C919.02 807.246 919.988 806.845 920.702 806.131C921.415 805.416 921.817 804.448 921.817 803.438V718.412C921.817 717.402 921.415 716.433 920.702 715.719C919.988 715.005 919.02 714.603 918.011 714.603H575.496Z" fill="#E6E6E6"/>
<path d="M681.422 743.145C680.244 743.145 679.115 743.613 678.282 744.447C677.449 745.28 676.981 746.41 676.981 747.589C676.981 748.767 677.449 749.897 678.282 750.731C679.115 751.564 680.244 752.032 681.422 752.032H890.735C891.896 752.025 893.008 751.564 893.833 750.747C894.659 749.93 895.131 748.822 895.15 747.66C895.169 746.499 894.733 745.376 893.935 744.532C893.137 743.689 892.04 743.191 890.88 743.147H681.422V743.145Z" fill="#E6E6E6"/>
<path d="M681.422 769.808C680.244 769.808 679.115 770.276 678.282 771.109C677.449 771.943 676.981 773.073 676.981 774.251C676.981 775.43 677.449 776.56 678.282 777.393C679.115 778.227 680.244 778.695 681.422 778.695H890.735C891.896 778.688 893.008 778.227 893.833 777.41C894.659 776.593 895.131 775.485 895.15 774.323C895.169 773.162 894.733 772.039 893.935 771.195C893.137 770.351 892.04 769.854 890.88 769.81H681.422V769.808Z" fill="#E6E6E6"/>
<path d="M918.011 951.967H575.496C573.814 951.965 572.202 951.295 571.013 950.106C569.824 948.916 569.155 947.302 569.153 945.619V860.595C569.156 858.912 569.824 857.299 571.013 856.109C572.202 854.919 573.814 854.25 575.496 854.247H918.011C919.693 854.25 921.305 854.919 922.494 856.109C923.683 857.299 924.352 858.912 924.354 860.595V945.621C924.352 947.304 923.683 948.917 922.494 950.107C921.305 951.297 919.693 951.966 918.011 951.968V951.967ZM575.496 856.785C574.487 856.786 573.519 857.188 572.805 857.902C572.092 858.616 571.69 859.585 571.69 860.595V945.621C571.69 946.631 572.092 947.599 572.805 948.313C573.519 949.028 574.487 949.429 575.496 949.43H918.011C919.02 949.429 919.988 949.028 920.702 948.313C921.415 947.599 921.817 946.631 921.817 945.621V860.595C921.817 859.585 921.415 858.616 920.702 857.902C919.988 857.188 919.02 856.786 918.011 856.785H575.496Z" fill="#E6E6E6"/>
<path d="M681.422 885.333C680.244 885.333 679.115 885.801 678.282 886.634C677.449 887.468 676.981 888.598 676.981 889.776C676.981 890.955 677.449 892.085 678.282 892.918C679.115 893.752 680.244 894.22 681.422 894.22H890.735C891.318 894.242 891.899 894.149 892.446 893.947C892.993 893.744 893.495 893.436 893.923 893.039C894.351 892.643 894.696 892.166 894.94 891.635C895.184 891.105 895.321 890.532 895.343 889.949C895.365 889.366 895.273 888.784 895.07 888.236C894.868 887.689 894.56 887.187 894.163 886.759C893.767 886.331 893.29 885.985 892.76 885.741C892.231 885.497 891.658 885.36 891.075 885.338C891.01 885.335 890.945 885.334 890.88 885.334H681.421L681.422 885.333Z" fill="#E6E6E6"/>
<path d="M681.422 911.994C680.244 911.994 679.115 912.462 678.282 913.295C677.449 914.129 676.981 915.259 676.981 916.437C676.981 917.616 677.449 918.746 678.282 919.58C679.115 920.413 680.244 920.881 681.422 920.881H890.735C891.318 920.903 891.899 920.81 892.446 920.608C892.993 920.405 893.495 920.097 893.923 919.701C894.351 919.304 894.696 918.827 894.94 918.297C895.184 917.766 895.321 917.193 895.343 916.61C895.365 916.027 895.273 915.445 895.07 914.898C894.868 914.35 894.56 913.848 894.163 913.42C893.767 912.992 893.29 912.646 892.76 912.402C892.231 912.158 891.658 912.021 891.075 911.999C891.01 911.996 890.945 911.995 890.88 911.996H681.421L681.422 911.994Z" fill="#E6E6E6"/>
<path d="M1233.97 1188.34H3.22942C1.44466 1188.34 -0.00012207 1187.56 -0.00012207 1186.6C-0.00012207 1185.64 1.44633 1184.86 3.22942 1184.86H1233.97C1235.75 1184.86 1237.2 1185.64 1237.2 1186.6C1237.2 1187.56 1235.75 1188.34 1233.97 1188.34Z" fill="#E6E6E6"/>
<path d="M1181.84 1120.36C1176.58 1122.21 1170.94 1122.67 1165.45 1121.7C1159.96 1120.74 1154.81 1118.37 1150.5 1114.83C1139.53 1105.61 1136.09 1090.43 1133.29 1076.36L1125 1034.76L1142.34 1046.71C1154.81 1055.3 1167.56 1064.17 1176.2 1076.62C1184.83 1089.06 1188.6 1106.05 1181.66 1119.52" fill="#E6E6E6"/>
<path d="M1179.16 1173.62C1181.35 1157.71 1183.59 1141.59 1182.06 1125.51C1180.7 1111.22 1176.35 1097.27 1167.48 1085.84C1162.78 1079.78 1157.05 1074.58 1150.56 1070.49C1148.87 1069.42 1147.31 1072.11 1149 1073.17C1160.22 1080.27 1168.91 1090.76 1173.8 1103.12C1179.19 1116.86 1180.06 1131.84 1179.13 1146.44C1178.56 1155.27 1177.37 1164.04 1176.17 1172.8C1176.08 1173.19 1176.14 1173.61 1176.34 1173.96C1176.54 1174.32 1176.87 1174.58 1177.25 1174.7C1177.65 1174.81 1178.07 1174.76 1178.43 1174.55C1178.79 1174.35 1179.05 1174.01 1179.16 1173.62H1179.16Z" fill="#F2F2F2"/>
<path d="M1163.46 1148.09C1161.2 1151.52 1158.1 1154.31 1154.45 1156.19C1150.81 1158.07 1146.74 1158.99 1142.64 1158.84C1132.1 1158.34 1123.32 1150.98 1115.41 1144L1092.02 1123.33L1107.5 1122.58C1118.63 1122.05 1130.05 1121.55 1140.66 1124.99C1151.27 1128.43 1161.05 1136.69 1162.98 1147.67" fill="#E6E6E6"/>
<path d="M1185.33 1182.77C1174.83 1164.16 1162.64 1143.48 1140.86 1136.87C1134.81 1135.04 1128.46 1134.39 1122.16 1134.94C1120.17 1135.11 1120.67 1138.18 1122.66 1138.01C1133.22 1137.13 1143.76 1139.92 1152.51 1145.91C1160.93 1151.64 1167.48 1159.61 1173.02 1168.07C1176.42 1173.24 1179.46 1178.64 1182.51 1184.03C1183.47 1185.75 1186.32 1184.51 1185.33 1182.77Z" fill="#F2F2F2"/>
<path d="M618.227 645.343C632.939 645.343 644.867 633.407 644.867 618.683C644.867 603.959 632.939 592.024 618.227 592.024C603.514 592.024 591.587 603.959 591.587 618.683C591.587 633.407 603.514 645.343 618.227 645.343Z" fill="#4E73DF"/>
<path d="M605.473 613.703C605.167 613.703 604.919 615.693 604.919 618.146C604.919 620.599 605.167 622.59 605.473 622.59H631.668C631.975 622.63 632.228 620.674 632.233 618.221C632.403 616.694 632.216 615.148 631.687 613.705H605.473V613.703Z" fill="#E6E6E6"/>
<path d="M618.227 787.584C632.939 787.584 644.867 775.648 644.867 760.924C644.867 746.201 632.939 734.265 618.227 734.265C603.514 734.265 591.587 746.201 591.587 760.924C591.587 775.648 603.514 787.584 618.227 787.584Z" fill="#4E73DF"/>
<path d="M605.473 755.944C605.167 755.944 604.919 757.934 604.919 760.387C604.919 762.84 605.167 764.831 605.473 764.831H631.668C631.975 764.871 632.228 762.915 632.233 760.462C632.403 758.935 632.216 757.389 631.687 755.946H605.473V755.944Z" fill="#E6E6E6"/>
<path d="M618.227 929.766C632.939 929.766 644.867 917.831 644.867 903.107C644.867 888.383 632.939 876.447 618.227 876.447C603.514 876.447 591.587 888.383 591.587 903.107C591.587 917.831 603.514 929.766 618.227 929.766Z" fill="#4E73DF"/>
<path d="M605.473 898.127C605.167 898.127 604.919 900.117 604.919 902.57C604.919 905.023 605.167 907.014 605.473 907.014H631.668C631.975 907.054 632.228 905.098 632.233 902.645C632.403 901.118 632.216 899.571 631.687 898.129H605.473V898.127Z" fill="#E6E6E6"/>
<path d="M707.747 289.53L698.32 298.963L777.27 377.971L786.697 368.538L707.747 289.53Z" fill="white"/>
<path d="M786.696 298.963L777.27 289.529L698.32 368.538L707.747 377.971L786.696 298.963Z" fill="white"/>
<path d="M150.412 760.685C152.721 759.867 154.824 758.553 156.57 756.834C158.317 755.115 159.666 753.033 160.522 750.736C161.378 748.439 161.72 745.982 161.525 743.538C161.329 741.095 160.601 738.723 159.39 736.592L198.66 691.792L168.005 687.56L135.414 730.751C131.97 733.023 129.479 736.481 128.413 740.468C127.346 744.455 127.778 748.695 129.627 752.385C131.476 756.075 134.613 758.958 138.443 760.488C142.274 762.018 146.533 762.088 150.412 760.685V760.685Z" fill="#9F616A"/>
<path d="M197.772 1157.73L170.384 1157.72L157.354 1052L197.777 1052.01L197.772 1157.73Z" fill="#9F616A"/>
<path d="M204.757 1184.3L116.444 1184.29V1183.17C116.445 1174.05 120.066 1165.3 126.513 1158.85C132.959 1152.4 141.702 1148.78 150.818 1148.78H150.82L204.758 1148.78L204.757 1184.3Z" fill="#2F2E41"/>
<path d="M341.142 1134.79L314.986 1142.92L271.215 1045.82L309.82 1033.82L341.142 1134.79Z" fill="#9F616A"/>
<path d="M355.687 1158.09L271.345 1184.3L271.014 1183.23C268.311 1174.51 269.177 1165.08 273.422 1157.01C277.667 1148.94 284.942 1142.88 293.648 1140.18L293.651 1140.17L345.163 1124.17L355.687 1158.09Z" fill="#2F2E41"/>
<path d="M176.798 670.311L136.235 716.801L167.991 719.661L176.798 670.311Z" fill="#E6E6E6"/>
<path d="M160.948 730.236C160.948 730.236 146.859 737.285 145.097 769.011C143.336 800.737 150.381 883.58 150.381 883.58C150.381 883.58 143.337 920.592 150.381 954.079C157.425 987.566 143.337 1109.17 152.143 1109.17C160.948 1109.17 206.739 1114.46 208.5 1109.17C210.262 1103.89 212.023 1024.57 212.023 1024.57C212.023 1024.57 226.113 984.036 212.023 959.368C212.023 959.368 261.218 1045.33 293.037 1110.94C300.001 1125.3 352.917 1109.18 344.112 1093.32C335.306 1077.45 314.173 1005.19 314.173 1005.19C314.173 1005.19 298.321 952.315 270.144 929.403L284.233 816.603C284.233 816.603 314.174 740.815 296.565 730.241C278.956 719.666 160.948 730.236 160.948 730.236Z" fill="#2F2E41"/>
<path d="M213.783 442.947C239.072 442.947 259.573 422.43 259.573 397.122C259.573 371.814 239.072 351.298 213.783 351.298C188.493 351.298 167.992 371.814 167.992 397.122C167.992 422.43 188.493 442.947 213.783 442.947Z" fill="#A0616A"/>
<path d="M264.858 446.472L207.932 479.959C207.932 479.959 186.135 492.243 177.993 513.446C169.314 536.043 174.358 567.859 177.993 575.133C185.037 589.233 175.038 624.483 175.038 624.483L166.233 705.557C166.233 705.557 134.532 735.519 159.189 739.044C183.845 742.57 227.874 737.281 254.292 739.044C280.711 740.807 310.65 744.332 301.844 726.703C293.039 709.074 282.472 696.74 293.039 661.497C301.308 633.914 300.949 530.78 300.403 487.225C300.328 481.244 298.725 475.381 295.746 470.195C292.768 465.009 288.513 460.671 283.387 457.595L264.858 446.472Z" fill="#E5E5E5"/>
<path opacity="0.1" d="M239.328 501.992L244.61 609.504L193.407 713.272L184.723 709.965L237.56 613.028L239.328 501.992Z" fill="black"/>
<path opacity="0.1" d="M297.44 632.415V620.074L237.566 718.777L297.44 632.415Z" fill="black"/>
<path d="M181.284 354.671L173.72 351.643C173.72 351.643 189.551 334.204 211.57 335.72L205.376 328.896C205.376 328.896 220.515 322.831 234.28 338.752C241.516 347.122 249.886 356.961 255.111 368.043H263.218L259.835 375.499L271.677 382.955L259.522 381.621C260.673 388.058 260.279 394.677 258.372 400.931L258.705 406.825C258.705 406.825 244.609 384.996 244.609 381.968V389.551C244.609 389.551 237.038 382.727 237.038 378.177L232.909 383.486L230.844 375.147L205.381 383.486L209.507 376.658L193.676 378.933L199.87 370.594C199.87 370.594 181.977 380.45 181.289 388.792C180.601 397.134 171.655 407.747 171.655 407.747L167.526 400.164C167.526 400.164 161.333 366.045 181.284 354.671Z" fill="#2F2E41"/>
<path d="M210.909 765.673C213.037 764.457 214.872 762.79 216.287 760.788C217.701 758.786 218.659 756.498 219.094 754.086C219.529 751.673 219.43 749.194 218.804 746.824C218.178 744.454 217.041 742.249 215.472 740.367L246.172 689.302L215.253 690.583L190.84 738.878C187.854 741.726 186.016 745.57 185.673 749.684C185.331 753.797 186.508 757.893 188.982 761.196C191.456 764.499 195.054 766.779 199.096 767.604C203.137 768.429 207.34 767.742 210.909 765.673V765.673Z" fill="#9F616A"/>
<path d="M280.711 469.388L293.919 466.744C293.919 466.744 333.545 495.825 321.217 553.987C308.888 612.149 254.292 700.274 254.292 700.274C254.292 700.274 241.961 716.137 238.441 719.661C234.922 723.185 227.874 719.661 231.397 724.949C234.92 730.237 226.113 733.761 226.113 733.761C226.113 733.761 187.366 733.761 190.889 719.661C194.412 705.561 254.292 605.091 254.292 605.091L245.487 511.68C245.487 511.68 238.44 465.862 280.711 469.388Z" fill="#E5E5E5"/>
</g>
<defs>
<clipPath id="clip0_59_48">
<rect width="1237.2" height="1188.34" fill="white"/>
</clipPath>
</defs>
</svg>
