<svg width="125" height="61" viewBox="0 0 125 61" fill="none" xmlns="http://www.w3.org/2000/svg">
<path d="M0 22.68C0 10.1542 10.1542 0 22.68 0C35.2058 0 45.36 10.1542 45.36 22.68C45.36 35.2058 35.2058 45.36 22.68 45.36C10.1542 45.36 0 35.2058 0 22.68Z" fill="#7B61FF"/>
<path d="M48.872 18.9H54.81C55.8538 18.9 56.7 19.7462 56.7 20.79V54.81C56.7 55.8538 55.8538 56.7 54.81 56.7H20.79C19.7462 56.7 18.9 55.8538 18.9 54.81V48.872C17.6075 48.6872 16.3452 48.4089 15.12 48.0443V54.81C15.12 57.9414 17.6585 60.48 20.79 60.48H54.81C57.9414 60.48 60.48 57.9414 60.48 54.81V20.79C60.48 17.6585 57.9414 15.12 54.81 15.12H48.0443C48.4089 16.3452 48.6872 17.6075 48.872 18.9Z" fill="#7B61FF"/>
<path d="M26.5983 9.65901C27.477 8.78033 28.9016 8.78033 29.7803 9.65901C30.6482 10.5269 30.6589 11.9274 29.8123 12.8084L17.8357 27.7792C17.8184 27.8008 17.7999 27.8214 17.7803 27.841C16.9017 28.7197 15.477 28.7197 14.5984 27.841L6.65901 19.9017C5.78033 19.023 5.78033 17.5983 6.65901 16.7197C7.53769 15.841 8.96231 15.841 9.84099 16.7197L16.1216 23.0002L26.5387 9.72631C26.5572 9.70271 26.5771 9.68023 26.5983 9.65901Z" fill="white"/>
<path d="M87.5156 31.2266C87.5156 31.9219 87.4297 32.543 87.2578 33.0898C87.0859 33.6367 86.8516 34.1211 86.5547 34.543C86.2656 34.957 85.9297 35.3125 85.5469 35.6094C85.1641 35.9062 84.7617 36.1484 84.3398 36.3359C83.9258 36.5234 83.5039 36.6602 83.0742 36.7461C82.6523 36.832 82.2539 36.875 81.8789 36.875H74.9883V33.8281H81.8789C82.2695 33.7969 82.6211 33.7188 82.9336 33.5938C83.2539 33.4609 83.5273 33.2852 83.7539 33.0664C83.9805 32.8477 84.1562 32.5859 84.2812 32.2812C84.4062 31.9688 84.4688 31.6172 84.4688 31.2266V29.8438C84.4297 29.4609 84.3477 29.1094 84.2227 28.7891C84.0977 28.4688 83.9258 28.1953 83.707 27.9688C83.4961 27.7422 83.2383 27.5664 82.9336 27.4414C82.6289 27.3086 82.2773 27.2422 81.8789 27.2422H75.0117C74.6055 27.2422 74.2969 27.3477 74.0859 27.5586C73.875 27.7695 73.7695 28.0742 73.7695 28.4727V41H70.7227V28.4727C70.7227 27.6914 70.8633 27.0273 71.1445 26.4805C71.4336 25.9336 71.7891 25.4922 72.2109 25.1562C72.6406 24.8203 73.1055 24.5781 73.6055 24.4297C74.1055 24.2734 74.5664 24.1953 74.9883 24.1953H81.8789C82.5664 24.1953 83.1836 24.2852 83.7305 24.4648C84.2773 24.6367 84.7578 24.8711 85.1719 25.168C85.5938 25.457 85.9492 25.793 86.2383 26.1758C86.5352 26.5586 86.7773 26.9609 86.9648 27.3828C87.1602 27.7969 87.3008 28.2188 87.3867 28.6484C87.4727 29.0703 87.5156 29.4688 87.5156 29.8438V31.2266ZM109.688 41H106.617V30.9922L101.215 40.4961C101.082 40.7383 100.895 40.9219 100.652 41.0469C100.418 41.1719 100.164 41.2344 99.8906 41.2344C99.625 41.2344 99.375 41.1719 99.1406 41.0469C98.9141 40.9219 98.7344 40.7383 98.6016 40.4961L93.1758 30.9922V41H90.1289V25.4961C90.1289 25.1445 90.2305 24.832 90.4336 24.5586C90.6445 24.2852 90.918 24.1016 91.2539 24.0078C91.418 23.9688 91.582 23.957 91.7461 23.9727C91.9102 23.9805 92.0664 24.0156 92.2148 24.0781C92.3711 24.1328 92.5117 24.2148 92.6367 24.3242C92.7617 24.4258 92.8672 24.5508 92.9531 24.6992L99.8906 36.7578L106.828 24.6992C107.008 24.4023 107.254 24.1914 107.566 24.0664C107.887 23.9414 108.219 23.9219 108.562 24.0078C108.891 24.1016 109.16 24.2852 109.371 24.5586C109.582 24.832 109.688 25.1445 109.688 25.4961V41Z" fill="#7B61FF"/>
<path d="M74.0859 50H73.0703V48.625H69.5V50H68.4844V47.1992C68.4844 46.7904 68.5547 46.4141 68.6953 46.0703C68.8359 45.7266 69.0312 45.431 69.2812 45.1836C69.5312 44.9362 69.8268 44.7435 70.168 44.6055C70.5091 44.4674 70.8815 44.3984 71.2852 44.3984H73.5742C73.6445 44.3984 73.7109 44.4115 73.7734 44.4375C73.8359 44.4635 73.8906 44.5 73.9375 44.5469C73.9844 44.5938 74.0208 44.6484 74.0469 44.7109C74.0729 44.7734 74.0859 44.8398 74.0859 44.9102V50ZM69.5 47.6094H73.0703V45.4141H71.2852C71.2539 45.4141 71.1875 45.4193 71.0859 45.4297C70.987 45.4375 70.8711 45.4596 70.7383 45.4961C70.6081 45.5326 70.4701 45.5885 70.3242 45.6641C70.1784 45.7396 70.0443 45.8438 69.9219 45.9766C69.7995 46.1094 69.6979 46.276 69.6172 46.4766C69.5391 46.6745 69.5 46.9154 69.5 47.1992V47.6094ZM79.7891 48.5742C79.7891 48.7487 79.7669 48.9062 79.7227 49.0469C79.6784 49.1849 79.6198 49.3073 79.5469 49.4141C79.474 49.5182 79.3893 49.6081 79.293 49.6836C79.1966 49.7565 79.0951 49.8164 78.9883 49.8633C78.8841 49.9102 78.7786 49.9453 78.6719 49.9688C78.5651 49.9896 78.4635 50 78.3672 50H76.5352V48.9844H78.3672C78.5026 48.9844 78.6042 48.9492 78.6719 48.8789C78.7396 48.8086 78.7734 48.707 78.7734 48.5742V47.207C78.7734 47.0664 78.7383 46.9622 78.668 46.8945C78.6003 46.8268 78.5 46.793 78.3672 46.793H76.543C76.4049 46.793 76.3008 46.8281 76.2305 46.8984C76.1602 46.9661 76.125 47.0664 76.125 47.1992V51.3203H75.1094V47.1992C75.1094 47.0247 75.1315 46.8685 75.1758 46.7305C75.2201 46.5924 75.2786 46.4714 75.3516 46.3672C75.4271 46.2604 75.513 46.1706 75.6094 46.0977C75.7057 46.0221 75.806 45.9609 75.9102 45.9141C76.0169 45.8672 76.1237 45.8333 76.2305 45.8125C76.3398 45.7891 76.4414 45.7773 76.5352 45.7773H78.3672C78.5417 45.7773 78.6979 45.7995 78.8359 45.8438C78.974 45.888 79.0951 45.9466 79.1992 46.0195C79.306 46.0924 79.3958 46.1771 79.4688 46.2734C79.5443 46.3698 79.6055 46.4714 79.6523 46.5781C79.6992 46.6823 79.7331 46.7878 79.7539 46.8945C79.7773 47.0013 79.7891 47.1029 79.7891 47.1992V48.5742ZM82.5117 50H82.0586C81.9128 50 81.7565 49.9753 81.5898 49.9258C81.4258 49.8763 81.2721 49.7956 81.1289 49.6836C80.9857 49.569 80.8672 49.4219 80.7734 49.2422C80.6797 49.0599 80.6328 48.8372 80.6328 48.5742V43.9922H81.6484V48.5742C81.6484 48.6992 81.6875 48.7995 81.7656 48.875C81.8438 48.9479 81.9414 48.9844 82.0586 48.9844H82.5117V50ZM84.1953 44.9102H83.1797V43.9922H84.1953V44.9102ZM84.1953 50H83.1797V45.7773H84.1953V50ZM89.2617 50H86.5078C86.3672 50 86.2135 49.9753 86.0469 49.9258C85.8802 49.8763 85.7253 49.7956 85.582 49.6836C85.4414 49.569 85.3229 49.4219 85.2266 49.2422C85.1328 49.0599 85.0859 48.8372 85.0859 48.5742V47.1992C85.0859 47.1029 85.0964 47.0013 85.1172 46.8945C85.1406 46.7878 85.1758 46.6823 85.2227 46.5781C85.2695 46.4714 85.3294 46.3698 85.4023 46.2734C85.4779 46.1771 85.5677 46.0924 85.6719 46.0195C85.7786 45.9466 85.901 45.888 86.0391 45.8438C86.1771 45.7995 86.3333 45.7773 86.5078 45.7773H89.2617V46.793H86.5078C86.375 46.793 86.2734 46.8268 86.2031 46.8945C86.1354 46.9622 86.1016 47.0664 86.1016 47.207V48.5742C86.1016 48.707 86.1367 48.8086 86.207 48.8789C86.2773 48.9492 86.3802 48.9844 86.5156 48.9844H89.2617V50ZM94.4297 48.6016C94.4297 48.7422 94.4049 48.8945 94.3555 49.0586C94.306 49.2201 94.2253 49.3711 94.1133 49.5117C94.0039 49.6497 93.8594 49.7656 93.6797 49.8594C93.5026 49.9531 93.2865 50 93.0312 50H91.1992C91.0586 50 90.9062 49.9753 90.7422 49.9258C90.5807 49.8763 90.4297 49.7969 90.2891 49.6875C90.151 49.5755 90.0352 49.431 89.9414 49.2539C89.8477 49.0742 89.8008 48.8568 89.8008 48.6016C89.8008 48.4609 89.8255 48.3086 89.875 48.1445C89.9245 47.9805 90.0039 47.8294 90.1133 47.6914C90.2253 47.5508 90.3698 47.4336 90.5469 47.3398C90.7266 47.2461 90.944 47.1992 91.1992 47.1992H93.0312V48.168H91.1992C91.0612 48.168 90.9544 48.2109 90.8789 48.2969C90.8034 48.3802 90.7656 48.4844 90.7656 48.6094C90.7656 48.7422 90.8086 48.8464 90.8945 48.9219C90.9831 48.9948 91.0872 49.0312 91.207 49.0312H93.0312C93.1693 49.0312 93.276 48.9896 93.3516 48.9062C93.4271 48.8229 93.4648 48.7188 93.4648 48.5938V47.1758C93.4648 47.043 93.4232 46.9375 93.3398 46.8594C93.2591 46.7812 93.1562 46.7422 93.0312 46.7422H90.8008V45.7773H93.0312C93.1719 45.7773 93.3229 45.8021 93.4844 45.8516C93.6484 45.901 93.7995 45.9818 93.9375 46.0938C94.0781 46.2031 94.1953 46.3477 94.2891 46.5273C94.3828 46.7044 94.4297 46.9206 94.4297 47.1758V48.6016ZM99.1211 46.793H97.3477V50H96.3203V46.793H95V45.7773H96.3203V44.3984H97.3477V45.7773H99.1211V46.793ZM100.82 44.9102H99.8047V43.9922H100.82V44.9102ZM100.82 50H99.8047V45.7773H100.82V50ZM106.391 48.5742C106.391 48.7487 106.368 48.9062 106.324 49.0469C106.28 49.1849 106.221 49.3073 106.148 49.4141C106.076 49.5182 105.991 49.6081 105.895 49.6836C105.798 49.7565 105.697 49.8164 105.59 49.8633C105.486 49.9102 105.379 49.9453 105.27 49.9688C105.163 49.9896 105.061 50 104.965 50H103.133C102.992 50 102.839 49.9753 102.672 49.9258C102.505 49.8763 102.35 49.7956 102.207 49.6836C102.066 49.569 101.948 49.4219 101.852 49.2422C101.758 49.0599 101.711 48.8372 101.711 48.5742V47.1992C101.711 46.9388 101.758 46.7188 101.852 46.5391C101.948 46.3568 102.066 46.2096 102.207 46.0977C102.35 45.9831 102.505 45.901 102.672 45.8516C102.839 45.8021 102.992 45.7773 103.133 45.7773H104.965C105.225 45.7773 105.447 45.8242 105.629 45.918C105.811 46.0117 105.958 46.1302 106.07 46.2734C106.182 46.4141 106.263 46.5677 106.312 46.7344C106.365 46.901 106.391 47.056 106.391 47.1992V48.5742ZM105.375 47.207C105.375 47.0664 105.34 46.9622 105.27 46.8945C105.199 46.8268 105.098 46.793 104.965 46.793H103.141C103.005 46.793 102.902 46.8281 102.832 46.8984C102.762 46.9661 102.727 47.0664 102.727 47.1992V48.5742C102.727 48.707 102.762 48.8086 102.832 48.8789C102.902 48.9492 103.005 48.9844 103.141 48.9844H104.965C105.103 48.9844 105.206 48.9492 105.273 48.8789C105.341 48.8086 105.375 48.707 105.375 48.5742V47.207ZM111.938 50H110.922V47.6562C110.922 47.5234 110.898 47.4049 110.852 47.3008C110.807 47.194 110.746 47.1029 110.668 47.0273C110.59 46.9518 110.497 46.8945 110.391 46.8555C110.286 46.8138 110.173 46.793 110.051 46.793H108.273V50H107.258V46.2812C107.258 46.2109 107.271 46.1458 107.297 46.0859C107.323 46.0234 107.359 45.9701 107.406 45.9258C107.453 45.8789 107.508 45.8424 107.57 45.8164C107.633 45.7904 107.699 45.7773 107.77 45.7773H110.059C110.186 45.7773 110.32 45.7917 110.461 45.8203C110.604 45.849 110.745 45.8958 110.883 45.9609C111.023 46.0234 111.156 46.1042 111.281 46.2031C111.409 46.2995 111.521 46.418 111.617 46.5586C111.716 46.6966 111.794 46.8568 111.852 47.0391C111.909 47.2214 111.938 47.4271 111.938 47.6562V50Z" fill="#7B7B7B"/>
</svg>
