<svg width="48" height="48" viewBox="0 0 48 48" fill="none" xmlns="http://www.w3.org/2000/svg">
<path d="M0 18C0 8.05888 8.05888 0 18 0C27.9411 0 36 8.05888 36 18C36 27.9411 27.9411 36 18 36C8.05888 36 0 27.9411 0 18Z" fill="#3258E8"/>
<path d="M38.7873 15H43.5C44.3284 15 45 15.6716 45 16.5V43.5C45 44.3284 44.3284 45 43.5 45H16.5C15.6716 45 15 44.3284 15 43.5V38.7873C13.9742 38.6406 12.9724 38.4198 12 38.1304V43.5C12 45.9853 14.0147 48 16.5 48H43.5C45.9853 48 48 45.9853 48 43.5V16.5C48 14.0147 45.9853 12 43.5 12H38.1304C38.4198 12.9724 38.6406 13.9742 38.7873 15Z" fill="#3258E8"/>
<path d="M26.5983 9.65901C27.477 8.78033 28.9016 8.78033 29.7803 9.65901C30.6482 10.5269 30.6589 11.9274 29.8123 12.8084L17.8357 27.7792C17.8184 27.8008 17.7999 27.8214 17.7803 27.841C16.9017 28.7197 15.477 28.7197 14.5984 27.841L6.65901 19.9017C5.78033 19.023 5.78033 17.5983 6.65901 16.7197C7.53769 15.841 8.96231 15.841 9.84099 16.7197L16.1216 23.0002L26.5387 9.72631C26.5572 9.70271 26.5771 9.68023 26.5983 9.65901Z" fill="white"/>
</svg>
