<svg width="100" height="48" viewBox="0 0 100 48" fill="none" xmlns="http://www.w3.org/2000/svg">
<path d="M0 18C0 8.05888 8.05888 0 18 0C27.9411 0 36 8.05888 36 18C36 27.9411 27.9411 36 18 36C8.05888 36 0 27.9411 0 18Z" fill="#7B61FF"/>
<path d="M38.7873 15H43.5C44.3284 15 45 15.6716 45 16.5V43.5C45 44.3284 44.3284 45 43.5 45H16.5C15.6716 45 15 44.3284 15 43.5V38.7873C13.9742 38.6406 12.9724 38.4198 12 38.1304V43.5C12 45.9853 14.0147 48 16.5 48H43.5C45.9853 48 48 45.9853 48 43.5V16.5C48 14.0147 45.9853 12 43.5 12H38.1304C38.4198 12.9724 38.6406 13.9742 38.7873 15Z" fill="#7B61FF"/>
<path d="M26.5983 9.65901C27.477 8.78033 28.9016 8.78033 29.7803 9.65901C30.6482 10.5269 30.6589 11.9274 29.8123 12.8084L17.8357 27.7792C17.8184 27.8008 17.7999 27.8214 17.7803 27.841C16.9017 28.7197 15.477 28.7197 14.5984 27.841L6.65901 19.9017C5.78033 19.023 5.78033 17.5983 6.65901 16.7197C7.53769 15.841 8.96231 15.841 9.84099 16.7197L16.1216 23.0002L26.5387 9.72631C26.5572 9.70271 26.5771 9.68023 26.5983 9.65901Z" fill="white"/>
<path d="M74.5156 25.2266C74.5156 25.9219 74.4297 26.543 74.2578 27.0898C74.0859 27.6367 73.8516 28.1211 73.5547 28.543C73.2656 28.957 72.9297 29.3125 72.5469 29.6094C72.1641 29.9062 71.7617 30.1484 71.3398 30.3359C70.9258 30.5234 70.5039 30.6602 70.0742 30.7461C69.6523 30.832 69.2539 30.875 68.8789 30.875H61.9883V27.8281H68.8789C69.2695 27.7969 69.6211 27.7188 69.9336 27.5938C70.2539 27.4609 70.5273 27.2852 70.7539 27.0664C70.9805 26.8477 71.1562 26.5859 71.2812 26.2812C71.4062 25.9688 71.4688 25.6172 71.4688 25.2266V23.8438C71.4297 23.4609 71.3477 23.1094 71.2227 22.7891C71.0977 22.4688 70.9258 22.1953 70.707 21.9688C70.4961 21.7422 70.2383 21.5664 69.9336 21.4414C69.6289 21.3086 69.2773 21.2422 68.8789 21.2422H62.0117C61.6055 21.2422 61.2969 21.3477 61.0859 21.5586C60.875 21.7695 60.7695 22.0742 60.7695 22.4727V35H57.7227V22.4727C57.7227 21.6914 57.8633 21.0273 58.1445 20.4805C58.4336 19.9336 58.7891 19.4922 59.2109 19.1562C59.6406 18.8203 60.1055 18.5781 60.6055 18.4297C61.1055 18.2734 61.5664 18.1953 61.9883 18.1953H68.8789C69.5664 18.1953 70.1836 18.2852 70.7305 18.4648C71.2773 18.6367 71.7578 18.8711 72.1719 19.168C72.5938 19.457 72.9492 19.793 73.2383 20.1758C73.5352 20.5586 73.7773 20.9609 73.9648 21.3828C74.1602 21.7969 74.3008 22.2188 74.3867 22.6484C74.4727 23.0703 74.5156 23.4688 74.5156 23.8438V25.2266ZM96.6875 35H93.6172V24.9922L88.2148 34.4961C88.082 34.7383 87.8945 34.9219 87.6523 35.0469C87.418 35.1719 87.1641 35.2344 86.8906 35.2344C86.625 35.2344 86.375 35.1719 86.1406 35.0469C85.9141 34.9219 85.7344 34.7383 85.6016 34.4961L80.1758 24.9922V35H77.1289V19.4961C77.1289 19.1445 77.2305 18.832 77.4336 18.5586C77.6445 18.2852 77.918 18.1016 78.2539 18.0078C78.418 17.9688 78.582 17.957 78.7461 17.9727C78.9102 17.9805 79.0664 18.0156 79.2148 18.0781C79.3711 18.1328 79.5117 18.2148 79.6367 18.3242C79.7617 18.4258 79.8672 18.5508 79.9531 18.6992L86.8906 30.7578L93.8281 18.6992C94.0078 18.4023 94.2539 18.1914 94.5664 18.0664C94.8867 17.9414 95.2188 17.9219 95.5625 18.0078C95.8906 18.1016 96.1602 18.2852 96.3711 18.5586C96.582 18.832 96.6875 19.1445 96.6875 19.4961V35Z" fill="#7B61FF"/>
<path d="M61.0859 43H60.0703V41.625H56.5V43H55.4844V40.1992C55.4844 39.7904 55.5547 39.4141 55.6953 39.0703C55.8359 38.7266 56.0312 38.431 56.2812 38.1836C56.5312 37.9362 56.8268 37.7435 57.168 37.6055C57.5091 37.4674 57.8815 37.3984 58.2852 37.3984H60.5742C60.6445 37.3984 60.7109 37.4115 60.7734 37.4375C60.8359 37.4635 60.8906 37.5 60.9375 37.5469C60.9844 37.5938 61.0208 37.6484 61.0469 37.7109C61.0729 37.7734 61.0859 37.8398 61.0859 37.9102V43ZM56.5 40.6094H60.0703V38.4141H58.2852C58.2539 38.4141 58.1875 38.4193 58.0859 38.4297C57.987 38.4375 57.8711 38.4596 57.7383 38.4961C57.6081 38.5326 57.4701 38.5885 57.3242 38.6641C57.1784 38.7396 57.0443 38.8438 56.9219 38.9766C56.7995 39.1094 56.6979 39.276 56.6172 39.4766C56.5391 39.6745 56.5 39.9154 56.5 40.1992V40.6094ZM66.7891 41.5742C66.7891 41.7487 66.7669 41.9062 66.7227 42.0469C66.6784 42.1849 66.6198 42.3073 66.5469 42.4141C66.474 42.5182 66.3893 42.6081 66.293 42.6836C66.1966 42.7565 66.0951 42.8164 65.9883 42.8633C65.8841 42.9102 65.7786 42.9453 65.6719 42.9688C65.5651 42.9896 65.4635 43 65.3672 43H63.5352V41.9844H65.3672C65.5026 41.9844 65.6042 41.9492 65.6719 41.8789C65.7396 41.8086 65.7734 41.707 65.7734 41.5742V40.207C65.7734 40.0664 65.7383 39.9622 65.668 39.8945C65.6003 39.8268 65.5 39.793 65.3672 39.793H63.543C63.4049 39.793 63.3008 39.8281 63.2305 39.8984C63.1602 39.9661 63.125 40.0664 63.125 40.1992V44.3203H62.1094V40.1992C62.1094 40.0247 62.1315 39.8685 62.1758 39.7305C62.2201 39.5924 62.2786 39.4714 62.3516 39.3672C62.4271 39.2604 62.513 39.1706 62.6094 39.0977C62.7057 39.0221 62.806 38.9609 62.9102 38.9141C63.0169 38.8672 63.1237 38.8333 63.2305 38.8125C63.3398 38.7891 63.4414 38.7773 63.5352 38.7773H65.3672C65.5417 38.7773 65.6979 38.7995 65.8359 38.8438C65.974 38.888 66.0951 38.9466 66.1992 39.0195C66.306 39.0924 66.3958 39.1771 66.4688 39.2734C66.5443 39.3698 66.6055 39.4714 66.6523 39.5781C66.6992 39.6823 66.7331 39.7878 66.7539 39.8945C66.7773 40.0013 66.7891 40.1029 66.7891 40.1992V41.5742ZM69.5117 43H69.0586C68.9128 43 68.7565 42.9753 68.5898 42.9258C68.4258 42.8763 68.2721 42.7956 68.1289 42.6836C67.9857 42.569 67.8672 42.4219 67.7734 42.2422C67.6797 42.0599 67.6328 41.8372 67.6328 41.5742V36.9922H68.6484V41.5742C68.6484 41.6992 68.6875 41.7995 68.7656 41.875C68.8438 41.9479 68.9414 41.9844 69.0586 41.9844H69.5117V43ZM71.1953 37.9102H70.1797V36.9922H71.1953V37.9102ZM71.1953 43H70.1797V38.7773H71.1953V43ZM76.2617 43H73.5078C73.3672 43 73.2135 42.9753 73.0469 42.9258C72.8802 42.8763 72.7253 42.7956 72.582 42.6836C72.4414 42.569 72.3229 42.4219 72.2266 42.2422C72.1328 42.0599 72.0859 41.8372 72.0859 41.5742V40.1992C72.0859 40.1029 72.0964 40.0013 72.1172 39.8945C72.1406 39.7878 72.1758 39.6823 72.2227 39.5781C72.2695 39.4714 72.3294 39.3698 72.4023 39.2734C72.4779 39.1771 72.5677 39.0924 72.6719 39.0195C72.7786 38.9466 72.901 38.888 73.0391 38.8438C73.1771 38.7995 73.3333 38.7773 73.5078 38.7773H76.2617V39.793H73.5078C73.375 39.793 73.2734 39.8268 73.2031 39.8945C73.1354 39.9622 73.1016 40.0664 73.1016 40.207V41.5742C73.1016 41.707 73.1367 41.8086 73.207 41.8789C73.2773 41.9492 73.3802 41.9844 73.5156 41.9844H76.2617V43ZM81.4297 41.6016C81.4297 41.7422 81.4049 41.8945 81.3555 42.0586C81.306 42.2201 81.2253 42.3711 81.1133 42.5117C81.0039 42.6497 80.8594 42.7656 80.6797 42.8594C80.5026 42.9531 80.2865 43 80.0312 43H78.1992C78.0586 43 77.9062 42.9753 77.7422 42.9258C77.5807 42.8763 77.4297 42.7969 77.2891 42.6875C77.151 42.5755 77.0352 42.431 76.9414 42.2539C76.8477 42.0742 76.8008 41.8568 76.8008 41.6016C76.8008 41.4609 76.8255 41.3086 76.875 41.1445C76.9245 40.9805 77.0039 40.8294 77.1133 40.6914C77.2253 40.5508 77.3698 40.4336 77.5469 40.3398C77.7266 40.2461 77.944 40.1992 78.1992 40.1992H80.0312V41.168H78.1992C78.0612 41.168 77.9544 41.2109 77.8789 41.2969C77.8034 41.3802 77.7656 41.4844 77.7656 41.6094C77.7656 41.7422 77.8086 41.8464 77.8945 41.9219C77.9831 41.9948 78.0872 42.0312 78.207 42.0312H80.0312C80.1693 42.0312 80.276 41.9896 80.3516 41.9062C80.4271 41.8229 80.4648 41.7188 80.4648 41.5938V40.1758C80.4648 40.043 80.4232 39.9375 80.3398 39.8594C80.2591 39.7812 80.1562 39.7422 80.0312 39.7422H77.8008V38.7773H80.0312C80.1719 38.7773 80.3229 38.8021 80.4844 38.8516C80.6484 38.901 80.7995 38.9818 80.9375 39.0938C81.0781 39.2031 81.1953 39.3477 81.2891 39.5273C81.3828 39.7044 81.4297 39.9206 81.4297 40.1758V41.6016ZM86.1211 39.793H84.3477V43H83.3203V39.793H82V38.7773H83.3203V37.3984H84.3477V38.7773H86.1211V39.793ZM87.8203 37.9102H86.8047V36.9922H87.8203V37.9102ZM87.8203 43H86.8047V38.7773H87.8203V43ZM93.3906 41.5742C93.3906 41.7487 93.3685 41.9062 93.3242 42.0469C93.2799 42.1849 93.2214 42.3073 93.1484 42.4141C93.0755 42.5182 92.9909 42.6081 92.8945 42.6836C92.7982 42.7565 92.6966 42.8164 92.5898 42.8633C92.4857 42.9102 92.3789 42.9453 92.2695 42.9688C92.1628 42.9896 92.0612 43 91.9648 43H90.1328C89.9922 43 89.8385 42.9753 89.6719 42.9258C89.5052 42.8763 89.3503 42.7956 89.207 42.6836C89.0664 42.569 88.9479 42.4219 88.8516 42.2422C88.7578 42.0599 88.7109 41.8372 88.7109 41.5742V40.1992C88.7109 39.9388 88.7578 39.7188 88.8516 39.5391C88.9479 39.3568 89.0664 39.2096 89.207 39.0977C89.3503 38.9831 89.5052 38.901 89.6719 38.8516C89.8385 38.8021 89.9922 38.7773 90.1328 38.7773H91.9648C92.2253 38.7773 92.4466 38.8242 92.6289 38.918C92.8112 39.0117 92.9583 39.1302 93.0703 39.2734C93.1823 39.4141 93.263 39.5677 93.3125 39.7344C93.3646 39.901 93.3906 40.056 93.3906 40.1992V41.5742ZM92.375 40.207C92.375 40.0664 92.3398 39.9622 92.2695 39.8945C92.1992 39.8268 92.0977 39.793 91.9648 39.793H90.1406C90.0052 39.793 89.9023 39.8281 89.832 39.8984C89.7617 39.9661 89.7266 40.0664 89.7266 40.1992V41.5742C89.7266 41.707 89.7617 41.8086 89.832 41.8789C89.9023 41.9492 90.0052 41.9844 90.1406 41.9844H91.9648C92.1029 41.9844 92.2057 41.9492 92.2734 41.8789C92.3411 41.8086 92.375 41.707 92.375 41.5742V40.207ZM98.9375 43H97.9219V40.6562C97.9219 40.5234 97.8984 40.4049 97.8516 40.3008C97.8073 40.194 97.7461 40.1029 97.668 40.0273C97.5898 39.9518 97.4974 39.8945 97.3906 39.8555C97.2865 39.8138 97.1732 39.793 97.0508 39.793H95.2734V43H94.2578V39.2812C94.2578 39.2109 94.2708 39.1458 94.2969 39.0859C94.3229 39.0234 94.3594 38.9701 94.4062 38.9258C94.4531 38.8789 94.5078 38.8424 94.5703 38.8164C94.6328 38.7904 94.6992 38.7773 94.7695 38.7773H97.0586C97.1862 38.7773 97.3203 38.7917 97.4609 38.8203C97.6042 38.849 97.7448 38.8958 97.8828 38.9609C98.0234 39.0234 98.1562 39.1042 98.2812 39.2031C98.4089 39.2995 98.5208 39.418 98.6172 39.5586C98.7161 39.6966 98.7943 39.8568 98.8516 40.0391C98.9089 40.2214 98.9375 40.4271 98.9375 40.6562V43Z" fill="#7B7B7B"/>
</svg>
