<?xml version="1.0" encoding="UTF-8"?>
<svg xmlns="http://www.w3.org/2000/svg" xmlns:xlink="http://www.w3.org/1999/xlink" width="1029px" height="829px" viewBox="0 0 1029 829" version="1.1">
<defs>
<filter id="alpha" filterUnits="objectBoundingBox" x="0%" y="0%" width="100%" height="100%">
  <feColorMatrix type="matrix" in="SourceGraphic" values="0 0 0 0 1 0 0 0 0 1 0 0 0 0 1 0 0 0 1 0"/>
</filter>
<mask id="mask0">
  <g filter="url(#alpha)">
<rect x="0" y="0" width="1029" height="829" style="fill:rgb(0%,0%,0%);fill-opacity:0.6;stroke:none;"/>
  </g>
</mask>
<clipPath id="clip1">
  <rect x="0" y="0" width="1029" height="829"/>
</clipPath>
<g id="surface5" clip-path="url(#clip1)">
<path style=" stroke:none;fill-rule:nonzero;fill:rgb(0%,0%,0%);fill-opacity:1;" d="M 444.941406 591.308594 L 516.847656 557.816406 C 524.253906 554.367188 527.960938 549.859375 527.960938 545.332031 C 527.960938 540.804688 527.960938 537.273438 527.960938 537.273438 L 453.378906 503.386719 C 449.152344 501.183594 446.488281 497.484375 446.214844 493.4375 L 446.214844 421.996094 L 320.675781 480.457031 L 320.675781 551.867188 C 320.972656 555.910156 323.628906 559.601562 327.839844 561.8125 L 391.308594 591.257812 C 406.085938 598.207031 430.121094 598.207031 444.941406 591.308594 Z M 444.941406 591.308594 "/>
</g>
<mask id="mask1">
  <g filter="url(#alpha)">
<rect x="0" y="0" width="1029" height="829" style="fill:rgb(0%,0%,0%);fill-opacity:0.301961;stroke:none;"/>
  </g>
</mask>
<clipPath id="clip2">
  <rect x="0" y="0" width="1029" height="829"/>
</clipPath>
<g id="surface8" clip-path="url(#clip2)">
<path style=" stroke:none;fill-rule:nonzero;fill:rgb(0%,0%,0%);fill-opacity:1;" d="M 350.785156 564.515625 L 350.785156 572.539062 L 327.777344 561.847656 C 323.566406 559.636719 320.914062 555.941406 320.636719 551.898438 L 320.636719 480.457031 L 344.550781 469.328125 C 345.042969 474.222656 345.578125 479.277344 346.09375 484.253906 L 329.28125 492.042969 L 329.28125 547.835938 C 329.550781 551.886719 332.214844 555.585938 336.441406 557.785156 Z M 350.785156 564.515625 "/>
</g>
<mask id="mask2">
  <g filter="url(#alpha)">
<rect x="0" y="0" width="1029" height="829" style="fill:rgb(0%,0%,0%);fill-opacity:0.301961;stroke:none;"/>
  </g>
</mask>
<clipPath id="clip3">
  <rect x="0" y="0" width="1029" height="829"/>
</clipPath>
<g id="surface11" clip-path="url(#clip3)">
<path style=" stroke:none;fill-rule:nonzero;fill:rgb(0%,0%,0%);fill-opacity:1;" d="M 329.28125 547.851562 C 329.566406 551.898438 332.226562 555.589844 336.441406 557.800781 L 391.226562 583.234375 C 406.042969 590.117188 430.082031 590.132812 444.917969 583.234375 L 516.949219 549.742188 C 531.789062 542.847656 531.789062 531.671875 516.949219 524.773438 L 462.125 499.339844 C 457.917969 497.125 455.269531 493.433594 454.984375 489.390625 L 454.984375 433.582031 L 329.445312 492.042969 Z M 329.28125 547.851562 "/>
</g>
<mask id="mask3">
  <g filter="url(#alpha)">
<rect x="0" y="0" width="1029" height="829" style="fill:rgb(0%,0%,0%);fill-opacity:0.501961;stroke:none;"/>
  </g>
</mask>
<clipPath id="clip4">
  <rect x="0" y="0" width="1029" height="829"/>
</clipPath>
<g id="surface14" clip-path="url(#clip4)">
<path style=" stroke:none;fill-rule:nonzero;fill:rgb(0%,0%,0%);fill-opacity:1;" d="M 476.632812 506.152344 L 462.042969 499.371094 C 457.835938 497.160156 455.1875 493.464844 454.898438 489.425781 L 454.898438 433.582031 L 329.363281 492.042969 L 329.363281 547.851562 C 329.648438 551.898438 332.308594 555.589844 336.523438 557.800781 L 350.929688 564.433594 Z M 476.632812 506.152344 "/>
</g>
<mask id="mask4">
  <g filter="url(#alpha)">
<rect x="0" y="0" width="1029" height="829" style="fill:rgb(0%,0%,0%);fill-opacity:0.501961;stroke:none;"/>
  </g>
</mask>
<clipPath id="clip5">
  <rect x="0" y="0" width="1029" height="829"/>
</clipPath>
<g id="surface17" clip-path="url(#clip5)">
<path style=" stroke:none;fill-rule:nonzero;fill:rgb(0%,0%,0%);fill-opacity:1;" d="M 527.980469 537.292969 L 527.980469 545.347656 C 527.980469 549.875 524.253906 554.367188 516.867188 557.835938 L 444.835938 591.308594 C 436.953125 594.699219 428.148438 596.460938 419.214844 596.433594 L 419.214844 588.40625 C 428.148438 588.433594 436.953125 586.675781 444.835938 583.285156 L 516.867188 549.777344 C 524.253906 546.34375 527.980469 541.816406 527.980469 537.292969 Z M 527.980469 537.292969 "/>
</g>
<mask id="mask5">
  <g filter="url(#alpha)">
<rect x="0" y="0" width="1029" height="829" style="fill:rgb(0%,0%,0%);fill-opacity:0.501961;stroke:none;"/>
  </g>
</mask>
<clipPath id="clip6">
  <rect x="0" y="0" width="1029" height="829"/>
</clipPath>
<g id="surface20" clip-path="url(#clip6)">
<path style=" stroke:none;fill-rule:nonzero;fill:rgb(0%,0%,0%);fill-opacity:1;" d="M 145.007812 616.941406 L 630.695312 391.039062 C 635.984375 388.269531 639.3125 383.628906 639.648438 378.554688 L 639.648438 62.027344 C 639.648438 57.433594 635.632812 55.558594 630.695312 57.863281 L 145.007812 283.765625 C 139.722656 286.539062 136.398438 291.179688 136.054688 296.25 L 136.054688 612.78125 C 136.054688 617.371094 140.066406 619.246094 145.007812 616.941406 Z M 145.007812 616.941406 "/>
</g>
<mask id="mask6">
  <g filter="url(#alpha)">
<rect x="0" y="0" width="1029" height="829" style="fill:rgb(0%,0%,0%);fill-opacity:0.501961;stroke:none;"/>
  </g>
</mask>
<clipPath id="clip7">
  <rect x="0" y="0" width="1029" height="829"/>
</clipPath>
<g id="surface23" clip-path="url(#clip7)">
<path style=" stroke:none;fill-rule:nonzero;fill:rgb(0%,0%,0%);fill-opacity:1;" d="M 143.691406 625.164062 C 138.535156 626.976562 132.652344 626.882812 127.597656 624.898438 C 122.59375 622.101562 119.539062 617.554688 119.363281 612.648438 L 119.363281 583.832031 L 136.136719 591.65625 L 136.136719 620.472656 C 136.035156 624.667969 139.347656 626.574219 143.691406 625.164062 Z M 143.691406 625.164062 "/>
</g>
<mask id="mask7">
  <g filter="url(#alpha)">
<rect x="0" y="0" width="1029" height="829" style="fill:rgb(0%,0%,0%);fill-opacity:0.301961;stroke:none;"/>
  </g>
</mask>
<clipPath id="clip8">
  <rect x="0" y="0" width="1029" height="829"/>
</clipPath>
<g id="surface26" clip-path="url(#clip8)">
<path style=" stroke:none;fill-rule:nonzero;fill:rgb(0%,0%,0%);fill-opacity:1;" d="M 136.054688 591.589844 L 136.054688 620.472656 C 136.054688 625.066406 140.171875 626.921875 145.007812 624.636719 L 630.695312 398.730469 C 635.945312 395.96875 639.257812 391.359375 639.625 386.3125 L 639.625 357.367188 Z M 136.054688 591.589844 "/>
</g>
<mask id="mask8">
  <g filter="url(#alpha)">
<rect x="0" y="0" width="1029" height="829" style="fill:rgb(0%,0%,0%);fill-opacity:0.701961;stroke:none;"/>
  </g>
</mask>
<clipPath id="clip9">
  <rect x="0" y="0" width="1029" height="829"/>
</clipPath>
<g id="surface29" clip-path="url(#clip9)">
<path style=" stroke:none;fill-rule:nonzero;fill:rgb(0%,0%,0%);fill-opacity:1;" d="M 138.6875 289.121094 C 137.09375 291.28125 136.183594 293.722656 136.035156 296.234375 L 136.035156 591.65625 L 119.363281 583.832031 L 119.363281 288.492188 C 119.472656 285.972656 120.378906 283.519531 122 281.363281 Z M 138.6875 289.121094 "/>
</g>
<mask id="mask9">
  <g filter="url(#alpha)">
<rect x="0" y="0" width="1029" height="829" style="fill:rgb(0%,0%,0%);fill-opacity:0.301961;stroke:none;"/>
  </g>
</mask>
<clipPath id="clip10">
  <rect x="0" y="0" width="1029" height="829"/>
</clipPath>
<g id="surface32" clip-path="url(#clip10)">
<path style=" stroke:none;fill-rule:nonzero;fill:rgb(0%,0%,0%);fill-opacity:1;" d="M 639.542969 60.832031 C 638.90625 57.117188 635.179688 55.859375 630.675781 57.863281 L 144.984375 283.765625 C 142.351562 285.09375 140.179688 286.9375 138.667969 289.121094 L 121.875 281.3125 C 123.394531 279.128906 125.574219 277.285156 128.214844 275.957031 L 613.902344 50.070312 C 619.300781 47.761719 625.746094 47.660156 631.25 49.804688 C 635.867188 52.339844 638.890625 56.363281 639.542969 60.832031 Z M 639.542969 60.832031 "/>
</g>
<mask id="mask10">
  <g filter="url(#alpha)">
<rect x="0" y="0" width="1029" height="829" style="fill:rgb(0%,0%,0%);fill-opacity:0.4;stroke:none;"/>
  </g>
</mask>
<clipPath id="clip11">
  <rect x="0" y="0" width="1029" height="829"/>
</clipPath>
<g id="surface35" clip-path="url(#clip11)">
<path style=" stroke:none;fill-rule:nonzero;fill:rgb(100%,100%,100%);fill-opacity:1;" d="M 669.199219 103.742188 L 210.902344 316.925781 C 209.066406 317.859375 207.550781 319.15625 206.5 320.691406 L 198.535156 316.960938 C 199.582031 315.480469 201.085938 314.242188 202.898438 313.363281 L 661.171875 100.078125 C 662.511719 99.304688 664.269531 99.1875 665.742188 99.777344 C 666.855469 100.34375 672.058594 102.714844 673.398438 103.292969 C 671.992188 102.875 670.421875 103.042969 669.199219 103.742188 Z M 669.199219 103.742188 "/>
</g>
<mask id="mask11">
  <g filter="url(#alpha)">
<rect x="0" y="0" width="1029" height="829" style="fill:rgb(0%,0%,0%);fill-opacity:0.14902;stroke:none;"/>
  </g>
</mask>
<clipPath id="clip12">
  <rect x="0" y="0" width="1029" height="829"/>
</clipPath>
<g id="surface38" clip-path="url(#clip12)">
<path style=" stroke:none;fill-rule:nonzero;fill:rgb(0%,0%,0%);fill-opacity:1;" d="M 196.621094 338.449219 L 196.621094 322.015625 C 196.707031 320.226562 197.367188 318.484375 198.535156 316.960938 L 206.519531 320.671875 C 205.367188 322.171875 204.722656 323.886719 204.648438 325.648438 L 204.648438 342.226562 Z M 196.621094 338.449219 "/>
</g>
<mask id="mask12">
  <g filter="url(#alpha)">
<rect x="0" y="0" width="1029" height="829" style="fill:rgb(0%,0%,0%);fill-opacity:0.501961;stroke:none;"/>
  </g>
</mask>
<clipPath id="clip13">
  <rect x="0" y="0" width="1029" height="829"/>
</clipPath>
<g id="surface41" clip-path="url(#clip13)">
<path style=" stroke:none;fill-rule:nonzero;fill:rgb(100%,100%,100%);fill-opacity:1;" d="M 600.546875 306.980469 C 600.214844 305.070312 598.300781 304.375 595.996094 305.453125 L 321.519531 433.121094 C 320.167969 433.796875 319.054688 434.746094 318.289062 435.871094 L 301.105469 427.878906 C 301.875 426.769531 302.980469 425.835938 304.316406 425.160156 L 578.8125 297.496094 C 581.691406 296.316406 585.09375 296.316406 587.96875 297.496094 L 595.996094 301.207031 C 598.472656 302.515625 600.128906 304.617188 600.546875 306.980469 Z M 600.546875 306.980469 "/>
</g>
<mask id="mask13">
  <g filter="url(#alpha)">
<rect x="0" y="0" width="1029" height="829" style="fill:rgb(0%,0%,0%);fill-opacity:0.4;stroke:none;"/>
  </g>
</mask>
<clipPath id="clip14">
  <rect x="0" y="0" width="1029" height="829"/>
</clipPath>
<g id="surface44" clip-path="url(#clip14)">
<path style=" stroke:none;fill-rule:nonzero;fill:rgb(100%,100%,100%);fill-opacity:1;" d="M 464.695312 259.808594 L 478.074219 266.074219 C 471.242188 262.875 461.792969 263.324219 451.320312 268.179688 C 437.652344 274.546875 425.675781 286.867188 419.050781 300.066406 L 405.652344 293.8125 C 412.300781 280.550781 424.175781 268.296875 437.921875 261.929688 C 448.417969 257.089844 457.863281 256.625 464.695312 259.808594 Z M 464.695312 259.808594 "/>
</g>
<mask id="mask14">
  <g filter="url(#alpha)">
<rect x="0" y="0" width="1029" height="829" style="fill:rgb(0%,0%,0%);fill-opacity:0.2;stroke:none;"/>
  </g>
</mask>
<clipPath id="clip15">
  <rect x="0" y="0" width="1029" height="829"/>
</clipPath>
<g id="surface47" clip-path="url(#clip15)">
<path style=" stroke:none;fill-rule:nonzero;fill:rgb(0%,0%,0%);fill-opacity:1;" d="M 424.152344 340.371094 L 411.332031 334.386719 C 404.457031 331.234375 400.179688 324.4375 400.179688 314.65625 L 413.574219 320.921875 C 413.65625 330.375 417.609375 337.105469 424.152344 340.371094 Z M 424.152344 340.371094 "/>
</g>
<mask id="mask15">
  <g filter="url(#alpha)">
<rect x="0" y="0" width="1029" height="829" style="fill:rgb(0%,0%,0%);fill-opacity:0.101961;stroke:none;"/>
  </g>
</mask>
<clipPath id="clip16">
  <rect x="0" y="0" width="1029" height="829"/>
</clipPath>
<g id="surface50" clip-path="url(#clip16)">
<path style=" stroke:none;fill-rule:nonzero;fill:rgb(0%,0%,0%);fill-opacity:1;" d="M 405.695312 293.8125 L 419.089844 300.066406 C 415.660156 306.671875 413.816406 313.746094 413.65625 320.90625 L 400.261719 314.636719 C 400.425781 307.484375 402.269531 300.417969 405.695312 293.8125 Z M 405.695312 293.8125 "/>
</g>
<mask id="mask16">
  <g filter="url(#alpha)">
<rect x="0" y="0" width="1029" height="829" style="fill:rgb(0%,0%,0%);fill-opacity:0.101961;stroke:none;"/>
  </g>
</mask>
<clipPath id="clip17">
  <rect x="0" y="0" width="1029" height="829"/>
</clipPath>
<g id="surface53" clip-path="url(#clip17)">
<path style=" stroke:none;fill-rule:nonzero;fill:rgb(0%,0%,0%);fill-opacity:1;" d="M 889.363281 588.007812 C 889.363281 588.007812 892.101562 568.644531 904.058594 553.605469 C 916.015625 538.566406 932.4375 529.199219 947.769531 528.222656 C 963.101562 527.242188 975.492188 538.617188 959.089844 546.460938 C 942.6875 554.300781 913.546875 562.226562 900.128906 591.410156 Z M 889.363281 588.007812 "/>
</g>
<mask id="mask17">
  <g filter="url(#alpha)">
<rect x="0" y="0" width="1029" height="829" style="fill:rgb(0%,0%,0%);fill-opacity:0.4;stroke:none;"/>
  </g>
</mask>
<clipPath id="clip18">
  <rect x="0" y="0" width="1029" height="829"/>
</clipPath>
<g id="surface56" clip-path="url(#clip18)">
<path style=" stroke:none;fill-rule:nonzero;fill:rgb(0%,0%,0%);fill-opacity:1;" d="M 653.023438 421.597656 L 665.925781 415.59375 L 671.03125 410.605469 L 658.148438 416.605469 L 653.023438 421.597656 "/>
</g>
<mask id="mask18">
  <g filter="url(#alpha)">
<rect x="0" y="0" width="1029" height="829" style="fill:rgb(0%,0%,0%);fill-opacity:0.4;stroke:none;"/>
  </g>
</mask>
<clipPath id="clip19">
  <rect x="0" y="0" width="1029" height="829"/>
</clipPath>
<g id="surface59" clip-path="url(#clip19)">
<path style=" stroke:none;fill-rule:nonzero;fill:rgb(0%,0%,0%);fill-opacity:1;" d="M 688.113281 437.910156 L 701.015625 431.910156 L 711.78125 424.234375 L 698.898438 430.21875 L 688.113281 437.910156 "/>
</g>
<mask id="mask19">
  <g filter="url(#alpha)">
<rect x="0" y="0" width="1029" height="829" style="fill:rgb(0%,0%,0%);fill-opacity:0.4;stroke:none;"/>
  </g>
</mask>
<clipPath id="clip20">
  <rect x="0" y="0" width="1029" height="829"/>
</clipPath>
<g id="surface62" clip-path="url(#clip20)">
<path style=" stroke:none;fill-rule:nonzero;fill:rgb(0%,0%,0%);fill-opacity:1;" d="M 803.15625 471.550781 C 803.15625 477.867188 799.039062 481.070312 793.957031 478.699219 C 788.871094 476.328125 784.734375 469.3125 784.734375 462.996094 C 784.734375 456.679688 788.851562 453.480469 793.957031 455.851562 C 795.425781 456.570312 796.707031 457.519531 797.722656 458.636719 C 798.164062 462.730469 800.007812 466.644531 803.050781 469.945312 C 803.128906 470.476562 803.160156 471.015625 803.15625 471.550781 Z M 803.15625 471.550781 "/>
</g>
<mask id="mask20">
  <g filter="url(#alpha)">
<rect x="0" y="0" width="1029" height="829" style="fill:rgb(0%,0%,0%);fill-opacity:0.4;stroke:none;"/>
  </g>
</mask>
<clipPath id="clip21">
  <rect x="0" y="0" width="1029" height="829"/>
</clipPath>
<g id="surface65" clip-path="url(#clip21)">
<path style=" stroke:none;fill-rule:nonzero;fill:rgb(100%,100%,100%);fill-opacity:1;" d="M 828.878906 471.535156 C 828.878906 487.898438 822.542969 499.472656 812.746094 504.046875 C 810.6875 504.945312 803.527344 508.328125 800.582031 509.6875 C 809.96875 504.910156 815.996094 493.503906 815.996094 477.539062 C 815.976562 473.3125 815.574219 469.097656 814.804688 464.917969 C 810.480469 441.144531 794.613281 417.601562 775.703125 408.8125 C 766.933594 404.734375 758.824219 404.4375 752.238281 407.238281 L 764.382812 401.601562 C 771.113281 398.433594 779.507812 398.582031 788.585938 402.8125 C 807.496094 411.613281 823.363281 435.140625 827.6875 458.933594 C 828.46875 463.105469 828.871094 467.316406 828.878906 471.535156 Z M 828.878906 471.535156 "/>
</g>
<mask id="mask21">
  <g filter="url(#alpha)">
<rect x="0" y="0" width="1029" height="829" style="fill:rgb(0%,0%,0%);fill-opacity:0.101961;stroke:none;"/>
  </g>
</mask>
<clipPath id="clip22">
  <rect x="0" y="0" width="1029" height="829"/>
</clipPath>
<g id="surface68" clip-path="url(#clip22)">
<path style=" stroke:none;fill-rule:nonzero;fill:rgb(0%,0%,0%);fill-opacity:1;" d="M 815.996094 477.503906 C 815.996094 493.46875 809.96875 504.878906 800.582031 509.652344 C 803.527344 508.292969 810.769531 504.910156 812.746094 504.015625 C 822.542969 499.4375 828.878906 487.867188 828.878906 471.503906 C 828.878906 470.90625 828.878906 470.292969 828.878906 469.679688 L 815.996094 475.679688 C 815.976562 476.328125 815.996094 476.921875 815.996094 477.503906 Z M 815.996094 477.503906 "/>
</g>
<mask id="mask22">
  <g filter="url(#alpha)">
<rect x="0" y="0" width="1029" height="829" style="fill:rgb(0%,0%,0%);fill-opacity:0.14902;stroke:none;"/>
  </g>
</mask>
<clipPath id="clip23">
  <rect x="0" y="0" width="1029" height="829"/>
</clipPath>
<g id="surface71" clip-path="url(#clip23)">
<path style=" stroke:none;fill-rule:nonzero;fill:rgb(0%,0%,0%);fill-opacity:1;" d="M 737.339844 434.261719 L 737.339844 437.628906 L 622.050781 384.007812 L 624.171875 383.015625 L 624.171875 381.621094 Z M 737.339844 434.261719 "/>
</g>
<mask id="mask23">
  <g filter="url(#alpha)">
<rect x="0" y="0" width="1029" height="829" style="fill:rgb(0%,0%,0%);fill-opacity:0.14902;stroke:none;"/>
  </g>
</mask>
<clipPath id="clip24">
  <rect x="0" y="0" width="1029" height="829"/>
</clipPath>
<g id="surface74" clip-path="url(#clip24)">
<path style=" stroke:none;fill-rule:nonzero;fill:rgb(0%,0%,0%);fill-opacity:1;" d="M 737.339844 435.65625 L 737.339844 437.628906 L 622.050781 384.007812 L 624.171875 383.015625 L 624.171875 382.996094 Z M 737.339844 435.65625 "/>
</g>
<mask id="mask24">
  <g filter="url(#alpha)">
<rect x="0" y="0" width="1029" height="829" style="fill:rgb(0%,0%,0%);fill-opacity:0.14902;stroke:none;"/>
  </g>
</mask>
<clipPath id="clip25">
  <rect x="0" y="0" width="1029" height="829"/>
</clipPath>
<g id="surface77" clip-path="url(#clip25)">
<path style=" stroke:none;fill-rule:nonzero;fill:rgb(0%,0%,0%);fill-opacity:1;" d="M 787.472656 504.03125 C 783.105469 503.941406 778.84375 502.917969 775.125 501.0625 C 756.335938 492.328125 741.042969 466.328125 741.042969 443.117188 C 741.042969 429.570312 746.128906 419.457031 754.996094 415.328125 C 761.171875 412.445312 768.476562 412.808594 776.152344 416.375 C 794.921875 425.109375 810.214844 451.191406 810.214844 474.402344 C 810.214844 487.933594 805.128906 498.0625 796.261719 502.175781 C 793.585938 503.40625 790.554688 504.046875 787.472656 504.03125 Z M 763.910156 415.082031 C 761.167969 415.066406 758.46875 415.640625 756.089844 416.738281 C 748 420.503906 743.164062 430.367188 743.164062 443.101562 C 743.164062 465.78125 757.980469 491.183594 776.214844 499.605469 C 783.191406 502.921875 789.796875 503.21875 795.292969 500.667969 C 803.382812 496.902344 808.21875 487.054688 808.21875 474.320312 C 808.21875 451.621094 793.398438 426.238281 775.1875 417.800781 C 771.78125 416.132812 767.890625 415.214844 763.910156 415.148438 Z M 763.910156 415.082031 "/>
</g>
<mask id="mask25">
  <g filter="url(#alpha)">
<rect x="0" y="0" width="1029" height="829" style="fill:rgb(0%,0%,0%);fill-opacity:0.4;stroke:none;"/>
  </g>
</mask>
<clipPath id="clip26">
  <rect x="0" y="0" width="1029" height="829"/>
</clipPath>
<g id="surface80" clip-path="url(#clip26)">
<path style=" stroke:none;fill-rule:nonzero;fill:rgb(100%,100%,100%);fill-opacity:1;" d="M 740.878906 417.351562 C 738.960938 420.554688 737.578125 423.953125 736.765625 427.449219 L 621.949219 374.027344 L 634.832031 368.042969 Z M 740.878906 417.351562 "/>
</g>
</defs>
<g id="surface1">
<path style=" stroke:none;fill-rule:nonzero;fill:rgb(94.117647%,94.117647%,94.117647%);fill-opacity:1;" d="M 997.429688 580.332031 C 997.429688 455.773438 780.339844 354.796875 512.542969 354.796875 C 244.75 354.796875 27.660156 455.773438 27.660156 580.332031 C 27.660156 704.894531 244.75 805.871094 512.542969 805.871094 C 780.339844 805.871094 997.429688 704.894531 997.429688 580.332031 Z M 997.429688 580.332031 "/>
<path style=" stroke:none;fill-rule:nonzero;fill:rgb(87.843137%,87.843137%,87.843137%);fill-opacity:1;" d="M 791.011719 658.589844 C 759.214844 643.800781 759.214844 619.828125 791.011719 605.039062 C 822.808594 590.246094 874.363281 590.246094 906.15625 605.039062 C 937.953125 619.828125 937.953125 643.800781 906.15625 658.589844 C 874.363281 673.378906 822.808594 673.378906 791.011719 658.589844 Z M 791.011719 658.589844 "/>
<path style=" stroke:none;fill-rule:nonzero;fill:rgb(87.843137%,87.843137%,87.843137%);fill-opacity:1;" d="M 144.308594 660.648438 L 60.667969 621.75 C 55.957031 619.5625 55.957031 615.996094 60.667969 613.808594 L 547.160156 387.523438 C 552.523438 385.335938 558.859375 385.335938 564.222656 387.523438 L 647.878906 426.421875 C 652.59375 428.609375 652.59375 432.175781 647.878906 434.363281 L 161.386719 660.648438 C 156.019531 662.835938 149.675781 662.835938 144.308594 660.648438 Z M 144.308594 660.648438 "/>
<path style=" stroke:none;fill-rule:nonzero;fill:rgb(48.235294%,38.039216%,100%);fill-opacity:1;" d="M 444.941406 591.308594 L 516.847656 557.816406 C 524.253906 554.367188 527.960938 549.859375 527.960938 545.332031 C 527.960938 540.804688 527.960938 537.273438 527.960938 537.273438 L 453.378906 503.386719 C 449.152344 501.183594 446.488281 497.484375 446.214844 493.4375 L 446.214844 421.996094 L 320.675781 480.457031 L 320.675781 551.867188 C 320.972656 555.910156 323.628906 559.601562 327.839844 561.8125 L 391.308594 591.257812 C 406.085938 598.207031 430.121094 598.207031 444.941406 591.308594 Z M 444.941406 591.308594 "/>
<use xlink:href="#surface5" mask="url(#mask0)"/>
<use xlink:href="#surface8" mask="url(#mask1)"/>
<path style=" stroke:none;fill-rule:nonzero;fill:rgb(48.235294%,38.039216%,100%);fill-opacity:1;" d="M 329.28125 547.851562 C 329.566406 551.898438 332.226562 555.589844 336.441406 557.800781 L 391.226562 583.234375 C 406.042969 590.117188 430.082031 590.132812 444.917969 583.234375 L 516.949219 549.742188 C 531.789062 542.847656 531.789062 531.671875 516.949219 524.773438 L 462.125 499.339844 C 457.917969 497.125 455.269531 493.433594 454.984375 489.390625 L 454.984375 433.582031 L 329.445312 492.042969 Z M 329.28125 547.851562 "/>
<use xlink:href="#surface11" mask="url(#mask2)"/>
<use xlink:href="#surface14" mask="url(#mask3)"/>
<path style=" stroke:none;fill-rule:nonzero;fill:rgb(48.235294%,38.039216%,100%);fill-opacity:1;" d="M 527.980469 537.292969 L 527.980469 545.347656 C 527.980469 549.875 524.253906 554.367188 516.867188 557.835938 L 444.835938 591.308594 C 436.953125 594.699219 428.148438 596.460938 419.214844 596.433594 L 419.214844 588.40625 C 428.148438 588.433594 436.953125 586.675781 444.835938 583.285156 L 516.867188 549.777344 C 524.253906 546.34375 527.980469 541.816406 527.980469 537.292969 Z M 527.980469 537.292969 "/>
<use xlink:href="#surface17" mask="url(#mask4)"/>
<path style=" stroke:none;fill-rule:nonzero;fill:rgb(48.235294%,38.039216%,100%);fill-opacity:1;" d="M 127.597656 617.207031 C 133.101562 619.347656 139.539062 619.257812 144.945312 616.957031 L 630.632812 391.054688 C 635.914062 388.28125 639.238281 383.644531 639.585938 378.570312 L 639.585938 62.027344 C 639.398438 57.089844 636.292969 52.523438 631.230469 49.738281 C 625.730469 47.597656 619.292969 47.695312 613.902344 50.003906 L 128.214844 275.972656 C 122.949219 278.765625 119.660156 283.417969 119.363281 288.492188 L 119.363281 604.988281 C 119.550781 609.882812 122.605469 614.414062 127.597656 617.207031 Z M 127.597656 617.207031 "/>
<path style=" stroke:none;fill-rule:nonzero;fill:rgb(48.235294%,38.039216%,100%);fill-opacity:1;" d="M 145.007812 616.941406 L 630.695312 391.039062 C 635.984375 388.269531 639.3125 383.628906 639.648438 378.554688 L 639.648438 62.027344 C 639.648438 57.433594 635.632812 55.558594 630.695312 57.863281 L 145.007812 283.765625 C 139.722656 286.539062 136.398438 291.179688 136.054688 296.25 L 136.054688 612.78125 C 136.054688 617.371094 140.066406 619.246094 145.007812 616.941406 Z M 145.007812 616.941406 "/>
<use xlink:href="#surface20" mask="url(#mask5)"/>
<path style=" stroke:none;fill-rule:nonzero;fill:rgb(48.235294%,38.039216%,100%);fill-opacity:1;" d="M 143.691406 625.164062 C 138.535156 626.976562 132.652344 626.882812 127.597656 624.898438 C 122.59375 622.101562 119.539062 617.554688 119.363281 612.648438 L 119.363281 583.832031 L 136.136719 591.65625 L 136.136719 620.472656 C 136.035156 624.667969 139.347656 626.574219 143.691406 625.164062 Z M 143.691406 625.164062 "/>
<use xlink:href="#surface23" mask="url(#mask6)"/>
<path style=" stroke:none;fill-rule:nonzero;fill:rgb(48.235294%,38.039216%,100%);fill-opacity:1;" d="M 136.035156 591.65625 L 136.035156 620.472656 C 136.035156 625.066406 140.148438 626.921875 144.984375 624.636719 L 630.675781 398.730469 C 635.933594 395.96875 639.253906 391.363281 639.625 386.3125 L 639.625 357.367188 Z M 136.035156 591.65625 "/>
<use xlink:href="#surface26" mask="url(#mask7)"/>
<path style=" stroke:none;fill-rule:nonzero;fill:rgb(48.235294%,38.039216%,100%);fill-opacity:1;" d="M 152.828125 555.429688 L 152.828125 300.746094 C 153.019531 297.699219 155.011719 294.914062 158.179688 293.25 L 617.398438 79.585938 C 620.363281 78.207031 622.769531 79.320312 622.769531 82.070312 L 622.769531 336.890625 C 622.570312 339.933594 620.574219 342.71875 617.398438 344.382812 L 158.199219 558 C 155.234375 559.375 152.828125 558.25 152.828125 555.429688 Z M 152.828125 555.429688 "/>
<path style=" stroke:none;fill-rule:nonzero;fill:rgb(14.901961%,19.607843%,21.960784%);fill-opacity:1;" d="M 152.828125 555.429688 L 152.828125 300.746094 C 153.019531 297.699219 155.011719 294.914062 158.179688 293.25 L 617.398438 79.585938 C 620.363281 78.207031 622.769531 79.320312 622.769531 82.070312 L 622.769531 336.890625 C 622.570312 339.933594 620.574219 342.71875 617.398438 344.382812 L 158.199219 558 C 155.234375 559.375 152.828125 558.25 152.828125 555.429688 Z M 152.828125 555.429688 "/>
<path style=" stroke:none;fill-rule:nonzero;fill:rgb(48.235294%,38.039216%,100%);fill-opacity:1;" d="M 387.832031 483.6875 C 382.871094 486.285156 379.753906 490.636719 379.433594 495.394531 C 379.433594 499.703125 383.199219 501.460938 387.832031 499.308594 C 392.792969 496.707031 395.914062 492.347656 396.226562 487.585938 C 396.226562 483.273438 392.460938 481.53125 387.832031 483.6875 Z M 387.832031 483.6875 "/>
<use xlink:href="#surface29" mask="url(#mask8)"/>
<use xlink:href="#surface32" mask="url(#mask9)"/>
<path style=" stroke:none;fill-rule:nonzero;fill:rgb(48.235294%,38.039216%,100%);fill-opacity:1;" d="M 665.742188 99.796875 C 664.273438 99.199219 662.515625 99.308594 661.171875 100.078125 L 202.898438 313.363281 C 199.230469 315.316406 196.9375 318.5625 196.722656 322.101562 L 196.722656 575.226562 C 196.59375 576.964844 197.601562 578.632812 199.378906 579.621094 C 200.386719 580.066406 205.78125 582.589844 207.382812 583.285156 C 208.539062 583.757812 209.925781 583.695312 211.007812 583.117188 L 669.179688 369.832031 C 672.847656 367.878906 675.140625 364.632812 675.351562 361.097656 L 675.351562 106.660156 C 675.539062 105.347656 674.792969 104.0625 673.417969 103.34375 C 672.390625 102.796875 666.894531 100.34375 665.742188 99.796875 Z M 665.742188 99.796875 "/>
<path style=" stroke:none;fill-rule:nonzero;fill:rgb(98.039216%,98.039216%,98.039216%);fill-opacity:1;" d="M 210.902344 316.941406 L 669.199219 103.742188 C 672.65625 102.082031 675.375 103.441406 675.375 106.660156 L 675.375 361.097656 C 675.160156 364.632812 672.867188 367.878906 669.199219 369.832031 L 210.902344 583.117188 C 207.445312 584.777344 204.730469 582.105469 204.730469 578.890625 L 204.730469 325.679688 C 204.949219 322.144531 207.242188 318.902344 210.902344 316.941406 Z M 210.902344 316.941406 "/>
<path style=" stroke:none;fill-rule:nonzero;fill:rgb(87.843137%,87.843137%,87.843137%);fill-opacity:1;" d="M 672 104.703125 C 673.214844 104.703125 673.398438 105.929688 673.398438 106.660156 L 673.398438 361.097656 C 673.171875 364.058594 671.230469 366.761719 668.148438 368.390625 L 209.914062 581.675781 C 209.609375 581.835938 209.253906 581.929688 208.886719 581.941406 C 207.734375 581.941406 206.828125 580.515625 206.828125 578.890625 L 206.828125 325.679688 C 207.03125 322.71875 208.933594 320.003906 211.972656 318.335938 L 670.230469 105.167969 C 670.757812 104.890625 671.367188 104.730469 672 104.703125 M 672 103.042969 C 671.007812 103.078125 670.042969 103.320312 669.199219 103.742188 L 210.902344 316.941406 C 207.242188 318.902344 204.949219 322.144531 204.730469 325.679688 L 204.730469 578.890625 C 204.730469 581.445312 206.5 583.597656 208.847656 583.597656 C 209.574219 583.589844 210.28125 583.421875 210.902344 583.117188 L 669.179688 369.832031 C 672.847656 367.878906 675.140625 364.632812 675.351562 361.097656 L 675.351562 106.660156 C 675.351562 104.371094 673.953125 103.042969 671.894531 103.042969 Z M 672 103.042969 "/>
<path style=" stroke:none;fill-rule:nonzero;fill:rgb(94.117647%,94.117647%,94.117647%);fill-opacity:1;" d="M 199.253906 579.621094 C 199.933594 579.902344 204.8125 582.140625 206.953125 583.136719 C 205.394531 582.09375 204.539062 580.519531 204.648438 578.890625 L 204.648438 342.210938 L 196.621094 338.429688 L 196.621094 575.226562 C 196.484375 576.960938 197.484375 578.628906 199.253906 579.621094 Z M 199.253906 579.621094 "/>
<path style=" stroke:none;fill-rule:nonzero;fill:rgb(48.235294%,38.039216%,100%);fill-opacity:1;" d="M 675.457031 106.609375 C 675.457031 103.425781 672.636719 102.132812 669.28125 103.742188 L 210.902344 316.941406 C 207.242188 318.902344 204.949219 322.144531 204.730469 325.679688 L 204.730469 342.261719 L 675.457031 123.1875 Z M 675.457031 106.609375 "/>
<use xlink:href="#surface35" mask="url(#mask10)"/>
<use xlink:href="#surface38" mask="url(#mask11)"/>
<path style=" stroke:none;fill-rule:nonzero;fill:rgb(48.235294%,38.039216%,100%);fill-opacity:1;" d="M 578.8125 297.476562 L 304.335938 425.144531 C 301.628906 426.558594 299.925781 428.929688 299.746094 431.527344 L 299.746094 494.929688 C 299.925781 497.527344 301.628906 499.898438 304.335938 501.3125 L 312.34375 505.027344 C 315.226562 506.203125 318.636719 506.203125 321.519531 505.027344 L 595.957031 377.359375 C 598.664062 375.9375 600.367188 373.5625 600.546875 370.960938 L 600.546875 307.542969 C 600.367188 304.945312 598.664062 302.574219 595.957031 301.160156 L 587.929688 297.445312 C 585.054688 296.289062 581.671875 296.300781 578.8125 297.476562 Z M 578.8125 297.476562 "/>
<use xlink:href="#surface41" mask="url(#mask12)"/>
<path style=" stroke:none;fill-rule:nonzero;fill:rgb(14.901961%,19.607843%,21.960784%);fill-opacity:1;" d="M 320.738281 505.34375 C 318.019531 506.203125 314.976562 506.097656 312.363281 505.042969 L 304.335938 501.328125 C 301.632812 499.910156 299.929688 497.539062 299.746094 494.945312 L 299.746094 431.542969 C 299.808594 430.25 300.277344 428.988281 301.105469 427.878906 L 318.289062 435.871094 C 317.457031 436.96875 316.988281 438.21875 316.933594 439.503906 L 316.933594 502.921875 C 316.933594 505.027344 318.578125 506.003906 320.738281 505.34375 Z M 320.738281 505.34375 "/>
<path style=" stroke:none;fill-rule:nonzero;fill:rgb(48.235294%,38.039216%,100%);fill-opacity:1;" d="M 321.519531 433.121094 L 595.996094 305.453125 C 598.527344 304.277344 600.585938 305.222656 600.585938 307.574219 L 600.585938 370.992188 C 600.410156 373.59375 598.703125 375.972656 595.996094 377.394531 L 321.5625 505.058594 C 319.03125 506.238281 316.972656 505.277344 316.972656 502.921875 L 316.972656 439.519531 C 317.140625 436.925781 318.828125 434.550781 321.519531 433.121094 Z M 321.519531 433.121094 "/>
<path style=" stroke:none;fill-rule:nonzero;fill:rgb(27.058824%,35.294118%,39.215686%);fill-opacity:1;" d="M 506.042969 331.335938 L 304.359375 425.160156 C 303.019531 425.835938 301.917969 426.769531 301.148438 427.878906 L 318.332031 435.871094 C 319.097656 434.746094 320.207031 433.796875 321.5625 433.121094 L 523.246094 339.308594 Z M 506.042969 331.335938 "/>
<path style=" stroke:none;fill-rule:nonzero;fill:rgb(21.568627%,27.843137%,30.980392%);fill-opacity:1;" d="M 523.207031 339.308594 L 321.519531 433.121094 C 318.8125 434.542969 317.109375 436.917969 316.933594 439.519531 L 316.933594 502.90625 C 316.933594 505.257812 318.988281 506.21875 321.519531 505.042969 L 523.207031 411.234375 Z M 523.207031 339.308594 "/>
<path style=" stroke:none;fill-rule:nonzero;fill:rgb(48.235294%,38.039216%,100%);fill-opacity:1;" d="M 368.03125 425.394531 L 472.105469 376.996094 C 476.40625 374.988281 479.90625 376.414062 479.90625 380.179688 C 479.515625 384.464844 476.609375 388.347656 472.085938 390.625 L 368.03125 439.039062 C 363.730469 441.042969 360.210938 439.617188 360.210938 435.855469 C 360.605469 431.5625 363.507812 427.679688 368.03125 425.394531 Z M 368.03125 425.394531 "/>
<path style=" stroke:none;fill-rule:nonzero;fill:rgb(98.039216%,98.039216%,98.039216%);fill-opacity:1;" d="M 389.351562 441.425781 C 389.390625 441.390625 389.449219 441.371094 389.507812 441.371094 C 389.566406 441.371094 389.621094 441.390625 389.660156 441.425781 C 389.753906 441.539062 389.796875 441.671875 389.785156 441.808594 L 389.785156 451.242188 C 389.785156 452.152344 389.691406 453.0625 389.496094 453.960938 C 389.328125 454.78125 389.035156 455.582031 388.632812 456.347656 C 388.265625 457.050781 387.78125 457.707031 387.191406 458.304688 C 386.613281 458.859375 385.917969 459.324219 385.132812 459.679688 C 384.523438 460.003906 383.808594 460.175781 383.074219 460.179688 C 382.511719 460.140625 381.992188 459.917969 381.636719 459.5625 C 381.183594 459.078125 380.886719 458.507812 380.769531 457.90625 C 380.574219 457.105469 380.484375 456.285156 380.503906 455.46875 L 380.503906 446.019531 C 380.503906 445.851562 380.546875 445.6875 380.628906 445.539062 C 380.675781 445.402344 380.785156 445.285156 380.9375 445.207031 L 382.230469 444.59375 C 382.320312 444.527344 382.453125 444.527344 382.542969 444.59375 C 382.636719 444.703125 382.679688 444.839844 382.664062 444.972656 L 382.664062 454.292969 C 382.648438 454.804688 382.710938 455.316406 382.851562 455.816406 C 382.90625 456.136719 383.078125 456.4375 383.34375 456.679688 C 383.53125 456.859375 383.8125 456.957031 384.105469 456.945312 C 384.457031 456.925781 384.796875 456.835938 385.09375 456.679688 C 385.460938 456.503906 385.792969 456.285156 386.082031 456.03125 C 386.402344 455.734375 386.664062 455.398438 386.863281 455.039062 C 387.09375 454.613281 387.265625 454.167969 387.378906 453.710938 C 387.496094 453.164062 387.550781 452.609375 387.542969 452.054688 L 387.542969 442.71875 C 387.546875 442.550781 387.597656 442.390625 387.6875 442.238281 C 387.738281 442.101562 387.847656 441.984375 387.996094 441.90625 Z M 389.351562 441.425781 "/>
<path style=" stroke:none;fill-rule:nonzero;fill:rgb(98.039216%,98.039216%,98.039216%);fill-opacity:1;" d="M 397.421875 450.347656 C 397.429688 450.222656 397.394531 450.101562 397.316406 449.996094 C 397.21875 449.910156 397.074219 449.867188 396.925781 449.882812 C 396.671875 449.855469 396.417969 449.855469 396.164062 449.882812 L 394.972656 450.0625 C 394.585938 450.140625 394.183594 450.140625 393.796875 450.0625 C 393.496094 449.984375 393.234375 449.828125 393.058594 449.617188 C 392.855469 449.347656 392.722656 449.046875 392.667969 448.738281 C 392.464844 447.851562 392.464844 446.941406 392.667969 446.050781 C 392.820312 445.542969 393.042969 445.046875 393.324219 444.574219 C 393.605469 444.105469 393.953125 443.660156 394.355469 443.25 C 394.742188 442.859375 395.21875 442.527344 395.753906 442.273438 C 396.1875 442.058594 396.671875 441.921875 397.171875 441.875 C 397.539062 441.84375 397.90625 441.90625 398.222656 442.054688 C 398.523438 442.203125 398.761719 442.425781 398.902344 442.6875 C 399.066406 442.996094 399.160156 443.328125 399.167969 443.664062 C 399.191406 443.832031 399.148438 444 399.046875 444.144531 C 398.996094 444.28125 398.886719 444.398438 398.738281 444.476562 L 397.503906 445.058594 C 397.386719 445.109375 397.246094 445.109375 397.132812 445.058594 L 396.863281 444.890625 C 396.757812 444.824219 396.628906 444.78125 396.496094 444.773438 C 396.230469 444.800781 395.976562 444.871094 395.753906 444.992188 C 395.429688 445.148438 395.144531 445.351562 394.910156 445.585938 C 394.660156 445.847656 394.53125 446.171875 394.539062 446.5 C 394.511719 446.625 394.511719 446.753906 394.539062 446.878906 C 394.617188 446.976562 394.746094 447.035156 394.890625 447.046875 C 395.113281 447.078125 395.34375 447.078125 395.566406 447.046875 L 396.71875 446.878906 C 397.6875 446.730469 398.347656 446.878906 398.777344 447.3125 C 399.234375 447.925781 399.441406 448.636719 399.375 449.351562 C 399.371094 449.84375 399.289062 450.335938 399.128906 450.808594 C 398.964844 451.328125 398.730469 451.828125 398.429688 452.300781 C 398.125 452.792969 397.746094 453.25 397.296875 453.660156 C 396.871094 454.066406 396.363281 454.40625 395.792969 454.671875 C 395.34375 454.90625 394.828125 455.046875 394.292969 455.085938 C 393.90625 455.097656 393.523438 455.011719 393.203125 454.839844 C 392.882812 454.664062 392.640625 454.414062 392.5 454.125 C 392.335938 453.8125 392.25 453.472656 392.253906 453.132812 C 392.234375 452.960938 392.277344 452.785156 392.378906 452.632812 C 392.429688 452.496094 392.539062 452.378906 392.6875 452.300781 L 393.921875 451.722656 C 394.085938 451.722656 394.210938 451.640625 394.292969 451.722656 L 394.558594 451.953125 C 394.671875 452.054688 394.824219 452.113281 394.992188 452.121094 C 395.28125 452.121094 395.5625 452.046875 395.792969 451.90625 C 396.167969 451.734375 396.5 451.515625 396.78125 451.257812 C 396.921875 451.121094 397.039062 450.972656 397.132812 450.808594 C 397.277344 450.679688 397.378906 450.519531 397.421875 450.347656 Z M 397.421875 450.347656 "/>
<path style=" stroke:none;fill-rule:nonzero;fill:rgb(98.039216%,98.039216%,98.039216%);fill-opacity:1;" d="M 401.617188 445.851562 C 401.613281 444.992188 401.703125 444.132812 401.886719 443.28125 C 402.058594 442.484375 402.328125 441.703125 402.6875 440.945312 C 402.992188 440.265625 403.40625 439.625 403.921875 439.039062 C 404.355469 438.535156 404.917969 438.109375 405.570312 437.792969 C 406.046875 437.535156 406.628906 437.4375 407.195312 437.511719 C 407.699219 437.605469 408.140625 437.847656 408.429688 438.191406 C 408.816406 438.644531 409.089844 439.148438 409.234375 439.683594 C 409.429688 440.382812 409.527344 441.09375 409.519531 441.808594 L 409.519531 442.835938 C 409.527344 443.007812 409.476562 443.179688 409.378906 443.332031 C 409.328125 443.46875 409.21875 443.585938 409.070312 443.664062 L 403.71875 446.167969 C 403.707031 446.460938 403.753906 446.75 403.863281 447.03125 C 403.941406 447.21875 404.085938 447.382812 404.273438 447.511719 C 404.441406 447.617188 404.65625 447.671875 404.871094 447.660156 C 405.117188 447.636719 405.359375 447.570312 405.570312 447.460938 C 405.882812 447.324219 406.160156 447.144531 406.394531 446.929688 C 406.605469 446.738281 406.785156 446.527344 406.929688 446.300781 C 407.015625 446.167969 407.113281 446.042969 407.214844 445.917969 C 407.304688 445.835938 407.410156 445.761719 407.523438 445.703125 L 408.800781 445.105469 C 408.890625 445.046875 409.019531 445.046875 409.109375 445.105469 C 409.21875 445.210938 409.265625 445.351562 409.234375 445.488281 C 409.210938 445.8125 409.128906 446.128906 408.988281 446.433594 C 408.808594 446.894531 408.574219 447.335938 408.285156 447.757812 C 407.964844 448.246094 407.578125 448.699219 407.132812 449.117188 C 406.691406 449.546875 406.164062 449.910156 405.570312 450.195312 C 405.082031 450.453125 404.5 450.566406 403.921875 450.511719 C 403.417969 450.414062 402.976562 450.164062 402.6875 449.816406 C 402.285156 449.3125 402.011719 448.75 401.886719 448.15625 C 401.699219 447.398438 401.609375 446.625 401.617188 445.851562 Z M 405.570312 440.5625 C 405.253906 440.699219 404.980469 440.894531 404.765625 441.128906 C 404.539062 441.359375 404.351562 441.617188 404.210938 441.890625 C 404.066406 442.164062 403.949219 442.445312 403.863281 442.734375 C 403.789062 442.996094 403.742188 443.265625 403.71875 443.53125 L 407.339844 441.875 C 407.320312 441.644531 407.277344 441.417969 407.214844 441.195312 C 407.183594 440.992188 407.085938 440.804688 406.929688 440.648438 C 406.804688 440.5 406.609375 440.40625 406.394531 440.382812 C 406.101562 440.363281 405.808594 440.425781 405.570312 440.5625 Z M 405.570312 440.5625 "/>
<path style=" stroke:none;fill-rule:nonzero;fill:rgb(98.039216%,98.039216%,98.039216%);fill-opacity:1;" d="M 415.984375 435.9375 C 415.359375 436.226562 414.867188 436.667969 414.585938 437.199219 C 414.265625 437.898438 414.117188 438.640625 414.152344 439.386719 L 414.152344 445.371094 C 414.15625 445.542969 414.113281 445.710938 414.027344 445.871094 C 413.976562 446.007812 413.867188 446.125 413.71875 446.199219 L 412.503906 446.765625 C 412.464844 446.800781 412.410156 446.820312 412.351562 446.820312 C 412.292969 446.820312 412.234375 446.800781 412.195312 446.765625 C 412.105469 446.652344 412.0625 446.519531 412.074219 446.382812 L 412.074219 435.65625 C 412.074219 435.484375 412.117188 435.316406 412.195312 435.160156 C 412.253906 435.023438 412.363281 434.910156 412.503906 434.828125 L 413.71875 434.261719 C 413.808594 434.199219 413.941406 434.199219 414.027344 434.261719 C 414.125 434.367188 414.167969 434.5 414.152344 434.628906 L 414.152344 435.160156 C 414.398438 434.714844 414.699219 434.292969 415.058594 433.898438 C 415.382812 433.535156 415.804688 433.234375 416.292969 433.019531 L 417.03125 432.671875 C 417.113281 432.609375 417.242188 432.609375 417.320312 432.671875 C 417.421875 432.78125 417.472656 432.917969 417.464844 433.054688 L 417.464844 434.5625 C 417.460938 434.734375 417.414062 434.902344 417.320312 435.058594 C 417.269531 435.191406 417.167969 435.304688 417.03125 435.390625 Z M 415.984375 435.9375 "/>
<path style=" stroke:none;fill-rule:nonzero;fill:rgb(98.039216%,98.039216%,98.039216%);fill-opacity:1;" d="M 431.335938 435.140625 C 431.375 435.105469 431.429688 435.085938 431.492188 435.085938 C 431.550781 435.085938 431.605469 435.105469 431.644531 435.140625 C 431.738281 435.253906 431.78125 435.390625 431.769531 435.523438 L 431.769531 437.179688 C 431.765625 437.351562 431.726562 437.519531 431.644531 437.679688 C 431.574219 437.800781 431.46875 437.910156 431.335938 437.992188 L 424.296875 441.308594 C 424.210938 441.375 424.074219 441.375 423.988281 441.308594 C 423.898438 441.203125 423.851562 441.074219 423.867188 440.945312 L 423.867188 426.023438 C 423.867188 425.851562 423.910156 425.683594 423.988281 425.527344 C 424.046875 425.394531 424.15625 425.285156 424.296875 425.210938 L 425.59375 424.597656 C 425.679688 424.53125 425.816406 424.53125 425.902344 424.597656 C 425.996094 424.703125 426.039062 424.832031 426.027344 424.960938 L 426.027344 437.578125 Z M 431.335938 435.140625 "/>
<path style=" stroke:none;fill-rule:nonzero;fill:rgb(98.039216%,98.039216%,98.039216%);fill-opacity:1;" d="M 437.652344 422.871094 C 438.117188 422.613281 438.675781 422.492188 439.238281 422.523438 C 439.722656 422.554688 440.171875 422.734375 440.496094 423.023438 C 440.878906 423.378906 441.160156 423.796875 441.316406 424.25 C 441.539062 424.835938 441.660156 425.445312 441.6875 426.054688 C 441.6875 426.1875 441.6875 426.371094 441.6875 426.585938 L 441.6875 427.863281 C 441.6875 428.0625 441.6875 428.246094 441.6875 428.394531 C 441.648438 429.113281 441.523438 429.832031 441.316406 430.53125 C 441.128906 431.214844 440.851562 431.882812 440.496094 432.523438 C 440.167969 433.117188 439.746094 433.675781 439.238281 434.179688 C 438.804688 434.640625 438.265625 435.027344 437.652344 435.324219 C 437.179688 435.574219 436.617188 435.695312 436.050781 435.671875 C 435.574219 435.640625 435.132812 435.460938 434.8125 435.175781 C 434.417969 434.832031 434.136719 434.417969 433.992188 433.964844 C 433.769531 433.378906 433.648438 432.769531 433.621094 432.15625 C 433.621094 432.023438 433.621094 431.859375 433.621094 431.644531 L 433.621094 430.367188 C 433.621094 430.152344 433.621094 429.96875 433.621094 429.835938 C 433.644531 429.109375 433.761719 428.386719 433.96875 427.679688 C 434.171875 426.992188 434.453125 426.320312 434.8125 425.675781 C 435.140625 425.085938 435.554688 424.527344 436.050781 424.015625 C 436.484375 423.554688 437.03125 423.164062 437.652344 422.871094 Z M 439.589844 427.152344 C 439.585938 426.785156 439.511719 426.417969 439.363281 426.074219 C 439.285156 425.863281 439.128906 425.675781 438.910156 425.542969 C 438.734375 425.449219 438.523438 425.40625 438.3125 425.425781 C 438.078125 425.460938 437.855469 425.535156 437.652344 425.640625 C 437.414062 425.75 437.191406 425.882812 436.996094 426.039062 C 436.757812 426.238281 436.558594 426.460938 436.398438 426.703125 C 436.191406 427.003906 436.039062 427.328125 435.945312 427.664062 C 435.8125 428.089844 435.726562 428.519531 435.699219 428.957031 C 435.699219 429.089844 435.699219 429.238281 435.699219 429.421875 L 435.699219 430.597656 C 435.699219 430.78125 435.699219 430.929688 435.699219 431.03125 C 435.71875 431.398438 435.800781 431.761719 435.945312 432.109375 C 436.019531 432.320312 436.179688 432.507812 436.398438 432.636719 C 436.570312 432.738281 436.789062 432.773438 436.996094 432.738281 C 437.230469 432.707031 437.453125 432.636719 437.652344 432.539062 C 437.894531 432.429688 438.113281 432.292969 438.3125 432.140625 C 438.542969 431.9375 438.742188 431.714844 438.910156 431.476562 C 439.109375 431.171875 439.257812 430.851562 439.363281 430.515625 C 439.496094 430.09375 439.574219 429.660156 439.589844 429.222656 C 439.601562 429.070312 439.601562 428.914062 439.589844 428.757812 L 439.589844 427.597656 C 439.601562 427.449219 439.601562 427.300781 439.589844 427.152344 Z M 439.589844 427.152344 "/>
<path style=" stroke:none;fill-rule:nonzero;fill:rgb(98.039216%,98.039216%,98.039216%);fill-opacity:1;" d="M 447.984375 432.570312 C 448.25 432.441406 448.484375 432.28125 448.683594 432.089844 C 448.933594 431.859375 449.148438 431.601562 449.324219 431.328125 C 449.527344 430.996094 449.6875 430.644531 449.796875 430.285156 C 449.921875 429.878906 449.984375 429.460938 449.980469 429.039062 L 449.980469 428.195312 C 449.980469 428.359375 449.777344 428.558594 449.632812 428.792969 C 449.492188 429.035156 449.324219 429.265625 449.136719 429.488281 C 448.921875 429.722656 448.6875 429.941406 448.4375 430.152344 C 448.179688 430.371094 447.882812 430.554688 447.554688 430.699219 C 447.125 430.933594 446.597656 431.015625 446.09375 430.929688 C 445.632812 430.816406 445.242188 430.574219 444.980469 430.25 C 444.644531 429.824219 444.402344 429.351562 444.261719 428.859375 C 444.085938 428.230469 443.988281 427.59375 443.972656 426.953125 C 443.972656 426.734375 443.972656 426.472656 443.972656 426.15625 C 443.972656 425.839844 443.972656 425.574219 443.972656 425.34375 C 444 424.613281 444.09375 423.886719 444.261719 423.171875 C 444.429688 422.464844 444.671875 421.773438 444.980469 421.097656 C 445.273438 420.515625 445.644531 419.957031 446.09375 419.441406 C 446.472656 418.984375 446.96875 418.597656 447.554688 418.3125 C 447.828125 418.179688 448.125 418.085938 448.4375 418.03125 C 448.667969 417.996094 448.90625 417.996094 449.136719 418.03125 C 449.320312 418.074219 449.488281 418.148438 449.632812 418.246094 C 449.761719 418.328125 449.882812 418.421875 449.980469 418.527344 L 449.980469 418 C 449.984375 417.828125 450.023438 417.660156 450.105469 417.5 C 450.164062 417.371094 450.269531 417.261719 450.414062 417.1875 L 451.628906 416.605469 C 451.714844 416.539062 451.851562 416.539062 451.9375 416.605469 C 452.035156 416.714844 452.085938 416.851562 452.082031 416.988281 L 452.082031 427.765625 C 452.136719 429.378906 451.765625 430.984375 450.988281 432.472656 C 450.382812 433.644531 449.332031 434.628906 447.984375 435.292969 C 447.527344 435.519531 447.003906 435.652344 446.460938 435.671875 C 446.035156 435.695312 445.609375 435.605469 445.25 435.425781 C 444.902344 435.214844 444.617188 434.941406 444.425781 434.628906 C 444.222656 434.25 444.113281 433.84375 444.097656 433.433594 C 444.078125 433.261719 444.121094 433.089844 444.21875 432.9375 C 444.269531 432.800781 444.378906 432.683594 444.527344 432.605469 L 445.617188 432.109375 C 445.667969 432.0625 445.738281 432.039062 445.8125 432.039062 C 445.886719 432.039062 445.960938 432.0625 446.007812 432.109375 C 446.109375 432.195312 446.199219 432.289062 446.277344 432.390625 C 446.402344 432.566406 446.609375 432.699219 446.855469 432.753906 C 447.101562 432.902344 447.472656 432.738281 447.984375 432.570312 Z M 446.050781 424.53125 C 446.050781 424.972656 446.050781 425.402344 446.050781 425.824219 C 445.992188 426.484375 446.226562 427.144531 446.710938 427.679688 C 447.085938 427.945312 447.648438 427.945312 448.027344 427.679688 C 448.625 427.367188 449.089844 426.917969 449.363281 426.386719 C 449.738281 425.695312 449.949219 424.953125 449.980469 424.199219 C 449.980469 423.949219 449.980469 423.652344 449.980469 423.304688 C 449.980469 422.957031 449.980469 422.65625 449.980469 422.441406 C 450.023438 421.847656 449.804688 421.261719 449.363281 420.785156 C 448.984375 420.503906 448.40625 420.503906 448.027344 420.785156 C 447.441406 421.09375 446.984375 421.539062 446.710938 422.058594 C 446.285156 422.839844 446.0625 423.679688 446.050781 424.53125 Z M 446.050781 424.53125 "/>
<path style=" stroke:none;fill-rule:nonzero;fill:rgb(98.039216%,98.039216%,98.039216%);fill-opacity:1;" d="M 456.875 409.808594 C 456.960938 409.753906 457.082031 409.753906 457.164062 409.808594 C 457.273438 409.914062 457.324219 410.050781 457.308594 410.1875 L 457.308594 411.996094 C 457.308594 412.167969 457.261719 412.339844 457.164062 412.492188 C 457.105469 412.617188 457.007812 412.726562 456.875 412.808594 L 455.496094 413.457031 C 455.457031 413.492188 455.402344 413.511719 455.34375 413.511719 C 455.285156 413.511719 455.226562 413.492188 455.1875 413.457031 C 455.078125 413.355469 455.027344 413.222656 455.042969 413.089844 L 455.042969 411.285156 C 455.042969 411.109375 455.09375 410.941406 455.1875 410.785156 C 455.246094 410.65625 455.355469 410.546875 455.496094 410.472656 Z M 457.226562 425.375 C 457.226562 425.542969 457.183594 425.707031 457.101562 425.855469 C 457.035156 425.988281 456.929688 426.101562 456.792969 426.1875 L 455.558594 426.753906 C 455.523438 426.789062 455.472656 426.808594 455.414062 426.808594 C 455.359375 426.808594 455.304688 426.789062 455.269531 426.753906 C 455.164062 426.644531 455.113281 426.507812 455.125 426.371094 L 455.125 415.644531 C 455.125 415.472656 455.175781 415.300781 455.269531 415.148438 C 455.328125 415.015625 455.429688 414.902344 455.558594 414.816406 L 456.792969 414.25 C 456.878906 414.1875 457.015625 414.1875 457.101562 414.25 C 457.195312 414.359375 457.238281 414.488281 457.226562 414.617188 Z M 457.226562 425.375 "/>
<path style=" stroke:none;fill-rule:nonzero;fill:rgb(98.039216%,98.039216%,98.039216%);fill-opacity:1;" d="M 468.050781 420.320312 C 468.050781 420.492188 468.007812 420.660156 467.925781 420.816406 C 467.871094 420.945312 467.761719 421.058594 467.617188 421.132812 L 466.382812 421.710938 C 466.304688 421.777344 466.175781 421.777344 466.097656 421.710938 C 465.988281 421.605469 465.9375 421.46875 465.953125 421.332031 L 465.953125 415.496094 C 466.015625 414.804688 465.859375 414.117188 465.5 413.488281 C 465.210938 413.074219 464.757812 413.007812 464.121094 413.304688 C 463.484375 413.652344 463.011719 414.160156 462.78125 414.75 C 462.4375 415.53125 462.273438 416.355469 462.289062 417.1875 L 462.289062 423.039062 C 462.289062 423.210938 462.246094 423.378906 462.164062 423.535156 C 462.113281 423.671875 462.003906 423.789062 461.855469 423.867188 L 460.640625 424.429688 C 460.601562 424.46875 460.546875 424.488281 460.488281 424.488281 C 460.429688 424.488281 460.371094 424.46875 460.332031 424.429688 C 460.238281 424.328125 460.195312 424.195312 460.210938 424.066406 L 460.210938 413.339844 C 460.207031 413.167969 460.25 413 460.332031 412.84375 C 460.382812 412.707031 460.492188 412.585938 460.640625 412.511719 L 461.855469 411.945312 C 461.894531 411.910156 461.953125 411.890625 462.011719 411.890625 C 462.070312 411.890625 462.125 411.910156 462.164062 411.945312 C 462.257812 412.058594 462.300781 412.195312 462.289062 412.328125 L 462.289062 412.84375 C 462.558594 412.335938 462.890625 411.855469 463.277344 411.398438 C 463.613281 410.980469 464.074219 410.632812 464.613281 410.386719 C 465.082031 410.113281 465.664062 409.992188 466.238281 410.054688 C 466.699219 410.148438 467.089844 410.398438 467.308594 410.738281 C 467.609375 411.183594 467.804688 411.675781 467.886719 412.179688 C 467.996094 412.839844 468.050781 413.503906 468.050781 414.167969 Z M 468.050781 420.320312 "/>
<path style=" stroke:none;fill-rule:nonzero;fill:rgb(27.058824%,35.294118%,39.215686%);fill-opacity:1;" d="M 571.855469 372.054688 L 551.875 381.339844 L 554.980469 358.757812 C 552.574219 357.730469 551.050781 355.226562 551.050781 351.628906 C 551.050781 345.210938 555.90625 337.769531 561.875 335.046875 C 567.84375 332.328125 572.679688 335.214844 572.679688 341.679688 C 572.554688 345.484375 571.207031 349.199219 568.769531 352.457031 Z M 571.855469 372.054688 "/>
<path style=" stroke:none;fill-rule:nonzero;fill:rgb(21.568627%,27.843137%,30.980392%);fill-opacity:1;" d="M 571.878906 372.054688 L 554.28125 363.882812 L 551.875 381.355469 Z M 571.878906 372.054688 "/>
<path style=" stroke:none;fill-rule:nonzero;fill:rgb(21.568627%,27.843137%,30.980392%);fill-opacity:1;" d="M 561.835938 335 C 557.480469 337.367188 554.238281 340.839844 552.613281 344.863281 L 568.726562 352.359375 C 571.167969 349.097656 572.515625 345.386719 572.636719 341.582031 C 572.679688 335.164062 567.84375 332.230469 561.835938 335 Z M 561.835938 335 "/>
<path style=" stroke:none;fill-rule:nonzero;fill:rgb(48.235294%,38.039216%,100%);fill-opacity:1;" d="M 464.695312 259.808594 C 457.84375 256.625 448.398438 257.074219 437.941406 261.929688 C 417.074219 271.648438 400.15625 295.238281 400.15625 314.65625 C 400.15625 324.402344 404.4375 331.234375 411.3125 334.386719 L 424.628906 340.621094 C 431.460938 343.804688 440.90625 343.339844 451.382812 338.480469 C 472.25 328.78125 489.167969 305.171875 489.167969 285.757812 C 489.167969 276.058594 484.925781 269.175781 478.09375 266.074219 "/>
<path style=" stroke:none;fill-rule:nonzero;fill:rgb(48.235294%,38.039216%,100%);fill-opacity:1;" d="M 451.359375 268.179688 C 430.492188 277.898438 413.574219 301.507812 413.574219 320.90625 C 413.574219 340.304688 430.492188 348.195312 451.359375 338.480469 C 472.230469 328.765625 489.167969 305.171875 489.144531 285.757812 C 489.125 266.339844 472.207031 258.480469 451.359375 268.179688 Z M 451.359375 268.179688 "/>
<path style=" stroke:none;fill-rule:nonzero;fill:rgb(48.235294%,38.039216%,100%);fill-opacity:1;" d="M 472.207031 311.257812 L 472.207031 313.476562 C 467.207031 320.667969 460.039062 326.722656 451.359375 331.085938 C 443.230469 334.851562 435.882812 335.265625 430.492188 332.859375 L 430.492188 328.285156 C 431.050781 318.625 437.386719 309.78125 447.492188 304.558594 L 452.988281 302.003906 C 457.84375 299.75 462.578125 299.453125 466.28125 301.191406 C 469.984375 302.933594 472.207031 306.597656 472.207031 311.257812 Z M 472.207031 311.257812 "/>
<use xlink:href="#surface44" mask="url(#mask13)"/>
<use xlink:href="#surface47" mask="url(#mask14)"/>
<use xlink:href="#surface50" mask="url(#mask15)"/>
<path style=" stroke:none;fill-rule:nonzero;fill:rgb(100%,100%,100%);fill-opacity:1;" d="M 446.585938 300.960938 C 445.308594 300.972656 444.050781 300.707031 442.941406 300.199219 C 440.222656 298.734375 438.710938 296.191406 439.011719 293.566406 C 439.367188 287.4375 443.386719 281.824219 449.796875 278.511719 C 452.394531 276.839844 455.996094 276.625 458.871094 277.964844 C 461.75 279.308594 463.308594 281.933594 462.804688 284.578125 C 462.441406 290.707031 458.425781 296.316406 452.019531 299.632812 C 450.386719 300.457031 448.511719 300.914062 446.585938 300.960938 Z M 446.585938 300.960938 "/>
<path style=" stroke:none;fill-rule:nonzero;fill:rgb(100%,100%,100%);fill-opacity:1;" d="M 466.28125 301.175781 C 462.578125 299.433594 457.84375 299.734375 452.988281 301.988281 L 447.492188 304.542969 C 437.382812 309.765625 431.046875 318.617188 430.492188 328.285156 L 430.492188 332.875 C 435.882812 335.28125 443.230469 334.867188 451.359375 331.101562 C 460.039062 326.738281 467.207031 320.683594 472.207031 313.496094 L 472.207031 311.273438 C 472.207031 306.597656 470.066406 302.933594 466.28125 301.175781 Z M 466.28125 301.175781 "/>
<path style=" stroke:none;fill-rule:nonzero;fill:rgb(48.235294%,38.039216%,100%);fill-opacity:1;" d="M 889.363281 588.007812 C 889.363281 588.007812 892.101562 568.644531 904.058594 553.605469 C 916.015625 538.566406 932.4375 529.199219 947.769531 528.222656 C 963.101562 527.242188 975.492188 538.617188 959.089844 546.460938 C 942.6875 554.300781 913.546875 562.226562 900.128906 591.410156 Z M 889.363281 588.007812 "/>
<use xlink:href="#surface53" mask="url(#mask16)"/>
<path style=" stroke:none;fill-rule:nonzero;fill:rgb(100%,100%,100%);fill-opacity:1;" d="M 893.871094 582.96875 L 893.707031 582.96875 C 893.289062 582.832031 893.085938 582.445312 893.253906 582.105469 C 909.429688 550.023438 940.21875 536.613281 954.253906 534.023438 C 954.695312 533.941406 955.140625 534.164062 955.242188 534.523438 C 955.34375 534.878906 955.066406 535.234375 954.625 535.320312 C 940.875 537.871094 910.6875 551.035156 894.777344 582.621094 C 894.613281 582.894531 894.238281 583.039062 893.871094 582.96875 Z M 893.871094 582.96875 "/>
<path style=" stroke:none;fill-rule:nonzero;fill:rgb(48.235294%,38.039216%,100%);fill-opacity:1;" d="M 975.738281 583.351562 C 974.359375 585.871094 970.945312 587.199219 967.773438 588.226562 C 964.605469 589.253906 961.148438 590.363281 959.417969 592.75 C 955.960938 597.558594 961.640625 604.359375 957.9375 609.015625 C 956.175781 610.910156 953.527344 612.144531 950.609375 612.433594 C 948.242188 612.78125 945.835938 612.78125 943.449219 612.945312 C 942.304688 612.933594 941.164062 612.863281 940.03125 612.730469 C 936.707031 612.132812 933.230469 612.429688 930.132812 613.574219 C 925.378906 615.730469 923.960938 620.554688 921.039062 624.285156 C 917.425781 628.730469 911.585938 631.6875 905.046875 632.378906 C 902.988281 632.59375 898.871094 632.910156 896.816406 631.929688 C 896.652344 631.867188 896.5 631.789062 896.363281 631.699219 C 896.054688 631.433594 895.683594 631.085938 895.519531 630.902344 C 895.507812 630.863281 895.507812 630.824219 895.519531 630.785156 C 894.675781 628.28125 896.054688 625.695312 896.113281 623.109375 L 896.113281 622.644531 C 895.972656 619.644531 895.867188 616.660156 895.785156 613.675781 C 895.605469 608.148438 895.539062 602.621094 895.578125 597.09375 C 895.578125 593.515625 895.085938 589.601562 896.980469 586.234375 C 899.039062 582.523438 904.222656 582.4375 906.179688 578.808594 C 906.960938 577.347656 907.371094 575.808594 908.132812 574.332031 C 910.53125 569.957031 915.753906 567.023438 921.675781 566.722656 C 930.710938 566.355469 938.796875 572.242188 947.832031 571.695312 C 950.15625 571.546875 952.441406 570.964844 954.746094 570.632812 C 962.054688 569.523438 970.511719 571.199219 974.628906 576.1875 C 976.460938 578.277344 976.878906 580.964844 975.738281 583.351562 Z M 975.738281 583.351562 "/>
<path style=" stroke:none;fill-rule:nonzero;fill:rgb(100%,100%,100%);fill-opacity:1;" d="M 894.613281 619.296875 C 894.207031 619.199219 893.972656 618.863281 894.078125 618.535156 C 906.550781 580.832031 955.816406 575.425781 967.402344 576.054688 C 967.609375 576.0625 967.804688 576.140625 967.9375 576.265625 C 968.074219 576.390625 968.140625 576.554688 968.125 576.71875 C 968.082031 577.054688 967.71875 577.300781 967.300781 577.28125 C 956.003906 576.636719 907.761719 581.957031 895.558594 618.863281 C 895.441406 619.191406 895.019531 619.382812 894.613281 619.296875 Z M 894.613281 619.296875 "/>
<path style=" stroke:none;fill-rule:nonzero;fill:rgb(100%,100%,100%);fill-opacity:1;" d="M 949.417969 600.195312 C 949.261719 600.179688 949.117188 600.121094 949.003906 600.03125 C 939.78125 593.589844 927.476562 590.800781 915.441406 592.421875 C 915.023438 592.449219 914.648438 592.21875 914.574219 591.890625 C 914.511719 591.550781 914.796875 591.234375 915.214844 591.175781 C 927.769531 589.492188 940.601562 592.417969 950.199219 599.152344 C 950.347656 599.265625 950.429688 599.425781 950.429688 599.589844 C 950.429688 599.757812 950.347656 599.914062 950.199219 600.03125 C 950.007812 600.214844 949.695312 600.28125 949.417969 600.195312 Z M 949.417969 600.195312 "/>
<path style=" stroke:none;fill-rule:nonzero;fill:rgb(90.196078%,90.196078%,90.196078%);fill-opacity:1;" d="M 776.113281 132.640625 L 782.65625 134.664062 L 782.65625 123.058594 C 782.65625 113.839844 791.773438 111.632812 801.671875 116.242188 C 811.59375 120.851562 819.617188 132.042969 819.617188 141.261719 L 819.617188 142.917969 C 822.414062 142.230469 825.445312 142.609375 827.851562 143.949219 C 835.476562 147.953125 840.269531 154.648438 840.753906 161.96875 L 840.753906 162.734375 L 849.890625 166.976562 C 854.90625 169.613281 858.0625 174.015625 858.390625 178.832031 C 858.390625 183.210938 854.585938 184.984375 849.890625 182.792969 L 776.113281 148.457031 C 771.09375 145.828125 767.941406 141.417969 767.632812 136.601562 C 767.632812 132.242188 771.398438 130.46875 776.113281 132.640625 Z M 776.113281 132.640625 "/>
<path style=" stroke:none;fill-rule:nonzero;fill:rgb(90.196078%,90.196078%,90.196078%);fill-opacity:1;" d="M 863.761719 123.453125 L 875.636719 128.976562 C 875.574219 128.558594 875.539062 128.136719 875.535156 127.714844 L 875.535156 124.945312 C 875.535156 119.972656 879.816406 118.015625 885.125 120.488281 C 887.40625 121.613281 889.359375 123.121094 890.847656 124.914062 C 891.710938 118.710938 897.761719 116.40625 905.085938 119.808594 C 913.578125 124.257812 918.929688 131.703125 919.492188 139.851562 L 919.492188 143.996094 C 919.546875 145.652344 919.132812 147.296875 918.28125 148.804688 L 928.15625 153.382812 C 931.28125 155.050781 933.234375 157.8125 933.425781 160.824219 C 933.425781 163.5625 931.039062 164.671875 928.097656 163.3125 L 863.761719 133.46875 C 860.605469 131.8125 858.625 129.039062 858.433594 126.007812 C 858.433594 123.207031 860.820312 122.09375 863.761719 123.453125 Z M 863.761719 123.453125 "/>
<path style=" stroke:none;fill-rule:nonzero;fill:rgb(100%,65.882353%,65.490196%);fill-opacity:1;" d="M 817.789062 375.089844 C 809.144531 386.859375 800.828125 397.089844 794.984375 402 C 783.890625 406.144531 757.839844 412.542969 747.652344 413.605469 C 745.863281 413.789062 744.050781 413.445312 742.546875 412.644531 C 738.535156 410.519531 735.425781 410.171875 731.207031 408.996094 C 727.894531 408.082031 726.496094 406.808594 725.878906 407.335938 C 724.550781 408.589844 724.707031 410.464844 726.226562 411.566406 C 727.808594 412.777344 729.566406 413.835938 731.453125 414.714844 C 726.9375 415.617188 722.222656 415.6875 717.664062 414.914062 C 708.835938 413.039062 704.679688 416.457031 710.648438 424.183594 C 712.707031 426.933594 721.183594 431.363281 738.226562 430.167969 C 744.304688 429.902344 750.359375 429.351562 756.355469 428.511719 C 772.695312 425.691406 790.867188 422.972656 802.042969 420.21875 C 806.199219 418.902344 809.921875 416.824219 812.910156 414.152344 C 831.699219 396.890625 837.933594 384.589844 846.167969 373.414062 L 845.46875 355.175781 C 832.132812 354.8125 825.011719 365.242188 817.789062 375.089844 Z M 817.789062 375.089844 "/>
<path style=" stroke:none;fill-rule:nonzero;fill:rgb(27.058824%,35.294118%,39.215686%);fill-opacity:1;" d="M 847.75 354.8125 C 839.871094 353.917969 832.023438 356.621094 827.378906 361.824219 C 818.238281 371.257812 802.0625 393.90625 802.0625 393.90625 C 802.0625 393.90625 807.351562 405.265625 821.636719 407.171875 L 844.582031 382.203125 C 844.582031 382.203125 855.449219 364.859375 847.75 354.8125 Z M 847.75 354.8125 "/>
<path style=" stroke:none;fill-rule:nonzero;fill:rgb(100%,65.882353%,65.490196%);fill-opacity:1;" d="M 882.410156 609.382812 L 897.371094 609.382812 L 897.371094 630.867188 L 882.410156 630.867188 Z M 882.410156 609.382812 "/>
<path style=" stroke:none;fill-rule:nonzero;fill:rgb(100%,65.882353%,65.490196%);fill-opacity:1;" d="M 845.507812 608.238281 L 830.566406 608.667969 L 829.804688 585.921875 L 845.507812 585.488281 Z M 845.507812 608.238281 "/>
<path style=" stroke:none;fill-rule:nonzero;fill:rgb(21.568627%,27.843137%,30.980392%);fill-opacity:1;" d="M 899.46875 423.371094 C 899.46875 435.339844 897.289062 531.785156 897.289062 531.785156 C 897.617188 535.234375 901.402344 541.601562 900.640625 554.851562 C 899.511719 572.839844 898.007812 620.125 898.007812 620.125 C 892.804688 622.269531 886.664062 622.367188 881.359375 620.390625 C 881.359375 620.390625 869.21875 554.070312 866.542969 536.3125 C 864.195312 520.746094 858.1875 469.214844 858.1875 469.214844 L 850.097656 530.128906 C 851.8125 536.664062 852.4375 543.355469 851.949219 550.023438 C 851.25 558.316406 846.433594 601.222656 846.433594 601.222656 C 841.199219 603.714844 834.828125 604.121094 829.167969 602.335938 C 829.167969 602.335938 820.648438 537.671875 820.484375 530.078125 C 820.277344 521.457031 825.464844 423.269531 825.464844 423.269531 Z M 899.46875 423.371094 "/>
<path style=" stroke:none;fill-rule:nonzero;fill:rgb(14.901961%,19.607843%,21.960784%);fill-opacity:1;" d="M 882.410156 624.667969 L 882.410156 622.878906 C 880.96875 623.390625 877.65625 634.035156 871.707031 638.578125 C 866.996094 642.191406 860.574219 646.355469 858.925781 650.382812 C 857.28125 654.414062 867.878906 656.882812 872.304688 656.238281 C 877.40625 655.472656 886.296875 652.441406 888.519531 649.605469 C 890.742188 646.769531 891.792969 642.65625 893.605469 640.601562 C 895.414062 638.546875 899.59375 636.257812 900.558594 633.871094 C 900.863281 631.636719 900.574219 629.375 899.714844 627.238281 C 899.015625 625.015625 898.277344 622.578125 897.371094 622.792969 L 897.371094 624.152344 C 895.261719 625.550781 892.609375 626.300781 889.878906 626.277344 C 887.699219 626.425781 882.386719 626.0625 882.410156 624.667969 Z M 882.410156 624.667969 "/>
<path style=" stroke:none;fill-rule:nonzero;fill:rgb(14.901961%,19.607843%,21.960784%);fill-opacity:1;" d="M 830.402344 604.789062 C 829.621094 604.789062 828.984375 605.734375 827.273438 607.292969 C 824.734375 609.445312 821.765625 611.238281 818.488281 612.597656 C 812.890625 614.953125 802.023438 618.566406 797.0625 620.441406 C 793.976562 621.601562 794.121094 624.71875 797.308594 626.492188 C 800.5 628.265625 808.175781 629.542969 817.394531 627.816406 C 822.417969 626.875 828.960938 622.976562 833.121094 623.191406 C 837.277344 623.40625 844.996094 623.339844 848.0625 621.535156 C 851.128906 619.726562 849.890625 615.980469 849.027344 612.746094 C 848.082031 609.199219 846.96875 603.679688 845.507812 603.925781 L 845.507812 605.171875 C 843.71875 607.457031 834.4375 608.386719 830.484375 606.710938 Z M 830.402344 604.789062 "/>
<path style=" stroke:none;fill-rule:nonzero;fill:rgb(14.901961%,19.607843%,21.960784%);fill-opacity:1;" d="M 858.1875 469.214844 C 850.402344 467.160156 843.289062 463.734375 837.359375 459.183594 C 837.359375 459.183594 841.476562 465.5 853.328125 471.386719 L 850.777344 525.785156 Z M 858.1875 469.214844 "/>
<path style=" stroke:none;fill-rule:nonzero;fill:rgb(48.235294%,38.039216%,100%);fill-opacity:1;" d="M 891.113281 356.570312 C 891.113281 356.570312 903.460938 358.859375 902.578125 376.832031 L 900.003906 405.429688 L 900.003906 448.371094 C 889.015625 458.421875 840.324219 457.691406 823.550781 447.578125 C 823.550781 447.578125 825.441406 396.757812 826.574219 377.195312 C 827.378906 363.300781 831.351562 356.304688 848.308594 354.777344 L 869.15625 355.507812 Z M 891.113281 356.570312 "/>
<path style=" stroke:none;fill-rule:nonzero;fill:rgb(14.901961%,19.607843%,21.960784%);fill-opacity:1;" d="M 875.390625 319.230469 C 875.535156 324.089844 873.261719 328.796875 869.082031 332.300781 C 864.902344 335.808594 859.15625 337.820312 853.125 337.902344 C 840.773438 337.902344 833.53125 329.3125 830.855469 319.230469 C 825.917969 300.777344 840.816406 300.546875 853.125 300.546875 C 865.675781 300.753906 875.644531 309.117188 875.390625 319.230469 Z M 875.390625 319.230469 "/>
<path style=" stroke:none;fill-rule:nonzero;fill:rgb(14.901961%,19.607843%,21.960784%);fill-opacity:1;" d="M 886.75 326.773438 C 886.75 326.773438 883.335938 340.238281 881.957031 342.460938 C 881.089844 343.796875 879.613281 344.8125 877.839844 345.296875 L 878.085938 335.828125 Z M 886.75 326.773438 "/>
<path style=" stroke:none;fill-rule:nonzero;fill:rgb(14.901961%,19.607843%,21.960784%);fill-opacity:1;" d="M 882.449219 307.492188 C 882.449219 307.492188 884.898438 306.996094 887.511719 310.277344 C 889.734375 313.082031 890.25 319.378906 886.75 326.859375 L 880.308594 327.488281 Z M 882.449219 307.492188 "/>
<path style=" stroke:none;fill-rule:nonzero;fill:rgb(14.901961%,19.607843%,21.960784%);fill-opacity:1;" d="M 884.816406 310.226562 L 892.71875 310.34375 C 892.828125 309.511719 892.503906 308.683594 891.816406 308.050781 C 891.132812 307.421875 890.15625 307.050781 889.117188 307.027344 C 886.878906 307.054688 885.027344 308.433594 884.816406 310.226562 Z M 884.816406 310.226562 "/>
<path style=" stroke:none;fill-rule:nonzero;fill:rgb(14.901961%,19.607843%,21.960784%);fill-opacity:1;" d="M 885.785156 308.71875 L 891.628906 304.191406 C 890.949219 303.546875 889.960938 303.160156 888.910156 303.125 C 887.859375 303.089844 886.835938 303.410156 886.09375 304.011719 C 884.484375 305.277344 884.351562 307.324219 885.785156 308.71875 Z M 885.785156 308.71875 "/>
<path style=" stroke:none;fill-rule:nonzero;fill:rgb(100%,65.882353%,65.490196%);fill-opacity:1;" d="M 878.375 327.40625 C 879.671875 328.050781 881.503906 325.980469 883.109375 324.570312 C 884.714844 323.160156 889.695312 321.867188 892.285156 326.445312 C 894.878906 331.019531 890.457031 335.546875 886.75 337.039062 C 880.105469 339.691406 878.003906 335.828125 878.003906 335.828125 L 877.449219 357.148438 C 868.105469 368.753906 846.90625 368.390625 854.542969 356.585938 L 854.542969 350.101562 C 851.402344 350.523438 848.214844 350.65625 845.035156 350.5 C 839.847656 349.839844 836.597656 346.40625 835.011719 341.695312 C 832.503906 334.136719 831.535156 328.035156 833.675781 313.164062 C 836.019531 296.882812 858.617188 296.699219 870.71875 303.214844 C 882.820312 309.730469 878.375 327.40625 878.375 327.40625 Z M 878.375 327.40625 "/>
<path style=" stroke:none;fill-rule:nonzero;fill:rgb(14.901961%,19.607843%,21.960784%);fill-opacity:1;" d="M 850.222656 310.625 C 855.613281 310.195312 860.945312 309.300781 866.355469 308.96875 C 867.523438 308.855469 868.707031 308.898438 869.855469 309.101562 C 873.972656 310.011719 873.476562 313.890625 874.136719 316.59375 C 875.265625 321.269531 876.195312 329.179688 878.375 329.210938 C 879.035156 329.210938 881.503906 325.78125 883.109375 324.554688 C 883.992188 323.496094 884.488281 322.261719 884.550781 320.988281 C 884.960938 319.066406 885.167969 317.09375 885.351562 315.136719 C 885.515625 313.476562 885.722656 311.820312 885.722656 310.160156 C 885.816406 308.289062 885.628906 306.414062 885.167969 304.574219 C 884.648438 303.011719 883.660156 301.574219 882.285156 300.394531 L 881.875 300.03125 C 879.160156 297.746094 875.867188 295.960938 872.222656 294.792969 C 866.972656 293.207031 861.46875 292.242188 855.882812 291.925781 C 850.300781 291.605469 844.742188 291.050781 839.230469 290.265625 C 838.914062 290.191406 838.582031 290.191406 838.265625 290.265625 C 837.808594 290.46875 837.515625 290.84375 837.484375 291.261719 C 837.023438 293.363281 838.101562 295.492188 840.261719 296.730469 C 836.535156 296.964844 832.253906 295.40625 828.675781 294.609375 C 828.089844 294.410156 827.429688 294.410156 826.84375 294.609375 C 826.484375 294.8125 826.226562 295.113281 826.121094 295.457031 C 825.863281 296.234375 825.828125 297.050781 826.019531 297.84375 C 826.347656 300.242188 827.453125 302.53125 829.230469 304.476562 C 832.003906 307.382812 835.921875 309.449219 840.34375 310.328125 C 843.597656 310.832031 846.929688 310.933594 850.222656 310.625 Z M 850.222656 310.625 "/>
<path style=" stroke:none;fill-rule:nonzero;fill:rgb(94.901961%,56.078431%,56.078431%);fill-opacity:1;" d="M 854.5625 350.101562 C 854.5625 350.101562 866.128906 348.148438 870.164062 346.339844 C 872.566406 345.28125 874.515625 343.664062 875.761719 341.695312 C 875.152344 343.671875 874.070312 345.53125 872.570312 347.167969 C 869.628906 350.351562 854.5625 352.671875 854.5625 352.671875 Z M 854.5625 350.101562 "/>
<path style=" stroke:none;fill-rule:nonzero;fill:rgb(14.901961%,19.607843%,21.960784%);fill-opacity:1;" d="M 857.34375 324.96875 C 857.296875 326.035156 858.324219 326.929688 859.648438 326.972656 C 860.679688 327.042969 861.65625 326.59375 862.109375 325.84375 C 862.5625 325.09375 862.398438 324.195312 861.695312 323.585938 C 860.992188 322.972656 859.894531 322.769531 858.929688 323.078125 C 857.96875 323.382812 857.335938 324.132812 857.34375 324.96875 Z M 857.34375 324.96875 "/>
<path style=" stroke:none;fill-rule:nonzero;fill:rgb(14.901961%,19.607843%,21.960784%);fill-opacity:1;" d="M 861.046875 316.925781 L 866.007812 319.230469 C 866.753906 318.054688 866.253906 316.609375 864.855469 315.914062 C 864.1875 315.613281 863.398438 315.554688 862.671875 315.746094 C 861.949219 315.9375 861.359375 316.367188 861.046875 316.925781 Z M 861.046875 316.925781 "/>
<path style=" stroke:none;fill-rule:nonzero;fill:rgb(94.901961%,56.078431%,56.078431%);fill-opacity:1;" d="M 855.59375 338.414062 L 850.304688 340.074219 C 850.519531 340.664062 851.027344 341.15625 851.710938 341.433594 C 852.394531 341.707031 853.1875 341.746094 853.90625 341.53125 C 855.398438 341.011719 856.136719 339.648438 855.59375 338.414062 Z M 855.59375 338.414062 "/>
<path style=" stroke:none;fill-rule:nonzero;fill:rgb(14.901961%,19.607843%,21.960784%);fill-opacity:1;" d="M 836.0625 318.632812 L 840.589844 315.714844 C 840.179688 315.203125 839.515625 314.851562 838.765625 314.753906 C 838.015625 314.65625 837.25 314.816406 836.660156 315.203125 C 835.40625 316.058594 835.148438 317.535156 836.0625 318.632812 Z M 836.0625 318.632812 "/>
<path style=" stroke:none;fill-rule:nonzero;fill:rgb(14.901961%,19.607843%,21.960784%);fill-opacity:1;" d="M 838.058594 324.421875 C 838.160156 325.433594 839.242188 326.195312 840.496094 326.144531 C 841.753906 326.089844 842.734375 325.238281 842.703125 324.226562 C 842.671875 323.210938 841.644531 322.402344 840.382812 322.398438 C 839.742188 322.414062 839.132812 322.640625 838.699219 323.019531 C 838.261719 323.398438 838.03125 323.902344 838.058594 324.421875 Z M 838.058594 324.421875 "/>
<path style=" stroke:none;fill-rule:nonzero;fill:rgb(94.901961%,56.078431%,56.078431%);fill-opacity:1;" d="M 850.46875 322.863281 L 850.199219 334.652344 L 841.886719 333.125 Z M 850.46875 322.863281 "/>
<path style=" stroke:none;fill-rule:nonzero;fill:rgb(48.235294%,38.039216%,100%);fill-opacity:1;" d="M 653.023438 421.597656 L 665.925781 415.59375 L 671.03125 410.605469 L 658.148438 416.605469 L 653.023438 421.597656 "/>
<use xlink:href="#surface56" mask="url(#mask17)"/>
<path style=" stroke:none;fill-rule:nonzero;fill:rgb(48.235294%,38.039216%,100%);fill-opacity:1;" d="M 688.113281 437.910156 L 701.015625 431.910156 L 711.78125 424.234375 L 698.898438 430.21875 L 688.113281 437.910156 "/>
<use xlink:href="#surface59" mask="url(#mask18)"/>
<path style=" stroke:none;fill-rule:nonzero;fill:rgb(48.235294%,38.039216%,100%);fill-opacity:1;" d="M 797.722656 458.621094 C 800.773438 461.914062 802.621094 465.832031 803.050781 469.925781 C 800.015625 466.625 798.167969 462.710938 797.722656 458.621094 Z M 827.707031 458.933594 C 823.363281 435.140625 807.496094 411.613281 788.605469 402.8125 C 779.527344 398.582031 771.132812 398.433594 764.402344 401.601562 L 752.261719 407.238281 L 751.582031 407.570312 C 751.039062 407.808594 750.519531 408.074219 750.015625 408.367188 C 749.019531 408.917969 748.082031 409.539062 747.21875 410.222656 L 746.808594 410.539062 C 746.4375 410.835938 746.046875 411.183594 745.695312 411.515625 C 745.347656 411.847656 744.8125 412.359375 744.398438 412.808594 C 743.527344 413.734375 742.734375 414.710938 742.03125 415.726562 C 741.660156 416.242188 741.3125 416.789062 740.984375 417.386719 L 634.933594 368.074219 L 622.050781 374.0625 L 622.050781 380.695312 L 623.140625 381.191406 L 624.171875 381.671875 L 624.171875 382.996094 L 622.113281 383.976562 L 622.113281 387.824219 L 637.691406 414.351562 L 653.085938 421.53125 L 658.210938 416.554688 L 671.792969 423.105469 L 679.59375 433.867188 L 688.195312 437.859375 L 698.957031 430.167969 L 712.171875 436.320312 L 716.617188 451.09375 L 738.820312 461.4375 C 739.917969 465.199219 741.292969 468.902344 742.9375 472.53125 C 743.082031 472.894531 743.265625 473.277344 743.453125 473.691406 C 750.820312 489.277344 762.53125 502.621094 775.742188 508.773438 C 777.324219 509.53125 778.984375 510.179688 780.703125 510.714844 C 781.609375 511.003906 782.539062 511.253906 783.480469 511.460938 C 784.304688 511.636719 785.128906 511.785156 785.949219 511.90625 C 788.550781 512.289062 791.210938 512.289062 793.8125 511.90625 L 794.882812 511.691406 C 795.394531 511.609375 795.894531 511.492188 796.382812 511.34375 L 797.535156 510.980469 C 797.945312 510.859375 798.335938 510.710938 798.710938 510.53125 C 799.089844 510.398438 799.460938 510.25 799.820312 510.082031 L 800.355469 509.820312 C 800.453125 509.792969 800.542969 509.753906 800.625 509.703125 C 803.566406 508.34375 810.8125 504.960938 812.785156 504.066406 C 822.582031 499.488281 828.921875 487.917969 828.921875 471.550781 C 828.90625 467.328125 828.5 463.109375 827.707031 458.933594 Z M 827.707031 458.933594 "/>
<path style=" stroke:none;fill-rule:nonzero;fill:rgb(48.235294%,38.039216%,100%);fill-opacity:1;" d="M 793.957031 478.699219 C 788.851562 476.328125 784.734375 469.296875 784.734375 462.996094 C 784.734375 456.695312 788.851562 453.496094 793.957031 455.851562 C 799.058594 458.203125 803.15625 465.25 803.15625 471.570312 C 803.15625 477.886719 799.039062 481.070312 793.957031 478.699219 Z M 814.804688 464.917969 C 810.480469 441.144531 794.613281 417.601562 775.703125 408.8125 C 766.933594 404.734375 758.824219 404.4375 752.238281 407.238281 L 751.5625 407.570312 C 751.019531 407.808594 750.496094 408.074219 749.996094 408.367188 C 749 408.917969 748.0625 409.539062 747.199219 410.222656 L 746.785156 410.539062 C 746.417969 410.835938 746.023438 411.183594 745.675781 411.515625 C 745.324219 411.847656 744.789062 412.359375 744.378906 412.808594 C 743.503906 413.734375 742.714844 414.710938 742.011719 415.726562 C 741.640625 416.242188 741.292969 416.789062 740.960938 417.386719 C 739.042969 420.589844 737.660156 423.984375 736.847656 427.480469 L 622.03125 374.0625 L 622.03125 380.695312 L 623.121094 381.191406 L 624.148438 381.671875 L 624.148438 382.996094 L 622.09375 383.976562 L 622.09375 387.824219 L 637.671875 414.351562 L 653.066406 421.53125 L 658.191406 416.554688 L 671.773438 423.105469 L 679.570312 433.867188 L 688.175781 437.859375 L 698.9375 430.167969 L 712.148438 436.320312 L 716.59375 451.09375 L 738.820312 461.4375 C 739.917969 465.199219 741.292969 468.902344 742.9375 472.53125 C 743.082031 472.894531 743.265625 473.277344 743.453125 473.691406 C 750.820312 489.277344 762.53125 502.621094 775.742188 508.773438 C 777.324219 509.53125 778.984375 510.179688 780.703125 510.714844 C 781.609375 511.003906 782.539062 511.253906 783.480469 511.460938 C 784.304688 511.636719 785.128906 511.785156 785.949219 511.90625 C 788.550781 512.289062 791.210938 512.289062 793.8125 511.90625 L 794.882812 511.691406 C 795.394531 511.609375 795.894531 511.492188 796.382812 511.34375 L 797.535156 510.980469 C 797.945312 510.859375 798.335938 510.710938 798.710938 510.53125 C 799.089844 510.398438 799.460938 510.25 799.820312 510.082031 L 800.355469 509.820312 C 800.453125 509.792969 800.542969 509.753906 800.625 509.703125 C 810.007812 504.925781 816.039062 493.519531 816.039062 477.554688 C 816.003906 473.324219 815.589844 469.101562 814.804688 464.917969 Z M 814.804688 464.917969 "/>
<use xlink:href="#surface62" mask="url(#mask19)"/>
<use xlink:href="#surface65" mask="url(#mask20)"/>
<path style=" stroke:none;fill-rule:nonzero;fill:rgb(48.235294%,38.039216%,100%);fill-opacity:1;" d="M 815.996094 477.503906 C 815.996094 493.46875 809.96875 504.878906 800.582031 509.652344 C 803.527344 508.292969 810.769531 504.910156 812.746094 504.015625 C 822.542969 499.4375 828.878906 487.867188 828.878906 471.503906 C 828.878906 470.90625 828.878906 470.292969 828.878906 469.679688 L 815.996094 475.679688 C 815.976562 476.328125 815.996094 476.921875 815.996094 477.503906 Z M 815.996094 477.503906 "/>
<use xlink:href="#surface68" mask="url(#mask21)"/>
<use xlink:href="#surface71" mask="url(#mask22)"/>
<use xlink:href="#surface74" mask="url(#mask23)"/>
<use xlink:href="#surface77" mask="url(#mask24)"/>
<use xlink:href="#surface80" mask="url(#mask25)"/>
<path style=" stroke:none;fill-rule:nonzero;fill:rgb(100%,65.882353%,65.490196%);fill-opacity:1;" d="M 890.105469 422.542969 C 896.113281 413.371094 902.988281 392.78125 906.40625 382.382812 C 911.261719 367.628906 903.398438 358.34375 894.46875 357.960938 C 888.890625 358.660156 870.511719 412.492188 870.511719 412.492188 C 868.457031 413.804688 840.527344 425.226562 831.554688 428.09375 C 829.949219 428.585938 828.179688 428.585938 826.574219 428.09375 C 822.273438 426.835938 819.332031 427.066406 815.113281 426.734375 C 811.796875 426.472656 810.132812 425.527344 809.699219 426.089844 C 808.886719 427.539062 809.59375 429.25 811.324219 430.019531 C 813.140625 430.871094 815.074219 431.550781 817.085938 432.042969 C 813.480469 432.921875 809.722656 433.332031 805.953125 433.253906 C 797.308594 433.101562 794.203125 436.121094 800.910156 443.199219 C 805.027344 447.609375 811.839844 449.003906 827.046875 444.773438 C 831.410156 443.546875 837.339844 441.175781 842.875 439.570312 C 854.277344 436.253906 857.28125 435.855469 865.964844 433.484375 C 878.621094 430.035156 887.429688 426.621094 890.105469 422.542969 Z M 890.105469 422.542969 "/>
<path style=" stroke:none;fill-rule:nonzero;fill:rgb(27.058824%,35.294118%,39.215686%);fill-opacity:1;" d="M 891.113281 356.570312 C 896.363281 357.148438 901.402344 358.09375 904.511719 361.542969 C 907.621094 364.992188 910.109375 369.832031 907.0625 383.015625 C 904.730469 392.285156 901.609375 401.414062 897.71875 410.339844 C 897.71875 410.339844 885.496094 414.550781 872.507812 403.871094 L 881.441406 376.050781 C 881.441406 376.050781 882.882812 357.960938 891.113281 356.570312 Z M 891.113281 356.570312 "/>
</g>
</svg>
