<svg width="911" height="731" viewBox="0 0 911 731" fill="none" xmlns="http://www.w3.org/2000/svg">
<path d="M850.673 483.285H552.066V344.629H850.673V483.285ZM553.889 481.823H848.851V346.091H553.889V481.823Z" fill="#E0E0E0"/>
<path d="M592.058 418.56H789.071V423.196H592.058V418.56Z" fill="#F0F0F0"/>
<path d="M592.058 435.842H802.644V440.903H592.058V435.842Z" fill="#F0F0F0"/>
<path d="M592.058 453.327H802.644V458.388H592.058V453.327Z" fill="#F0F0F0"/>
<path d="M592.058 393.459H660.913V405.493H592.058V393.459Z" fill="#F0F0F0"/>
<path d="M553.031 345.358H849.764V367.435H553.031V345.358Z" fill="#E0E0E0"/>
<path d="M826.932 364.13C826.552 363.839 830.377 360.14 835.46 355.871C840.544 351.602 845.009 348.369 845.372 348.649C845.735 348.926 841.927 352.639 836.844 356.922C831.76 361.209 827.299 364.424 826.932 364.13Z" fill="white"/>
<path d="M845.406 364.13C845.043 364.424 840.599 361.209 835.495 356.922C830.394 352.639 826.586 348.94 826.97 348.649C827.351 348.356 831.781 351.574 836.882 355.871C841.983 360.168 845.756 363.839 845.406 364.13Z" fill="white"/>
<path d="M186.499 70.7806H483.232V207.988H186.499V70.7806Z" fill="#E6E6E6"/>
<path d="M225.547 144H422.56V148.632H225.547V144Z" fill="#F0F0F0"/>
<path d="M225.547 161.277H436.133V166.338H225.547V161.277Z" fill="#F0F0F0"/>
<path d="M225.547 178.763H436.133V183.824H225.547V178.763Z" fill="#F0F0F0"/>
<path d="M225.547 118.895H294.398V130.929H225.547V118.895Z" fill="#F0F0F0"/>
<path d="M186.499 70.7806H483.232V92.8569H186.499V70.7806Z" fill="#E0E0E0"/>
<path d="M459.397 89.4518C459.017 89.1718 462.842 85.459 467.926 81.1896C473.009 76.9202 477.474 73.6914 477.837 73.9818C478.204 74.2756 474.393 77.9746 469.312 82.244C464.229 86.5133 459.764 89.7145 459.397 89.4518Z" fill="white"/>
<path d="M477.837 89.4517C477.474 89.7421 473.027 86.5271 467.926 82.2439C462.825 77.9607 459.017 74.2756 459.397 73.9817C459.781 73.6913 464.208 76.9063 469.312 81.1895C474.413 85.4727 478.221 89.1717 477.837 89.4517Z" fill="white"/>
<path d="M370.851 325.667H72.2958V186.994H370.851V325.667ZM74.1183 324.205H369.029V188.456H74.1183V324.205Z" fill="#E0E0E0"/>
<path d="M112.253 260.942H309.266V265.578H112.253V260.942Z" fill="#F0F0F0"/>
<path d="M112.253 278.224H322.839V283.281H112.253V278.224Z" fill="#F0F0F0"/>
<path d="M112.253 295.709H322.839V300.767H112.253V295.709Z" fill="#F0F0F0"/>
<path d="M112.253 235.841H181.108V247.871H112.253V235.841Z" fill="#F0F0F0"/>
<path d="M73.2087 187.727H369.938V209.803H73.2087V187.727Z" fill="#E0E0E0"/>
<path d="M365.038 357.437H715.409V609.133H365.038V357.437Z" fill="#E6E6E6"/>
<path d="M108.189 278.151H382.658V506.969H108.189V278.151Z" fill="#F0F0F0"/>
<path d="M108.189 278.151H382.658V303.08H108.189V278.151Z" fill="#E0E0E0"/>
<path d="M130.855 290.358C130.717 292.881 128.082 294.845 124.935 294.772C121.791 294.7 119.304 292.612 119.346 290.088C119.391 287.565 121.954 285.535 125.097 285.535C128.344 285.598 130.917 287.755 130.855 290.358Z" fill="white"/>
<path d="M154.233 290.358C154.102 292.892 151.46 294.873 148.299 294.8C145.138 294.731 142.638 292.636 142.686 290.099C142.735 287.561 145.314 285.528 148.475 285.535C151.723 285.598 154.292 287.755 154.233 290.358Z" fill="white"/>
<path d="M177.608 290.358C177.48 292.892 174.834 294.873 171.674 294.8C168.516 294.731 166.016 292.636 166.064 290.099C166.109 287.561 168.689 285.528 171.85 285.535C175.097 285.598 177.67 287.755 177.608 290.358Z" fill="white"/>
<path d="M461.113 120.824H811.484V401.033H461.113V120.824Z" fill="#F0F0F0"/>
<path d="M461.113 120.824H811.484V153.648H461.113V120.824Z" fill="#E0E0E0"/>
<path d="M490.954 136.906C490.778 140.235 487.299 142.834 483.149 142.738C478.999 142.644 475.71 139.893 475.769 136.56C475.824 133.228 479.207 130.552 483.36 130.548C487.641 130.628 491.037 133.469 490.954 136.906Z" fill="white"/>
<path d="M519.506 132.609C522.325 135.067 522.159 138.883 519.129 141.175C516.103 143.464 511.345 143.377 508.454 140.975C505.562 138.572 505.618 134.752 508.575 132.405C511.666 130.044 516.556 130.133 519.506 132.609Z" fill="white"/>
<path d="M552.502 136.906C552.325 140.235 548.846 142.834 544.696 142.738C540.547 142.644 537.258 139.893 537.316 136.56C537.372 133.228 540.754 130.552 544.904 130.548C549.189 130.628 552.585 133.469 552.502 136.906Z" fill="white"/>
<path d="M735.795 683.476C735.795 683.68 609.277 683.856 453.259 683.856C297.241 683.856 170.667 683.68 170.667 683.476C170.667 683.272 297.168 683.095 453.259 683.095C609.349 683.095 735.795 683.286 735.795 683.476Z" fill="#263238"/>
<path d="M612.521 504.497C584.37 488.723 577.993 459.439 579.103 433.107C579.286 428.724 578.685 424.074 581.292 420.23C583.896 416.382 589.983 413.738 594.883 415.58C598.947 417.115 600.714 420.914 602.99 424.06C606.03 428.247 610.484 431.655 615.837 433.899C619.316 435.361 623.636 436.236 627.077 434.718C631.815 432.627 632.361 427.406 632.326 423.02C632.326 414.861 632.264 406.713 632.143 398.575C631.815 394.206 632.368 389.822 633.782 385.594C635.477 381.442 639.25 377.595 644.406 376.426C649.563 375.258 655.992 377.671 657.161 381.94C657.361 383.748 657.413 385.563 657.323 387.378C657.468 389.203 658.527 391.208 660.657 391.762C662.787 392.318 665.011 391.046 666.65 389.76C672.263 385.373 676.088 379.659 679.643 374.013C683.195 368.372 686.674 362.567 691.778 357.759C696.879 352.946 703.931 349.13 711.819 348.767C719.707 348.401 727.924 352.29 729.892 358.429C731.86 364.569 727.399 370.843 722.605 375.828C715.374 383.226 706.849 389.753 697.298 395.198C695.434 396.017 693.943 397.293 693.051 398.838C691.868 401.763 695.313 404.687 698.902 405.607C702.962 406.689 707.372 406.353 711.656 406.765C715.938 407.173 720.492 408.663 722.114 411.881C724.335 416.354 719.673 421.032 715.097 424.102C705.916 430.245 695.489 435.074 684.27 438.386C680.262 439.554 676.053 440.595 672.809 442.845C669.565 445.096 667.636 449.03 669.586 452.114C671.533 455.201 676.544 456.179 680.753 455.55C684.962 454.921 688.697 453.109 692.705 451.896C700.196 449.628 709.851 450.039 714.572 455.228C717.536 458.855 718.21 463.383 716.391 467.466C714.568 471.473 711.764 475.147 708.139 478.269C696.205 489.712 680.701 498.403 663.209 503.46C645.845 508.286 629.757 509.6 612.5 504.528" fill="#4E73DF"/>
<path d="M721.876 352.376C721.876 352.376 721.713 352.525 721.347 352.787L719.725 353.942C718.307 354.965 716.211 356.455 713.569 358.429C706.078 364.009 699.124 370.038 692.76 376.457C688.697 380.506 684.488 385.096 680.006 390.081C675.524 395.066 670.897 400.449 666.304 406.163C661.411 412.192 656.929 418.429 652.876 424.848C650.763 428.195 648.905 431.69 646.993 435.257L641.342 446.15C633.9 459.868 627.416 473.91 621.92 488.211C617.497 499.91 614.447 511.919 612.811 524.074C611.753 532.278 611.58 540.54 612.303 548.767C612.593 551.692 612.867 553.929 613.122 555.45C613.23 556.179 613.302 556.763 613.375 557.189V557.787C613.299 557.596 613.243 557.403 613.212 557.202C613.122 556.781 613.012 556.21 612.867 555.477C612.538 554.015 612.192 551.706 611.864 548.781C610.985 540.54 611.047 532.25 612.047 524.015C613.579 511.809 616.563 499.744 620.955 487.994C626.402 473.651 632.869 459.574 640.322 445.829L646.118 434.981C648.031 431.427 649.908 427.904 652.039 424.541C656.116 418.104 660.636 411.85 665.578 405.814C670.24 399.965 674.943 394.672 679.37 389.732C683.796 384.789 688.078 380.17 692.124 376.136C698.549 369.73 705.597 363.746 713.202 358.239C715.9 356.296 718.051 354.834 719.507 353.852L721.201 352.756C721.409 352.611 721.637 352.483 721.876 352.376Z" fill="#263238"/>
<path d="M652.277 424.513C652.018 423.908 651.842 423.286 651.748 422.657C651.458 421.443 651.129 419.732 650.745 417.509C649.96 413.122 649.162 407.114 648.304 400.463C647.446 393.812 646.481 387.786 645.679 383.444C645.261 381.28 644.897 379.541 644.642 378.328C644.444 377.705 644.337 377.069 644.334 376.426C644.645 377.014 644.873 377.626 645.005 378.255C645.406 379.455 645.862 381.18 646.374 383.358C647.412 387.741 648.432 393.708 649.289 400.373C650.144 407.041 650.873 412.891 651.437 417.437C651.71 419.483 651.949 421.222 652.129 422.612C652.271 423.237 652.322 423.877 652.277 424.513Z" fill="#263238"/>
<path d="M722.388 414.014C721.499 414.17 720.596 414.256 719.69 414.277C717.868 414.408 715.281 414.585 712.075 414.878C705.66 415.432 696.841 416.455 687.168 417.917C677.492 419.379 668.801 421.032 662.552 422.304C659.436 422.947 656.922 423.531 655.265 423.929C654.38 424.181 653.464 424.357 652.53 424.454C653.374 424.115 654.252 423.835 655.155 423.621C656.866 423.137 659.346 422.466 662.441 421.747C668.656 420.285 677.347 418.546 687.057 417.056C695.285 415.794 703.585 414.868 711.93 414.277C715.153 414.059 717.76 413.973 719.579 413.942C720.517 413.89 721.457 413.914 722.388 414.014Z" fill="#263238"/>
<path d="M621.848 486.97C621.654 486.756 621.495 486.524 621.374 486.282L620.174 484.25C619.133 482.48 617.732 479.863 616.055 476.662C612.666 470.228 608.347 461.223 603.757 451.222C599.165 441.224 594.939 432.215 591.729 425.709C590.163 422.553 588.869 419.964 587.905 418.035L586.884 415.943C586.743 415.705 586.646 415.449 586.594 415.186C586.788 415.397 586.947 415.629 587.068 415.871L588.268 417.903C589.288 419.673 590.709 422.29 592.387 425.491C595.776 431.925 600.095 440.93 604.684 450.931C609.277 460.929 613.503 469.938 616.712 476.444C618.279 479.6 619.572 482.189 620.52 484.118C620.938 484.951 621.284 485.581 621.557 486.21C621.699 486.448 621.796 486.704 621.848 486.97Z" fill="#263238"/>
<path d="M714.918 462.889C714.624 463.024 714.313 463.127 713.987 463.197L711.29 463.926L701.323 466.515C692.906 468.707 681.282 471.836 668.528 475.286C655.774 478.739 644.095 481.809 635.622 483.856C631.396 484.893 627.952 485.681 625.566 486.21L622.813 486.78C622.495 486.86 622.166 486.915 621.831 486.939C622.121 486.804 622.436 486.701 622.761 486.631L625.455 485.902L635.422 483.313C643.839 481.121 655.466 477.992 668.22 474.542C680.971 471.092 692.632 468.023 701.105 465.973C705.352 464.935 708.776 464.147 711.183 463.622L713.932 463.051C714.254 462.968 714.582 462.913 714.918 462.889Z" fill="#263238"/>
<path d="M676.945 108.251L667.563 110.944L663.538 101.102C656.14 82.9595 632.562 73.3249 610.899 79.4507C589.236 85.5765 577.703 105.475 585.1 123.617L589.125 133.456L579.705 136.163C572.245 138.486 568.376 145.102 570.924 151.19L597.034 215.213C598.127 218.145 600.659 220.592 604.044 221.999C607.43 223.41 611.383 223.655 614.997 222.684L712.237 194.772C719.801 192.453 723.722 185.749 721.111 179.596L694.984 115.576C693.86 112.655 691.304 110.221 687.901 108.842C684.502 107.459 680.546 107.248 676.945 108.251ZM602.827 118.487C598.681 108.683 604.923 98.0043 616.965 94.2915C622.747 92.7013 629.086 93.0677 634.522 95.3044C639.962 97.5411 644.036 101.454 645.807 106.146L649.815 115.988L606.835 128.326L602.827 118.487ZM657.486 175.299L664.157 191.644C664.409 192.325 663.953 193.047 663.116 193.282L653.771 195.958C652.997 196.131 652.194 195.782 651.949 195.17L645.226 178.894C637.631 178.562 631.095 174.483 628.827 168.662C625.534 160.852 630.511 152.348 640.104 149.392C644.711 148.131 649.76 148.421 654.09 150.205C658.423 151.985 661.667 155.1 663.081 158.837C665.474 164.738 663.289 171.22 657.506 175.344L657.486 175.299Z" fill="#4E73DF"/>
<path d="M667.145 110.768C667.145 110.971 649.742 116.219 628.097 122.463C606.451 128.706 588.797 133.722 588.707 133.573C588.617 133.428 606.106 128.135 627.768 121.878C649.435 115.621 667.051 110.577 667.145 110.768Z" fill="#263238"/>
<path d="M687.805 113.457C687.884 113.585 687.953 113.716 688.005 113.851C688.15 114.145 688.316 114.525 688.534 114.992C689.008 116.06 689.665 117.536 690.485 119.379L697.481 135.723C700.396 142.655 703.875 150.869 707.738 159.991C709.561 164.569 711.708 169.336 713.714 174.348C714.786 176.934 715.25 179.655 715.08 182.375C714.925 183.789 714.423 185.165 713.603 186.424C712.729 187.678 711.56 188.788 710.162 189.687C707.347 191.336 704.221 192.612 700.905 193.472L691.522 196.176L673.757 201.278L643.677 209.876L623.363 215.607L617.895 217.07L616.436 217.45C616.28 217.505 616.114 217.54 615.944 217.55C615.944 217.55 616.09 217.55 616.401 217.377L617.822 216.921L623.286 215.272L643.493 209.305L673.522 200.535L691.249 195.388L700.631 192.667C703.855 191.844 706.887 190.603 709.613 188.999C710.916 188.166 712.006 187.136 712.822 185.971C713.593 184.809 714.057 183.53 714.188 182.216C714.354 179.593 713.911 176.972 712.877 174.48C710.909 169.509 708.831 164.7 706.953 160.123C703.163 150.986 699.667 142.741 696.896 135.81C694.126 128.882 691.795 123.309 690.191 119.393C689.426 117.478 688.842 115.988 688.368 114.906L687.932 113.734C687.877 113.647 687.836 113.554 687.805 113.457Z" fill="#263238"/>
<path d="M636.497 93.2959C636.497 93.2959 635.532 92.9156 633.748 92.3314C631.203 91.5467 628.509 91.1111 625.783 91.0454C621.744 90.9348 617.726 91.5432 614.015 92.8292C609.502 94.4298 605.642 97.0191 602.882 100.3C600.102 103.57 598.611 107.435 598.601 111.397C598.639 114.639 599.251 117.865 600.42 120.973C601.368 123.631 602.353 125.754 603.01 127.23C603.394 127.98 603.712 128.751 603.958 129.539C603.439 128.837 603.007 128.097 602.665 127.33C601.918 125.868 600.842 123.793 599.784 121.118C598.487 117.979 597.782 114.702 597.688 111.397C597.64 107.286 599.168 103.266 602.063 99.8745C604.919 96.4729 608.935 93.8041 613.631 92.1862C617.459 90.8933 621.602 90.3229 625.749 90.5165C628.533 90.6306 631.268 91.1526 633.82 92.0548C634.502 92.3072 635.159 92.5976 635.788 92.9295C636.048 93.0228 636.286 93.1438 636.497 93.2959Z" fill="#263238"/>
<path d="M637.334 150.506C637.628 150.364 637.932 150.239 638.247 150.139C639.16 149.807 640.104 149.538 641.069 149.334C642.608 148.971 644.192 148.756 645.79 148.691C647.965 148.597 650.14 148.86 652.184 149.465C656.849 150.782 661.131 154.599 663.244 159.701C664.257 162.439 664.257 165.353 663.244 168.091C662.12 171.064 660.107 173.771 657.378 175.973L657.486 175.576C659.91 180.913 662.552 186.704 665.284 192.74L665.45 193.106L664.994 193.237L660.823 194.35L651.71 196.791L651.257 196.909L651.108 196.542C648.615 190.489 645.88 184.847 643.822 179.306L644.223 179.555C640.661 179.316 637.265 178.244 634.457 176.467C631.915 174.898 629.833 172.903 628.353 170.622C627.018 168.596 626.354 166.332 626.423 164.043C626.593 159.304 629.394 154.875 634.056 151.964C635.003 151.349 636.068 150.855 637.21 150.506C636.179 150.993 635.183 151.525 634.222 152.099C631.69 153.814 629.75 156.026 628.591 158.515C626.572 162.318 626.779 166.646 629.155 170.314C630.611 172.509 632.645 174.424 635.114 175.928C637.791 177.615 641.031 178.632 644.424 178.853H644.731L644.825 179.071C646.827 184.508 649.58 190.199 652.111 196.279L651.51 196.044L660.622 193.604L664.776 192.477L664.482 192.975C661.767 186.939 659.146 181.134 656.739 175.797V175.576L656.96 175.403C659.609 173.291 661.584 170.698 662.715 167.842C663.683 165.225 663.683 162.436 662.715 159.815C660.729 154.906 656.631 151.176 652.184 149.859C650.216 149.251 648.117 148.967 646.007 149.026C644.434 149.057 642.871 149.226 641.342 149.538C638.627 150.08 637.355 150.578 637.334 150.506Z" fill="#263238"/>
<path d="M581.019 572.641L399.019 571.971C377.131 571.874 359.48 557.572 359.57 540.011L361.503 173.909C361.593 156.337 379.431 142.153 401.333 142.243L583.312 142.917C605.199 143.004 622.858 157.299 622.778 174.86L620.845 540.944C620.755 558.523 602.924 572.714 581.019 572.641Z" fill="#455A64"/>
<path d="M583.039 155.504H547.768C542.926 155.577 539.073 158.785 539.167 162.667V167.801C539.212 169.664 538.326 171.465 536.715 172.807C535.1 174.148 532.89 174.919 530.566 174.95L461.804 174.701C456.959 174.597 453.138 171.365 453.259 167.479V162.346C453.38 158.463 449.569 155.235 444.731 155.124H432.322L401.44 155.007C386.147 154.934 373.659 164.797 373.511 177.069L371.688 534.41C371.619 546.707 383.986 556.722 399.309 556.781L580.926 557.451C596.263 557.507 608.751 547.578 608.82 535.275L610.643 177.93C610.733 165.623 598.38 155.584 583.039 155.504Z" fill="white"/>
<path d="M558.606 509.776L423.559 509.309C422.158 509.309 421.028 508.079 421.045 506.589L421.19 478.241C421.19 476.779 422.338 475.521 423.742 475.521L558.789 476.019C560.404 476.243 561.514 477.446 561.303 478.753L561.175 507.073C561.175 508.576 560.01 509.79 558.606 509.776Z" fill="#4E73DF"/>
<path d="M467.981 487.533V488.695C467.435 488.473 466.923 488.314 466.446 488.211C465.965 488.1 465.498 488.045 465.048 488.045C464.274 488.045 463.672 488.176 463.25 488.432C462.825 488.681 462.614 489.04 462.614 489.51C462.614 489.898 462.752 490.195 463.029 490.395C463.312 490.589 463.848 490.751 464.633 490.879L465.505 491.018C466.563 491.194 467.348 491.498 467.856 491.93C468.361 492.355 468.617 492.926 468.617 493.645C468.617 494.495 468.271 495.138 467.58 495.581C466.895 496.023 465.892 496.245 464.564 496.245C464.066 496.245 463.534 496.196 462.973 496.106C462.41 496.016 461.825 495.878 461.217 495.691V494.461C461.798 494.73 462.365 494.931 462.918 495.069C463.478 495.207 464.028 495.277 464.564 495.277C465.384 495.277 466.017 495.145 466.459 494.876C466.902 494.609 467.123 494.226 467.123 493.728C467.123 493.296 466.961 492.96 466.639 492.718C466.324 492.47 465.802 492.286 465.076 492.165L464.205 492.013C463.143 491.84 462.372 491.564 461.894 491.184C461.414 490.807 461.175 490.281 461.175 489.607C461.175 488.826 461.5 488.207 462.157 487.754C462.821 487.305 463.734 487.077 464.896 487.077C465.384 487.077 465.885 487.115 466.404 487.187C466.919 487.263 467.445 487.377 467.981 487.533Z" fill="#E8E8E3"/>
<path d="M470.859 487.243H472.284V496.079H470.859V487.243Z" fill="#E8E8E3"/>
<path d="M475.14 487.243H477.062L481.752 494.64V487.243H483.149V496.079H481.212L476.523 488.681V496.079H475.14V487.243Z" fill="#E8E8E3"/>
<path d="M493.205 494.82V492.442H490.867V491.46H494.63V495.249C494.077 495.581 493.461 495.83 492.79 495.996C492.126 496.162 491.414 496.245 490.66 496.245C489.007 496.245 487.717 495.844 486.787 495.042C485.853 494.233 485.389 493.106 485.389 491.668C485.389 490.223 485.853 489.096 486.787 488.294C487.717 487.485 489.007 487.077 490.66 487.077C491.352 487.077 492.005 487.153 492.624 487.298C493.25 487.436 493.828 487.644 494.353 487.92V489.192C493.817 488.816 493.25 488.536 492.652 488.349C492.06 488.155 491.438 488.058 490.784 488.058C489.491 488.058 488.519 488.363 487.866 488.971C487.219 489.573 486.897 490.471 486.897 491.668C486.897 492.857 487.219 493.756 487.866 494.364C488.519 494.965 489.491 495.263 490.784 495.263C491.289 495.263 491.742 495.228 492.14 495.152C492.534 495.08 492.89 494.969 493.205 494.82Z" fill="#E8E8E3"/>
<path d="M501.694 487.243H503.132V492.608C503.132 493.558 503.333 494.239 503.741 494.654C504.156 495.069 504.823 495.277 505.747 495.277C506.667 495.277 507.331 495.069 507.739 494.654C508.154 494.239 508.361 493.558 508.361 492.608V487.243H509.8V492.76C509.8 493.915 509.458 494.786 508.776 495.373C508.092 495.954 507.082 496.245 505.747 496.245C504.408 496.245 503.399 495.954 502.717 495.373C502.033 494.786 501.694 493.915 501.694 492.76V487.243Z" fill="#E8E8E3"/>
<path d="M513.909 488.224V491.543H515.721C516.385 491.543 516.897 491.401 517.257 491.114C517.623 490.821 517.81 490.409 517.81 489.884C517.81 489.351 517.623 488.94 517.257 488.653C516.897 488.37 516.385 488.224 515.721 488.224H513.909ZM512.484 487.243H515.721C516.901 487.243 517.796 487.471 518.405 487.92C519.014 488.363 519.318 489.019 519.318 489.884C519.318 490.751 519.014 491.412 518.405 491.861C517.796 492.304 516.901 492.525 515.721 492.525H513.909V496.079H512.484V487.243Z" fill="#E8E8E3"/>
<path d="M403.636 260.379L450.496 260.548L450.458 267.448L403.598 267.279L403.636 260.379Z" fill="#7B61FF"/>
<path d="M403.636 260.379L450.496 260.548L450.458 267.448L403.598 267.279L403.636 260.379Z" fill="#4E73DF"/>
<path d="M587.87 302.917C588.237 302.886 588.596 302.82 588.942 302.713C589.973 302.392 590.682 301.624 590.765 300.739C590.765 298.416 590.765 295.021 590.765 290.665C590.765 288.488 590.765 286.047 590.765 283.357C590.765 282.697 590.765 282.009 590.765 281.325C590.886 280.658 590.702 279.976 590.256 279.41C589.748 278.856 588.946 278.525 588.088 278.518H558.917L406.524 278.065C405.732 278.051 404.985 278.352 404.521 278.867C404.082 279.441 403.912 280.118 404.047 280.782C404.047 282.244 404.047 283.707 404.047 285.169C404.047 288.093 404.047 291.018 404.047 293.939C404.047 295.402 404.047 296.864 404.047 298.326C403.971 299.007 403.971 299.692 404.047 300.373C404.241 300.964 404.767 301.451 405.469 301.69C405.828 301.804 406.212 301.859 406.596 301.849H415.871L456.337 302.025L524.846 302.36L571.032 302.654L583.585 302.772H586.846C587.593 302.772 587.96 302.772 587.96 302.772H524.846L456.337 302.596L415.871 302.464H406.596C406.088 302.481 405.579 302.412 405.102 302.26C404.13 301.928 403.404 301.251 403.134 300.431C403.031 300.048 402.993 299.654 403.027 299.263V298.181C403.027 296.719 403.027 295.256 403.027 293.794C403.027 290.869 403.027 287.948 403.027 285.024C403.027 283.561 403.027 282.099 403.027 280.637C402.993 280.246 402.993 279.855 403.027 279.468C403.096 279.036 403.3 278.628 403.629 278.283C404.265 277.567 405.299 277.145 406.396 277.156L558.789 277.83L585.117 277.975H587.96C588.977 277.975 589.928 278.376 590.509 279.043C591.024 279.679 591.231 280.443 591.093 281.193C591.093 281.878 591.093 282.566 591.093 283.223C591.093 285.884 591.093 288.325 591.093 290.534C591.093 294.921 590.965 298.281 590.931 300.622C590.837 301.541 590.094 302.333 589.015 302.654C588.672 302.827 588.275 302.917 587.87 302.917Z" fill="#E0E0E0"/>
<path d="M417.711 285.404H503.418V291.851H417.711V285.404Z" fill="#7B61FF"/>
<path d="M417.711 285.404H503.418V291.851H417.711V285.404Z" fill="white"/>
<path d="M403.318 323.331L450.178 323.5L450.14 330.4L403.276 330.231L403.318 323.331Z" fill="#7B61FF"/>
<path d="M403.318 323.331L450.178 323.5L450.14 330.4L403.276 330.231L403.318 323.331Z" fill="#4E73DF"/>
<path d="M586.684 365.872C587.05 365.834 587.417 365.782 587.777 365.71C588.807 365.447 589.644 364.839 590.073 364.043C590.36 363.452 590.471 362.816 590.402 362.187C590.402 361.485 590.402 360.725 590.402 359.878C590.402 358.18 590.402 356.251 590.402 354.029V344.747C590.488 344.072 590.301 343.395 589.872 342.814C589.423 342.219 588.717 341.777 587.887 341.573C586.978 341.442 586.054 341.404 585.135 341.455H558.917L407.053 341.003C405.365 341.006 403.937 342.012 403.719 343.357C403.719 344.747 403.719 346.281 403.719 347.744C403.719 350.665 403.719 353.589 403.719 356.514C403.719 357.976 403.719 359.439 403.719 360.901C403.65 361.582 403.688 362.27 403.83 362.948C404.054 363.539 404.525 364.054 405.158 364.41C405.832 364.752 406.62 364.915 407.416 364.877H415.214L455.538 365.039L523.808 365.374L569.832 365.668L582.347 365.782H586.701H523.808L455.5 365.724L415.18 365.609H407.253C406.268 365.654 405.289 365.443 404.466 365.008C403.636 364.548 403.031 363.871 402.754 363.093C402.591 362.349 402.54 361.596 402.609 360.842C402.609 359.38 402.609 357.918 402.609 356.455C402.609 353.531 402.609 350.61 402.609 347.685C402.609 346.223 402.609 344.76 402.609 343.298C402.882 341.57 404.715 340.273 406.89 340.273L558.751 340.944L584.972 341.106C585.947 341.058 586.926 341.11 587.887 341.265C588.835 341.514 589.63 342.036 590.128 342.728C590.599 343.371 590.803 344.121 590.709 344.861C590.709 345.549 590.709 346.223 590.709 346.893C590.709 349.541 590.709 351.968 590.709 354.205C590.709 356.442 590.709 358.326 590.709 360.054C590.709 360.887 590.709 361.662 590.709 362.377C590.778 363.031 590.647 363.687 590.329 364.292C589.848 365.108 588.953 365.717 587.87 365.959C587.469 365.986 587.068 365.955 586.684 365.872Z" fill="#E0E0E0"/>
<path d="M402.961 389.017L449.825 389.186L449.787 396.086L402.923 395.917L402.961 389.017Z" fill="#7B61FF"/>
<path d="M402.961 389.017L449.825 389.186L449.787 396.086L402.923 395.917L402.961 389.017Z" fill="#4E73DF"/>
<path d="M586.321 431.531C586.687 431.496 587.054 431.441 587.413 431.368C588.437 431.109 589.274 430.507 589.71 429.716C589.993 429.125 590.107 428.492 590.035 427.859C590.035 427.144 590.035 426.397 590.035 425.536C590.035 423.853 590.035 421.91 590.035 419.687V410.405C590.125 409.731 589.938 409.053 589.509 408.473C589.049 407.888 588.344 407.453 587.521 407.245C586.615 407.111 585.691 407.066 584.771 407.114H558.554L406.689 406.661C404.998 406.665 403.574 407.671 403.356 409.015C403.356 410.478 403.356 411.94 403.356 413.402C403.356 416.323 403.356 419.248 403.356 422.173C403.356 423.635 403.356 425.097 403.356 426.56C403.286 427.237 403.325 427.918 403.463 428.592C403.681 429.187 404.151 429.705 404.794 430.055C405.462 430.404 406.257 430.566 407.053 430.521H414.979L455.299 430.698L523.57 431.033L569.593 431.323L582.112 431.441H585.373C586.099 431.441 586.466 431.441 586.466 431.441C586.466 431.441 586.099 431.441 585.373 431.441H523.57L455.299 431.282L414.979 431.15H407.053C406.067 431.202 405.085 430.991 404.265 430.549C403.435 430.089 402.83 429.412 402.553 428.634C402.391 427.89 402.339 427.137 402.408 426.383C402.408 424.921 402.408 423.459 402.408 421.996C402.408 419.072 402.408 416.151 402.408 413.226C402.408 411.764 402.408 410.301 402.408 408.766C402.674 407.038 404.5 405.742 406.669 405.742L558.533 406.412L584.754 406.575C585.729 406.526 586.708 406.578 587.669 406.734C588.613 406.983 589.412 407.505 589.91 408.196C590.381 408.839 590.585 409.589 590.491 410.329C590.491 411.017 590.491 411.705 590.491 412.362C590.491 415.01 590.491 417.437 590.491 419.673C590.491 421.91 590.491 423.794 590.491 425.522C590.491 426.356 590.491 427.13 590.491 427.846C590.56 428.499 590.429 429.156 590.111 429.761C589.63 430.577 588.731 431.185 587.649 431.427C587.223 431.545 586.767 431.579 586.321 431.531Z" fill="#E0E0E0"/>
<path d="M415.882 349.866L501.589 350.181L501.554 356.628L415.847 356.314L415.882 349.866Z" fill="#7B61FF"/>
<path d="M415.882 349.866L501.589 350.181L501.554 356.628L415.847 356.314L415.882 349.866Z" fill="white"/>
<path d="M423.632 419.601C423.483 421.239 421.719 422.48 419.675 422.387C417.628 422.29 416.055 420.897 416.141 419.252C416.227 417.609 417.939 416.327 419.99 416.368C422.103 416.462 423.725 417.903 423.632 419.601Z" fill="#7B61FF"/>
<path d="M435.238 419.642C435.338 420.766 434.646 421.841 433.446 422.425C432.246 423.013 430.742 423.013 429.542 422.425C428.345 421.841 427.654 420.766 427.751 419.642C427.654 418.519 428.345 417.447 429.542 416.863C430.742 416.275 432.246 416.275 433.446 416.863C434.646 417.447 435.338 418.519 435.238 419.642Z" fill="#7B61FF"/>
<path d="M446.865 419.687C446.712 421.329 444.952 422.57 442.905 422.473C440.858 422.38 439.284 420.983 439.37 419.341C439.457 417.696 441.169 416.413 443.22 416.455C445.329 416.559 446.948 417.993 446.865 419.687Z" fill="#7B61FF"/>
<path d="M458.471 419.732C458.319 421.371 456.558 422.612 454.511 422.518C452.464 422.422 450.89 421.028 450.977 419.383C451.063 417.741 452.775 416.458 454.826 416.5C456.935 416.603 458.554 418.038 458.471 419.732Z" fill="#7B61FF"/>
<path d="M470.077 419.76C469.935 421.405 468.178 422.653 466.127 422.563C464.076 422.473 462.496 421.077 462.582 419.431C462.665 417.786 464.381 416.5 466.432 416.545C468.531 416.645 470.149 418.073 470.077 419.76Z" fill="#7B61FF"/>
<path d="M481.7 419.805C481.562 421.44 479.822 422.684 477.782 422.608C475.745 422.532 474.154 421.163 474.202 419.525C474.254 417.889 475.925 416.583 477.965 416.59C480.102 416.652 481.773 418.09 481.7 419.805Z" fill="#7B61FF"/>
<path d="M493.306 419.849C493.403 420.973 492.711 422.045 491.515 422.629C490.315 423.217 488.81 423.217 487.61 422.629C486.41 422.045 485.719 420.973 485.819 419.849C485.719 418.726 486.41 417.651 487.61 417.067C488.81 416.479 490.315 416.479 491.515 417.067C492.711 417.651 493.403 418.726 493.306 419.849Z" fill="#7B61FF"/>
<path d="M504.912 419.891C504.774 421.526 503.034 422.771 500.994 422.695C498.957 422.619 497.366 421.25 497.415 419.614C497.467 417.976 499.137 416.673 501.177 416.676C503.315 416.738 504.985 418.176 504.912 419.891Z" fill="#7B61FF"/>
<path d="M516.518 419.936C516.38 421.578 514.62 422.826 512.569 422.736C510.522 422.646 508.941 421.253 509.024 419.608C509.107 417.962 510.822 416.676 512.873 416.721C514.976 416.821 516.591 418.249 516.518 419.936Z" fill="#7B61FF"/>
<path d="M423.632 419.601C423.483 421.239 421.719 422.48 419.675 422.387C417.628 422.29 416.055 420.897 416.141 419.252C416.227 417.609 417.939 416.327 419.99 416.368C422.103 416.462 423.725 417.903 423.632 419.601Z" fill="white"/>
<path d="M435.238 419.642C435.338 420.766 434.646 421.841 433.446 422.425C432.246 423.013 430.742 423.013 429.542 422.425C428.345 421.841 427.654 420.766 427.75 419.642C427.654 418.519 428.345 417.447 429.542 416.863C430.742 416.275 432.246 416.275 433.446 416.863C434.646 417.447 435.338 418.519 435.238 419.642Z" fill="white"/>
<path d="M446.864 419.687C446.712 421.329 444.952 422.57 442.905 422.473C440.857 422.38 439.284 420.983 439.37 419.341C439.457 417.696 441.169 416.413 443.219 416.455C445.329 416.559 446.947 417.993 446.864 419.687Z" fill="white"/>
<path d="M458.471 419.732C458.318 421.371 456.558 422.612 454.511 422.518C452.463 422.422 450.89 421.028 450.976 419.383C451.063 417.741 452.775 416.458 454.826 416.5C456.935 416.603 458.554 418.038 458.471 419.732Z" fill="white"/>
<path d="M470.077 419.76C469.935 421.405 468.178 422.653 466.127 422.563C464.076 422.473 462.496 421.077 462.582 419.431C462.665 417.786 464.381 416.5 466.432 416.545C468.531 416.645 470.149 418.073 470.077 419.76Z" fill="white"/>
<path d="M481.7 419.805C481.562 421.44 479.822 422.684 477.782 422.608C475.745 422.532 474.154 421.163 474.202 419.525C474.254 417.889 475.925 416.583 477.965 416.59C480.102 416.652 481.773 418.09 481.7 419.805Z" fill="white"/>
<path d="M493.306 419.85C493.403 420.973 492.711 422.045 491.515 422.629C490.315 423.217 488.81 423.217 487.61 422.629C486.41 422.045 485.719 420.973 485.819 419.85C485.719 418.726 486.41 417.651 487.61 417.067C488.81 416.479 490.315 416.479 491.515 417.067C492.711 417.651 493.403 418.726 493.306 419.85Z" fill="white"/>
<path d="M504.912 419.891C504.774 421.526 503.034 422.771 500.994 422.695C498.957 422.619 497.366 421.25 497.415 419.614C497.466 417.976 499.137 416.673 501.177 416.676C503.314 416.738 504.985 418.176 504.912 419.891Z" fill="white"/>
<path d="M516.518 419.936C516.38 421.578 514.62 422.826 512.569 422.736C510.522 422.646 508.941 421.253 509.024 419.608C509.107 417.962 510.822 416.676 512.873 416.721C514.976 416.821 516.591 418.249 516.518 419.936Z" fill="white"/>
<path d="M500.029 208.88C502.616 207.968 504.272 205.9 504.238 203.633C504.366 201.669 503.135 199.806 501.032 198.793C498.929 197.78 496.301 197.78 494.198 198.793C492.099 199.806 490.865 201.669 490.993 203.633C490.937 205.925 492.604 208.019 495.219 208.939C485.017 210.17 485.473 219.058 485.473 219.058L509.595 219.144C509.595 219.144 510.158 210.094 500.029 208.88Z" fill="#7B61FF"/>
<path d="M500.029 208.88C502.616 207.968 504.272 205.9 504.238 203.633C504.366 201.669 503.135 199.806 501.032 198.793C498.929 197.78 496.301 197.78 494.198 198.793C492.099 199.806 490.865 201.669 490.993 203.633C490.937 205.925 492.604 208.019 495.219 208.939C485.017 210.17 485.473 219.058 485.473 219.058L509.595 219.144C509.595 219.144 510.158 210.094 500.029 208.88Z" fill="#4E73DF"/>
<path d="M453.249 224.564L539.229 224.879L539.184 233.124L453.204 232.809L453.249 224.564Z" fill="#7B61FF"/>
<path d="M453.249 224.564L539.229 224.879L539.184 233.124L453.204 232.809L453.249 224.564Z" fill="white"/>
<path d="M223.14 267.611H222.282L219.806 267.756C218.464 267.822 217.133 267.964 215.815 268.181C214.965 268.278 214.117 268.409 213.284 268.575L210.458 269.205C205.651 270.387 201.118 272.188 197.03 274.539C191.631 277.685 187.125 281.712 183.802 286.355C181.851 289.03 180.299 291.879 179.175 294.848C177.995 298.07 177.318 301.403 177.152 304.76C177.044 306.523 177.082 308.293 177.262 310.052C177.262 310.944 177.573 311.836 177.719 312.742C177.84 313.654 178.054 314.56 178.355 315.445C181.678 327.344 191.811 337.28 205.686 342.244C210.638 343.958 215.947 344.916 221.335 345.068C226.903 345.314 232.477 344.671 237.734 343.181L239.339 342.7H239.557L239.74 342.786L262.713 352.145L262.039 352.611C259.58 346.499 257.211 340.577 254.915 334.891V334.673L255.115 334.51C260.69 330.006 264.826 324.489 267.178 318.429C269.308 312.887 269.927 307.045 269.001 301.296C268.174 296.183 266.127 291.25 262.969 286.763C260.248 282.908 256.737 279.448 252.584 276.53C249.157 274.217 245.367 272.281 241.306 270.767C238.236 269.706 235.037 268.897 231.758 268.354L228.113 267.874L225.471 267.711L223.87 267.625H223.323C223.503 267.607 223.686 267.607 223.87 267.625H225.492L228.134 267.711L231.775 268.136C235.095 268.638 238.336 269.415 241.452 270.459C245.581 271.956 249.44 273.889 252.93 276.208C257.159 279.112 260.746 282.573 263.533 286.441C266.78 290.977 268.89 295.979 269.748 301.164C270.754 307.003 270.173 312.946 268.053 318.591C265.688 324.776 261.486 330.41 255.807 335.008L255.918 334.628C258.214 340.315 260.6 346.237 263.08 352.335L263.426 353.227L262.385 352.801L239.411 343.457H239.813L238.173 343.941C232.813 345.455 227.138 346.109 221.463 345.87C215.957 345.704 210.538 344.712 205.485 342.946C195.847 339.634 187.827 333.878 182.657 326.559C180.274 323.178 178.538 319.531 177.501 315.739C177.214 314.83 177.003 313.907 176.861 312.977C176.716 312.054 176.477 311.148 176.425 310.242C175.931 305.04 176.615 299.809 178.445 294.804C179.597 291.796 181.194 288.909 183.204 286.206C186.603 281.522 191.203 277.47 196.705 274.321C200.858 271.963 205.468 270.176 210.351 269.028L213.211 268.444C214.052 268.288 214.902 268.164 215.76 268.078C217.091 267.881 218.437 267.763 219.789 267.728L222.282 267.652C222.569 267.625 222.853 267.607 223.14 267.611Z" fill="#4E73DF"/>
<path d="M233.525 301.704H230.153L222.867 293.486V288.094C222.867 288.094 217.655 287.831 218.274 294.89C218.897 301.953 218.274 300.155 218.274 300.155C218.274 300.155 207.215 300.155 206.305 300.957C205.395 301.762 205.34 310.329 205.212 315.11C205.067 317.481 206.952 319.628 209.784 320.316C210.171 320.403 210.569 320.444 210.97 320.447C213.74 320.447 227.823 318.65 227.823 318.65H233.636L233.525 301.704Z" fill="#4E73DF"/>
<path d="M243.164 300.255L241.089 318.736H235.331V300.635L243.164 300.255Z" fill="#4E73DF"/>
<path d="M311.835 676.472V663.971L283.902 663.812L283.667 682.715L285.396 682.819C293.105 683.213 324.607 683.797 329.78 682.511C335.538 681.08 311.835 676.472 311.835 676.472Z" fill="#4E73DF"/>
<path d="M330.437 681.343C330.437 681.547 319.979 681.723 307.097 681.723C294.215 681.723 283.757 681.547 283.757 681.343C283.757 681.135 294.215 680.962 307.097 680.962C319.979 680.962 330.437 681.135 330.437 681.343Z" fill="#263238"/>
<path d="M312.326 679.03C312.091 678.93 312.326 678.273 312.893 677.571C313.457 676.869 314.221 676.576 314.405 676.721C314.588 676.869 314.204 677.422 313.658 678.024C313.111 678.622 312.565 679.134 312.326 679.03Z" fill="#263238"/>
<path d="M314.114 679.849C313.858 679.849 313.986 679.03 314.533 678.256C315.079 677.481 315.809 677.015 316.009 677.132C316.206 677.25 315.881 677.906 315.369 678.594C314.861 679.279 314.349 679.922 314.114 679.849Z" fill="#263238"/>
<path d="M292.175 681.284C292.068 681.284 291.649 681.021 291.047 680.465C290.311 679.749 289.495 679.096 288.606 678.505C287.731 677.945 286.686 677.578 285.58 677.436C284.726 677.35 284.176 677.436 284.124 677.35C284.068 677.264 284.598 676.956 285.597 676.897C286.922 676.876 288.212 677.226 289.242 677.893C290.21 678.522 291.023 679.293 291.649 680.157C292.068 680.8 292.285 681.225 292.175 681.284Z" fill="#263238"/>
<path d="M312.42 676.679C312.548 676.852 312.074 677.291 311.271 677.526C310.469 677.761 309.757 677.671 309.722 677.526C309.684 677.381 310.251 677.073 310.943 676.869C311.635 676.662 312.271 676.503 312.42 676.679Z" fill="#263238"/>
<path d="M311.98 675.466C311.98 675.684 311.251 675.86 310.303 675.874C309.359 675.888 308.612 675.711 308.629 675.507C308.647 675.303 309.394 675.113 310.303 675.099C311.216 675.086 311.946 675.258 311.98 675.466Z" fill="#263238"/>
<path d="M380.617 676.472V663.971L352.685 663.812L352.446 682.525L354.179 682.629C361.887 683.023 393.406 683.797 398.563 682.511C404.321 681.08 380.617 676.472 380.617 676.472Z" fill="#4E73DF"/>
<path d="M399.22 681.37C399.22 681.574 388.779 681.751 375.879 681.751C362.98 681.751 352.557 681.574 352.557 681.37C352.557 681.166 362.997 680.99 375.879 680.99C388.762 680.99 399.22 681.166 399.22 681.37Z" fill="#263238"/>
<path d="M381.108 679.03C380.891 678.93 381.108 678.273 381.672 677.571C382.236 676.869 383.004 676.576 383.183 676.721C383.367 676.869 382.983 677.422 382.436 678.024C381.89 678.622 381.344 679.134 381.108 679.03Z" fill="#263238"/>
<path d="M382.893 679.849C382.658 679.849 382.765 679.03 383.332 678.256C383.896 677.481 384.605 677.015 384.805 677.132C385.006 677.25 384.66 677.906 384.152 678.594C383.64 679.279 383.149 679.922 382.893 679.849Z" fill="#263238"/>
<path d="M360.957 681.284C360.846 681.284 360.445 681.021 359.826 680.465C359.093 679.749 358.277 679.096 357.384 678.505C356.51 677.945 355.469 677.578 354.362 677.436C353.522 677.35 352.958 677.436 352.903 677.35C352.847 677.264 353.376 676.956 354.379 676.897C355.7 676.876 356.99 677.226 358.024 677.893C358.996 678.518 359.809 679.289 360.428 680.157C360.846 680.8 361.064 681.225 360.957 681.284Z" fill="#263238"/>
<path d="M381.198 676.679C381.326 676.852 380.852 677.291 380.05 677.526C379.248 677.761 378.539 677.671 378.501 677.526C378.466 677.381 379.03 677.073 379.722 676.869C380.417 676.662 381.053 676.503 381.198 676.679Z" fill="#263238"/>
<path d="M380.797 675.466C380.797 675.684 380.067 675.86 379.123 675.874C378.176 675.888 377.446 675.711 377.463 675.507C377.481 675.303 378.21 675.113 379.123 675.099C380.033 675.086 380.797 675.258 380.797 675.466Z" fill="#263238"/>
<path d="M483.523 305.271C482.793 304.673 480.991 304.964 480.991 304.964C481.171 304.124 481.171 303.263 480.991 302.419C480.663 301.603 478.366 301.762 478.366 301.762C478.259 301.074 478.259 300.376 478.366 299.685C478.404 299.374 478.193 299.076 477.837 298.942C476.751 298.585 475.586 298.416 474.413 298.444C473.009 297.638 478.695 291.25 480.808 289.203C482.921 287.157 482.537 285.563 480.663 285.563C479.369 285.563 472.736 291.703 470.696 293.766C468.655 295.827 463.243 301.558 463.06 296.981C462.88 292.404 460.584 288.954 459.145 288.37C457.703 287.786 456.174 289.162 456.956 290.43C457.648 291.875 458.076 293.393 458.232 294.935C458.429 296.162 458.363 297.41 458.031 298.62C457.43 300.871 456.607 303.08 455.573 305.226H455.427C455.427 305.226 415.671 335.828 412.793 338.005C410.224 339.966 358.55 335.682 348.185 334.804C344.661 334.389 341.103 334.196 337.544 334.22C333.045 334.379 332.243 334.891 327.761 334.936C316.442 335.036 305.147 335.834 293.98 337.317C283.671 338.724 275.198 344.622 272.006 352.611C261.565 378.781 237.917 440.726 233.743 475.521C230.593 480.108 227.747 484.827 225.219 489.66C222.282 496.062 222.995 496.28 223.977 496.429C226.64 496.823 229.662 485.332 230.793 488.108C231.921 490.887 225.053 501.808 227.84 502.129C231.485 502.541 234.383 490.434 234.729 489.47C235.075 488.505 236.88 488.809 236.551 489.719C236.022 491.005 230.901 504.646 234.473 505.081C236.441 505.317 236.659 502.437 236.659 502.437C236.659 502.437 240.304 489.38 241.96 489.643C243.62 489.909 241.853 497.611 241.013 500.186C240.176 502.758 241.341 504.058 243.056 503.432C244.222 502.993 247.009 495.17 247.774 492.626C248.538 490.082 250.454 483.036 253.02 487.116C255.589 491.195 259.49 493.563 261.092 493.622C261.832 493.552 262.444 493.131 262.641 492.553C262.838 491.979 262.579 491.364 261.984 491.005C260.607 489.923 259.421 488.692 258.47 487.347C257.619 486.303 257.004 485.145 256.648 483.928C255.914 481.501 255.486 479.023 255.371 476.53L255.081 475.068C259.162 458.855 270.913 411.266 287.876 380.872L294.838 392.363L297.86 400.871L279.313 437.612L358.425 436.778L346.619 400.318L360.957 362.305C376.46 362.581 416.272 363.048 422.906 360.638C431.25 357.714 474.413 313.969 474.413 313.969C477.225 312.216 479.919 310.343 482.485 308.355C482.485 308.355 485.107 306.588 483.523 305.271Z" fill="#FFBE9D"/>
<path d="M275.834 410.464C278.127 404.176 289.916 373.094 289.916 373.094C289.916 373.094 295.709 398.43 294.18 401.486C292.773 404.103 291.109 406.623 289.207 409.029C275.834 425.36 277.581 433.532 277.581 433.532L358.387 431.558C358.571 422.494 351.882 401.413 350.499 398.05C349.112 394.686 353.722 383.679 353.722 383.679C353.722 383.679 362.835 376.236 362.506 372.406C362.333 368.966 361.801 365.544 360.919 362.173L410.113 363.636L408.564 336.878L337.907 331.206C335.448 336.778 313.201 334.044 313.201 334.044C289.187 334.687 287.693 338.223 277.709 344.453C267.724 350.682 251.201 404.131 251.201 404.131L275.834 410.464Z" fill="#4E73DF"/>
<path d="M323.604 404.131C322.207 404.331 320.778 404.39 319.36 404.307C316.718 404.307 313.094 404.162 309.103 403.84C305.112 403.519 301.505 403.066 298.936 402.654C297.518 402.509 296.131 402.222 294.8 401.807C296.224 401.807 297.646 401.915 299.046 402.129C301.633 402.392 305.223 402.758 309.193 403.08C313.167 403.401 316.774 403.619 319.378 403.768C320.799 403.781 322.214 403.902 323.604 404.131Z" fill="#263238"/>
<path d="M329.144 398.62C327.743 399.17 326.263 399.578 324.735 399.834C317.465 401.365 309.968 402.081 302.453 401.953C300.897 401.994 299.34 401.877 297.826 401.604C299.358 401.448 300.907 401.382 302.453 401.413C305.313 401.341 309.248 401.178 313.585 400.77C317.922 400.359 321.785 399.775 324.517 399.308C326.035 398.983 327.581 398.752 329.144 398.62Z" fill="#263238"/>
<path d="M356.33 374.031C356.292 375.144 356.101 376.253 355.762 377.332C355.289 379.365 354.562 382.144 353.632 385.183C352.702 388.225 351.81 391.032 351.007 392.933C350.686 394.022 350.208 395.077 349.586 396.076C349.69 394.966 349.946 393.867 350.354 392.802C351.045 390.52 351.827 387.89 352.702 385.01C353.577 382.127 354.414 379.496 355.109 377.218C355.354 376.119 355.762 375.047 356.33 374.031Z" fill="#263238"/>
<path d="M276.688 406.734C272.473 406.212 268.312 405.434 264.245 404.411C260.085 403.629 256.008 402.603 252.038 401.341C256.25 401.87 260.41 402.648 264.481 403.664C268.641 404.442 272.722 405.468 276.688 406.734Z" fill="#263238"/>
<path d="M361.794 361.852C361.106 361.945 360.403 361.945 359.719 361.852C357.813 361.693 355.946 361.337 354.161 360.784C348.133 358.965 343.344 355.19 340.968 350.388C339.671 347.775 339.118 344.964 339.346 342.157C339.429 339.841 340.29 337.591 341.843 335.637C342.936 334.32 344.564 333.356 346.453 332.903C346.958 332.792 347.48 332.737 348.002 332.744C348.365 332.744 348.548 332.744 348.548 332.744C348.548 332.744 347.784 332.744 346.563 333.138C344.831 333.65 343.364 334.611 342.389 335.873C339.913 339.001 339.221 344.716 341.86 350.053C343.091 352.57 345.018 354.827 347.49 356.659C349.52 358.16 351.855 359.366 354.396 360.227C356.783 360.984 359.262 361.527 361.794 361.852Z" fill="#263238"/>
<path d="M404.265 363.107C403.809 358.626 403.663 354.125 403.829 349.628C403.684 345.137 403.857 340.64 404.338 336.163C404.794 340.643 404.94 345.137 404.777 349.628C404.929 354.125 404.76 358.626 404.265 363.107Z" fill="#263238"/>
<path d="M337.434 332.844C337.634 329.584 338.053 325.899 338.053 325.899C338.053 325.899 348.113 325.007 348.711 316.676C349.313 308.341 348.711 289.117 348.711 289.117L330.493 281.632L310.269 294.396L313.384 336.063L331.931 337.01C334.885 337.076 337.344 335.212 337.434 332.844Z" fill="#FFBE9D"/>
<path d="M339.239 310.08C339.239 310.08 339.239 310.242 339.073 310.433C338.8 310.713 338.371 310.865 337.925 310.84C336.759 310.84 335.632 309.758 335.231 308.504C335.04 307.892 335.04 307.256 335.231 306.647C335.307 306.104 335.718 305.631 336.323 305.389C336.569 305.306 336.842 305.306 337.088 305.389C337.271 305.461 337.416 305.579 337.506 305.724C337.634 305.973 337.506 306.135 337.506 306.118C337.506 306.104 337.506 305.973 337.326 305.828C337.129 305.61 336.759 305.548 336.469 305.679C336.016 305.9 335.732 306.294 335.722 306.72C335.569 307.262 335.569 307.826 335.722 308.372C336.085 309.509 337.07 310.433 337.945 310.519C338.291 310.557 338.64 310.477 338.91 310.301C339.128 310.184 339.201 310.066 339.239 310.08Z" fill="#EB996E"/>
<path d="M354.964 284.612C353.56 280.782 348.476 278.881 343.849 277.83C336.797 276.222 329.182 275.52 322.293 277.553C315.408 279.582 307.135 283.15 307.135 289.248C303.072 288.985 300.741 291.834 299.136 295.374C298.109 297.528 297.497 299.795 297.314 302.098C296.805 310.08 294.014 321.104 287.565 326.953C283.923 330.213 278.874 332.464 276.799 336.529C274.976 340.052 275.924 344.235 274.229 347.803C272.718 350.945 269.381 353.182 266.943 355.916C261.883 362.218 261.23 370.169 265.21 376.952C269.194 383.524 276.37 388.491 285.051 390.697C293.561 392.774 302.639 392.844 311.199 390.901C317.621 389.667 323.614 387.285 328.725 383.928C333.954 380.499 337.548 375.728 338.893 370.418C340.186 364.451 338.108 358.384 336.558 352.449C331.713 333.691 333.097 332.713 339.221 315.3C339.367 314.992 339.439 314.671 339.546 314.367C339.657 314.059 339.712 313.91 339.785 313.679C339.958 312.991 340.051 312.289 340.058 311.587C338.232 312.133 336.178 311.777 334.791 310.681C333.405 309.513 332.931 307.829 333.553 306.295C334.421 304.628 336.13 303.339 338.253 302.741C340.276 302.07 342.445 301.717 344.43 300.974C348.638 299.363 351.554 296.031 353.542 292.536C355.175 290.116 355.676 287.305 354.964 284.612Z" fill="#263238"/>
<path d="M339.968 310.478C340.352 310.934 340.67 311.425 340.916 311.936C341.462 312.859 342.189 314.159 342.991 315.666L343.136 315.943H342.756L340.933 316.074C339.674 316.074 338.62 316.265 337.378 316.251C337.16 316.213 336.98 316.085 336.904 315.915C336.853 315.781 336.853 315.639 336.904 315.504C336.949 315.307 337.001 315.113 337.07 314.92L337.399 313.883C337.561 313.191 337.821 312.514 338.163 311.864C338.129 312.572 338.001 313.271 337.779 313.955L337.527 314.992C337.434 315.345 337.271 315.884 337.527 315.843C338.436 315.843 339.73 315.68 340.933 315.622L342.756 315.49L342.517 315.812C341.736 314.349 341.079 312.977 340.695 312.026C340.359 311.539 340.114 311.017 339.968 310.478Z" fill="#4E73DF"/>
<path d="M277.581 433.532L358.387 431.558L393.551 541.705L387.084 668.051H344.357L349.586 544.394L318.34 467.715L323.151 672.949L279.967 673.461L275.433 480.551C275.232 475.185 273.043 463.093 273.866 457.773L277.581 433.532Z" fill="#263238"/>
<path d="M329.089 469.277C327.768 469.347 326.44 469.281 325.136 469.087C322.694 468.856 319.36 468.444 315.698 467.86C312.036 467.276 308.757 466.602 306.388 466.062C305.123 465.838 303.895 465.485 302.743 465.008C302.743 464.79 308.685 465.931 315.971 467.113C323.258 468.299 329.127 469.06 329.089 469.277Z" fill="#455A64"/>
<path d="M386.645 661.123C386.645 661.327 376.972 661.503 365.038 661.503C353.103 661.503 343.409 661.327 343.409 661.123C343.409 660.919 353.086 660.743 365.038 660.743C376.99 660.743 386.645 660.902 386.645 661.123Z" fill="#455A64"/>
<path d="M322.767 667.615C322.767 667.833 313.367 667.992 301.778 667.992C290.19 667.992 280.807 667.833 280.807 667.615C280.807 667.394 290.207 667.235 301.778 667.235C313.346 667.235 322.767 667.408 322.767 667.615Z" fill="#455A64"/>
<path d="M317.192 667.086C316.936 667.086 315.809 622.249 314.661 566.941C313.512 511.632 312.838 466.764 313.073 466.764C313.312 466.764 314.477 511.588 315.608 566.927C316.736 622.263 317.465 667.086 317.192 667.086Z" fill="#455A64"/>
<path d="M380.908 661.123C380.887 660.922 380.887 660.722 380.908 660.521V658.769C380.908 657.189 381.053 654.924 381.164 652.045C381.416 646.196 381.783 637.702 382.236 627.293C383.221 606.357 384.605 577.495 386.12 545.639C386.12 545.331 386.12 545.041 386.12 544.775V544.878C376.554 514.177 367.898 486.31 361.614 466.149L354.324 442.306C353.487 439.513 352.847 437.335 352.394 435.814C352.173 435.098 352.028 434.542 351.9 434.116C351.83 433.926 351.789 433.729 351.775 433.532C351.869 433.715 351.941 433.909 351.993 434.103C352.138 434.511 352.322 435.067 352.574 435.769C353.069 437.231 353.778 439.454 354.69 442.23C356.51 447.875 359.079 456.003 362.285 466.018C368.627 486.165 377.374 513.956 387.067 544.702V544.806C387.067 545.068 387.067 545.376 387.067 545.666C385.445 577.526 383.968 606.371 382.893 627.307C382.329 637.729 381.855 646.164 381.527 652.045C381.344 654.966 381.198 657.189 381.108 658.769C381.108 659.515 380.998 660.099 380.981 660.521C380.984 660.725 380.96 660.926 380.908 661.123Z" fill="#455A64"/>
<path d="M366.967 542.203C363.9 543.012 360.739 543.575 357.53 543.883C353.594 544.425 350.243 544.806 348.732 544.865V544.571C349.223 544.688 349.479 544.761 349.479 544.82C349.479 544.878 349.167 544.82 348.659 544.82H347.566L348.659 544.557C350.08 544.222 353.432 543.665 357.367 543.095C360.525 542.545 363.741 542.248 366.967 542.203Z" fill="#455A64"/>
<path d="M366.22 546.399C363.381 546.503 360.531 546.399 357.713 546.092C354.867 546.047 352.031 545.794 349.24 545.345C354.936 544.975 360.666 545.328 366.22 546.399Z" fill="#455A64"/>
<path d="M277.235 435.859C279.172 437.85 282.073 439.091 285.217 439.264C288.471 439.572 291.763 439.523 295 439.119C315.861 437.262 337.963 435.551 358.387 431.558C331.949 432.744 304.019 432.35 277.581 433.532L277.307 435.344" fill="black"/>
<path d="M304.476 465.755L319.378 512.158L318.34 467.715L304.476 465.755Z" fill="black"/>
</svg>
